<svg width="309" height="361" viewBox="0 0 309 361" fill="none" xmlns="http://www.w3.org/2000/svg">
<path d="M81.9404 242.616C86.5084 232.216 89.3924 220.216 89.6644 206.3C90.9844 138.236 167.944 85.7119 253.316 143.444C338.688 201.176 263.236 360 263.236 360" stroke="#D8EDFF" stroke-width="1.788" stroke-miterlimit="10"/>
<path d="M22.2521 360C18.4801 357.036 -10.2759 328.92 6.9961 312.828C14.3761 305.96 30.2601 297.94 46.1721 285.712" stroke="#D8EDFF" stroke-width="1.788" stroke-miterlimit="10"/>
<path d="M228.024 189.4C228.335 191.011 229.148 192.482 230.348 193.6" stroke="#D8EDFF" stroke-width="1.788" stroke-miterlimit="10"/>
<path d="M161 220.305C160.408 220.461 159.908 220.573 159.512 220.665C159.216 220.717 158.972 220.769 158.804 220.793H158.768L158.536 220.833C158.536 220.833 158.512 220.805 158.496 220.805C154.496 217.869 155.724 212.405 155.724 212.405C167.684 214.289 170.164 204.601 170.164 204.601C170.008 199.957 169.124 197.773 167.084 196.517C164.952 195.181 161.552 194.837 156.356 193.717L155.496 193.525C147.768 191.769 144.164 183.837 142.74 179.437C142.409 178.462 142.142 177.466 141.94 176.457C133.188 179.745 127.708 184.401 124.552 187.893C123.304 163.137 148.152 166.693 148.152 166.693C152.334 166.753 156.489 167.36 160.512 168.501C161.424 168.901 162.296 169.301 163.128 169.701C163.528 169.905 163.952 170.125 164.328 170.353C164.704 170.581 165.128 170.805 165.496 171.033C165.764 171.189 166.036 171.357 166.296 171.533C171.762 175.002 176.132 179.951 178.896 185.805C178.936 185.884 178.97 185.966 179 186.049C179.126 186.32 179.237 186.598 179.332 186.881C184.956 211.489 167.604 218.533 161 220.305Z" fill="#2563EB"/>
<path d="M161 220.304C159.256 217.404 160.064 213.904 160.064 213.904C172.012 215.792 174.5 206.104 174.5 206.104C174.244 198.98 172.32 197.644 167.084 196.504C165.144 196.068 162.76 195.668 159.832 195.016C158.616 194.742 157.446 194.297 156.356 193.692C148.4 189.332 146.256 177.936 146.256 177.936C145.024 178.396 143.856 178.896 142.74 179.412C142.409 178.437 142.142 177.442 141.94 176.432C133.188 179.72 127.708 184.376 124.552 187.868C123.304 163.112 148.152 166.668 148.152 166.668C152.334 166.728 156.489 167.336 160.512 168.476C161.424 168.876 162.296 169.276 163.128 169.676C163.528 169.88 163.952 170.1 164.328 170.328C164.704 170.556 165.128 170.78 165.496 171.008C165.764 171.164 166.036 171.332 166.296 171.508C171.762 174.977 176.132 179.926 178.896 185.78C178.936 185.859 178.97 185.94 179 186.024C179.126 186.295 179.237 186.572 179.332 186.856C184.956 211.488 167.604 218.532 161 220.304Z" fill="#2563EB"/>
<path d="M202.932 329.868C204.78 341.932 207.04 353.8 209.4 360H103.316C90.5438 323.736 96.5998 284.12 96.5998 284.12L77.7598 284.712C89.0918 264.832 85.0598 248.024 83.1478 242.416C97.9478 239.9 112.748 237.924 127.704 237.756C127.304 246.316 136.648 256.156 150.124 253.568C155.588 252.528 162.248 250.368 162.392 240.796L165.908 241.412C170.772 242.212 175.172 243.068 179.344 244.032C190.144 246.52 199.424 249.632 210.988 253.568C194.988 265.412 202.94 292.768 202.94 292.768L203.34 293.68L198.232 292.768C198.232 292.768 200.124 311.532 202.932 329.868Z" fill="#111827"/>
<path d="M92.8678 66.2276C103.445 66.2276 112.02 57.6528 112.02 47.0756C112.02 36.498 103.445 27.9236 92.8678 27.9236C82.2906 27.9236 73.7158 36.498 73.7158 47.0756C73.7158 57.6528 82.2906 66.2276 92.8678 66.2276Z" fill="#2563EB"/>
<path d="M99.1644 40.6844C98.8952 40.0608 98.5324 39.482 98.0884 38.9684C97.3316 38.068 96.272 37.4752 95.1088 37.3016C93.946 37.1276 92.7592 37.3848 91.7724 38.0244C91.1272 38.4412 90.5884 39.0028 90.198 39.6648C89.808 40.3264 89.5772 41.07 89.5244 41.8364C88.5172 41.472 87.4188 41.4444 86.3948 41.7576C85.3704 42.0708 84.4756 42.7076 83.8444 43.5732C83.2132 44.4384 82.8796 45.4852 82.894 46.556C82.9084 47.6268 83.27 48.6644 83.9244 49.5124C85.2964 51.3004 87.6284 52.4764 89.7404 53.1604C90.8484 53.5128 91.9888 53.7556 93.1444 53.8844C93.7284 53.9484 97.0684 54.3964 97.3804 53.8844C99.4204 50.6324 100.9 44.6604 99.1644 40.6844Z" fill="white"/>
<path d="M60.6439 40.8521C59.3879 40.7121 58.1159 40.6241 56.8479 40.5561C55.488 40.6241 54.128 40.7241 52.768 40.8921C48.4728 41.3713 44.2652 42.4485 40.268 44.0921C38.4776 44.8285 36.7516 45.7129 35.108 46.7361C33.922 47.4489 32.7864 48.2413 31.708 49.1081C30.912 47.9669 30.2732 46.7237 29.808 45.4121C29.0164 43.1989 28.726 40.8381 28.9568 38.4989C29.188 36.1597 29.9348 33.9013 31.144 31.8857C32.3532 29.8701 33.994 28.1477 35.9492 26.8429C37.904 25.5381 40.124 24.6829 42.4492 24.3397C44.7744 23.9961 47.1468 24.1725 49.3956 24.8561C51.644 25.5401 53.7132 26.7141 55.4536 28.2941C57.1936 29.8737 58.5619 31.8197 59.4595 33.9921C60.3571 36.1645 60.7615 38.5089 60.6439 40.8561V40.8521Z" fill="#2563EB"/>
<path d="M52.768 40.8915C48.4728 41.3707 44.2652 42.4479 40.268 44.0915C40.036 43.4755 39.844 42.8915 39.78 42.6915C39.4592 41.7827 39.2276 40.8451 39.088 39.8915C38.844 38.0675 38.88 35.8915 39.728 34.2315C40.124 33.4343 40.7688 32.7879 41.5648 32.3895C42.3608 31.9911 43.2648 31.8627 44.1404 32.0235C45.016 32.1843 45.8152 32.6259 46.4176 33.2811C47.02 33.9363 47.3932 34.7695 47.48 35.6555C48.0744 35.4239 48.714 35.3311 49.3496 35.3847C49.9856 35.4379 50.6004 35.6359 51.148 35.9635C51.9596 36.4587 52.5684 37.2263 52.8652 38.1295C53.162 39.0323 53.1276 40.0115 52.768 40.8915Z" fill="white"/>
<path d="M35.108 46.7319C33.922 47.4443 32.7864 48.2371 31.708 49.1039C30.9852 49.6635 30.2912 50.2587 29.628 50.8879C28.7784 51.6983 28.03 52.6091 27.4 53.5999C26.8104 54.5219 26.2992 55.4923 25.872 56.4999C25.2264 58.0407 24.7112 59.6331 24.332 61.2599C23.5716 64.7691 23.1128 68.3367 22.96 71.9239C20.1472 70.5191 17.8896 68.2083 16.55 65.3639C15.2104 62.5195 14.8676 59.3071 15.576 56.2439C16.2848 53.1811 18.0036 50.4455 20.4564 48.4783C22.9088 46.5111 25.952 45.4267 29.096 45.3999C29.34 45.3999 29.568 45.3999 29.812 45.3999C31.6484 45.4879 33.4488 45.9407 35.108 46.7319Z" fill="#2563EB"/>
<path d="M27.4001 53.6004C26.8105 54.5228 26.2993 55.4928 25.8721 56.5004C25.2265 58.0412 24.7113 59.6336 24.3321 61.2604C23.5001 60.1044 22.7921 58.7204 22.6801 57.3364C22.6409 56.8388 22.7049 56.3388 22.8681 55.8668C23.0309 55.3952 23.2893 54.962 23.6273 54.5944C23.9649 54.2268 24.3749 53.9332 24.8313 53.7312C25.2877 53.5292 25.7809 53.4236 26.2801 53.4204C26.6609 53.4156 27.0397 53.4768 27.4001 53.6004Z" fill="white"/>
<g opacity="0.72">
<path opacity="0.72" d="M115.008 44.6644C120.831 44.6644 125.552 39.944 125.552 34.1204C125.552 28.2972 120.831 23.5764 115.008 23.5764C109.185 23.5764 104.464 28.2972 104.464 34.1204C104.464 39.944 109.185 44.6644 115.008 44.6644Z" fill="#2563EB"/>
<path opacity="0.72" d="M119.584 36.0007C119.843 35.7327 120.061 35.4283 120.232 35.0967C120.532 34.5227 120.613 33.8587 120.458 33.2295C120.304 32.6003 119.924 32.0495 119.392 31.6807C119.045 31.4419 118.649 31.2859 118.232 31.2255C117.816 31.1655 117.392 31.2019 116.992 31.3327C116.97 30.7415 116.756 30.1735 116.383 29.7147C116.01 29.2559 115.497 28.9311 114.923 28.7891C114.348 28.6475 113.744 28.6963 113.2 28.9283C112.656 29.1607 112.202 29.5639 111.908 30.0767C111.284 31.1527 111.172 32.5847 111.268 33.8047C111.318 34.4427 111.434 35.0739 111.612 35.6887C111.7 36.0007 112.168 37.7927 112.488 37.8487C114.568 38.2007 117.92 37.7087 119.584 36.0007Z" fill="white"/>
</g>
<g opacity="0.72">
<path opacity="0.72" d="M110.308 152.172C114.466 152.172 117.836 148.801 117.836 144.644C117.836 140.486 114.466 137.116 110.308 137.116C106.151 137.116 102.78 140.486 102.78 144.644C102.78 148.801 106.151 152.172 110.308 152.172Z" fill="#2563EB"/>
<path opacity="0.72" d="M113.572 146C113.757 145.809 113.913 145.59 114.032 145.352C114.247 144.943 114.304 144.47 114.195 144.022C114.085 143.573 113.815 143.18 113.436 142.916C113.188 142.744 112.903 142.632 112.603 142.589C112.304 142.546 111.999 142.573 111.712 142.668C111.694 142.248 111.541 141.844 111.274 141.518C111.008 141.193 110.643 140.962 110.235 140.86C109.827 140.759 109.396 140.793 109.009 140.956C108.621 141.12 108.297 141.405 108.084 141.768C107.677 142.593 107.517 143.518 107.624 144.432C107.661 144.887 107.744 145.338 107.872 145.776C107.936 145.996 108.272 147.28 108.496 147.316C109.992 147.556 112.384 147.2 113.572 146Z" fill="white"/>
</g>
<path d="M93.5631 54.2756L88.5527 64.8704C86.7343 68.7148 88.3771 73.3052 92.2215 75.1232L102.816 80.1336C106.661 81.9516 111.251 80.3088 113.069 76.4648L118.08 65.8696C119.898 62.0252 118.255 57.4348 114.411 55.6168L103.816 50.6064C99.9715 48.7884 95.3811 50.4312 93.5631 54.2756Z" fill="#2563EB"/>
<path d="M115.224 67.7273L111.596 75.3993C110.836 77.0017 109.473 78.2385 107.804 78.8381C106.136 79.4377 104.297 79.3521 102.692 78.5993L93.4917 74.2473C91.8897 73.4873 90.6541 72.1241 90.0545 70.4557C89.4549 68.7873 89.5401 66.9493 90.2917 65.3433L90.5357 64.8233C93.0357 62.8233 97.3597 60.1353 98.9357 63.8033C101.208 69.0833 104.16 67.3753 107.936 65.1673C111.104 63.2993 114.888 62.6792 115.224 67.7273Z" fill="white"/>
<path d="M100.964 59.5688C102.528 59.5688 103.796 58.3008 103.796 56.7368C103.796 55.1728 102.528 53.9048 100.964 53.9048C99.3998 53.9048 98.1318 55.1728 98.1318 56.7368C98.1318 58.3008 99.3998 59.5688 100.964 59.5688Z" fill="white"/>
<path d="M128.525 88.9077L121.926 102.862C119.532 107.923 121.695 113.965 126.756 116.359L140.71 122.958C145.77 125.351 151.813 123.189 154.206 118.128L160.805 104.174C163.198 99.1129 161.036 93.0705 155.976 90.6773L142.021 84.0781C136.96 81.6849 130.918 83.8473 128.525 88.9077Z" fill="#2563EB"/>
<path d="M157.04 106.624L152.24 116.724C151.237 118.831 149.441 120.455 147.244 121.241C145.047 122.027 142.628 121.912 140.516 120.92L128.42 115.2C126.313 114.197 124.689 112.4 123.903 110.204C123.117 108.007 123.232 105.588 124.224 103.476L124.548 102.792C127.84 100.168 133.528 96.6199 135.604 101.448C138.6 108.4 142.484 106.152 147.456 103.244C151.612 100.8 156.6 99.9759 157.04 106.624Z" fill="white"/>
<path d="M138.264 95.8796C140.323 95.8796 141.992 94.2104 141.992 92.1516C141.992 90.0924 140.323 88.4236 138.264 88.4236C136.205 88.4236 134.536 90.0924 134.536 92.1516C134.536 94.2104 136.205 95.8796 138.264 95.8796Z" fill="white"/>
<path d="M155.637 49.152C156.192 50.1752 156.597 51.2732 156.837 52.412C157.263 54.5084 157.137 56.6788 156.473 58.712C155.809 60.7452 154.629 62.5716 153.049 64.012C151.797 65.12 150.201 65.988 148.929 67.148C148.004 67.948 147.324 68.992 146.965 70.16C146.897 70.5588 146.737 70.9356 146.497 71.26C145.753 72.06 145.029 70.804 144.385 70.576C143.351 70.2408 142.231 70.2964 141.237 70.732C138.623 71.8096 135.717 71.9536 133.009 71.14C130.302 70.3264 127.957 68.6048 126.37 66.2652C124.783 63.9252 124.05 61.11 124.295 58.2932C124.541 55.4768 125.749 52.8304 127.717 50.8C129.677 48.8 132.245 47.532 134.721 46.22C136.905 45.06 139.077 43.82 141.445 43.136C147.021 41.48 152.945 44.244 155.637 49.152Z" fill="#2563EB"/>
<path d="M133.269 63.6158C134.742 63.6158 135.937 62.4214 135.937 60.9478C135.937 59.4742 134.742 58.2798 133.269 58.2798C131.795 58.2798 130.601 59.4742 130.601 60.9478C130.601 62.4214 131.795 63.6158 133.269 63.6158Z" fill="white"/>
<path d="M140.456 59.772C141.93 59.772 143.124 58.5776 143.124 57.104C143.124 55.6304 141.93 54.436 140.456 54.436C138.982 54.436 137.788 55.6304 137.788 57.104C137.788 58.5776 138.982 59.772 140.456 59.772Z" fill="white"/>
<path d="M147.2 56.1639C148.674 56.1639 149.868 54.9695 149.868 53.4959C149.868 52.0227 148.674 50.8279 147.2 50.8279C145.727 50.8279 144.532 52.0227 144.532 53.4959C144.532 54.9695 145.727 56.1639 147.2 56.1639Z" fill="white"/>
<path d="M238.48 228.823V228.887L237.492 251.599L236.94 264.043C236.94 263.583 236.964 263.107 236.992 262.647C230.164 260.363 221.392 257.115 214.624 254.819C201.304 250.275 191.268 246.783 179.336 244.039C178.616 240.563 177.936 233.107 181.284 222.223C186.084 206.695 187.664 190.939 185.224 187.895C185.201 187.86 185.171 187.83 185.136 187.807C183.4 181.547 178.808 185.599 178.808 185.599C178.808 185.599 178.836 185.663 178.848 185.699C177.892 184.115 176.843 182.59 175.704 181.131C175.742 180.905 175.802 180.682 175.884 180.467C177.36 176.027 185.224 174.959 185.224 174.959C196.736 175.807 202.792 180.939 205.848 187.679C208.54 196.187 206.952 205.411 206.604 214.139C206.464 217.923 205.924 223.739 208.812 226.803C211.48 231.847 218.192 229.667 220.012 229.115C220.604 228.947 222.14 228.843 224.156 228.779C228.264 228.679 234.308 228.755 237.992 228.819C238.172 228.823 238.328 228.823 238.48 228.823Z" fill="#2563EB"/>
<path d="M79.1599 24.6843C78.3215 24.8711 77.4607 24.9355 76.6039 24.8763C75.0327 24.7523 73.5203 24.2219 72.2155 23.3379C70.9103 22.4535 69.8575 21.2455 69.1599 19.8322C68.6279 18.7162 68.3599 17.4082 67.7799 16.2722C67.4015 15.4564 66.8011 14.7634 66.0479 14.2722C65.7787 14.1441 65.5443 13.9534 65.3639 13.7162C64.9639 13.0282 65.9879 12.7722 66.2799 12.3642C66.7259 11.7004 66.9151 10.8971 66.8119 10.1042C66.5743 8.02886 67.0607 5.93514 68.1891 4.17722C69.3175 2.41934 71.0183 1.1051 73.0043 0.456817C74.9899 -0.191463 77.1387 -0.133943 79.0867 0.619577C81.0351 1.3731 82.6631 2.77642 83.6959 4.59218C84.7119 6.38818 85.0839 8.46418 85.5079 10.4842C85.8839 12.2642 86.3079 14.0522 86.3079 15.8722C86.3439 20.1483 83.1799 23.7803 79.1599 24.6843Z" fill="#2563EB"/>
<path d="M75.3683 8.40774C76.4531 8.40774 77.3323 7.52842 77.3323 6.44374C77.3323 5.35906 76.4531 4.47974 75.3683 4.47974C74.2835 4.47974 73.4043 5.35906 73.4043 6.44374C73.4043 7.52842 74.2835 8.40774 75.3683 8.40774Z" fill="white"/>
<path d="M76.6242 14.2796C77.709 14.2796 78.5882 13.4002 78.5882 12.3156C78.5882 11.2309 77.709 10.3516 76.6242 10.3516C75.5394 10.3516 74.6602 11.2309 74.6602 12.3156C74.6602 13.4002 75.5394 14.2796 76.6242 14.2796Z" fill="white"/>
<path d="M77.8038 19.792C78.8886 19.792 79.7678 18.9127 79.7678 17.828C79.7678 16.7433 78.8886 15.864 77.8038 15.864C76.719 15.864 75.8398 16.7433 75.8398 17.828C75.8398 18.9127 76.719 19.792 77.8038 19.792Z" fill="white"/>
<g opacity="0.72">
<path opacity="0.72" d="M196.264 96.0918C204.508 96.0918 211.192 89.4082 211.192 81.1638C211.192 72.9194 204.508 66.2358 196.264 66.2358C188.02 66.2358 181.336 72.9194 181.336 81.1638C181.336 89.4082 188.02 96.0918 196.264 96.0918Z" fill="#2563EB"/>
<path opacity="0.72" d="M196.824 88.1361C197.327 88.2965 197.852 88.3789 198.38 88.3801C199.297 88.3921 200.187 88.0689 200.883 87.4717C201.579 86.8745 202.033 86.0441 202.16 85.1361C202.243 84.5433 202.186 83.9397 201.995 83.3725C201.804 82.8053 201.484 82.2905 201.06 81.8681C201.792 81.4617 202.371 80.8285 202.711 80.0641C203.052 79.2997 203.135 78.4457 202.947 77.6301C202.76 76.8145 202.313 76.0821 201.673 75.5429C201.033 75.0037 200.236 74.6869 199.4 74.6401C197.644 74.5401 195.764 75.3121 194.28 76.2081C193.508 76.6805 192.784 77.2285 192.12 77.8441C191.78 78.1561 189.812 79.8961 189.948 80.3321C190.828 83.2001 193.592 87.1321 196.824 88.1361Z" fill="white"/>
</g>
<path d="M203.196 142.092C202.262 143.448 201.136 144.661 199.852 145.692C197.475 147.57 194.651 148.799 191.656 149.259C188.662 149.719 185.599 149.394 182.768 148.316C180.564 147.44 178.452 145.972 176.172 145.116C174.571 144.459 172.818 144.265 171.112 144.556C170.566 144.726 169.987 144.764 169.424 144.668C167.944 144.236 169.064 142.524 168.94 141.564C168.703 140.045 167.919 138.665 166.736 137.684C163.684 135.072 161.629 131.486 160.918 127.534C160.208 123.58 160.885 119.503 162.836 115.992C164.787 112.481 167.892 109.753 171.624 108.269C175.356 106.784 179.487 106.636 183.316 107.848C187.1 109.048 190.336 111.484 193.576 113.776C196.432 115.796 199.372 117.776 201.764 120.304C207.4 126.308 207.684 135.564 203.196 142.092Z" fill="#2563EB"/>
<path d="M174.016 125.132C176.102 125.132 177.792 123.441 177.792 121.356C177.792 119.27 176.102 117.58 174.016 117.58C171.931 117.58 170.24 119.27 170.24 121.356C170.24 123.441 171.931 125.132 174.016 125.132Z" fill="white"/>
<path d="M183.461 131.764C185.546 131.764 187.237 130.074 187.237 127.988C187.237 125.903 185.546 124.212 183.461 124.212C181.375 124.212 179.685 125.903 179.685 127.988C179.685 130.074 181.375 131.764 183.461 131.764Z" fill="white"/>
<path d="M192.324 137.983C194.409 137.983 196.1 136.293 196.1 134.207C196.1 132.122 194.409 130.431 192.324 130.431C190.238 130.431 188.548 132.122 188.548 134.207C188.548 136.293 190.238 137.983 192.324 137.983Z" fill="white"/>
<g opacity="0.54">
<path opacity="0.54" d="M88.5282 30.0403C88.4782 30.6923 88.3778 31.3395 88.2282 31.9763L86.5562 39.2283C86.0442 41.4483 85.4682 43.7883 83.8802 45.4203C80.9202 48.4483 75.9642 47.7563 71.8322 46.8363L61.6882 44.5843C59.3602 44.0643 56.9922 43.5363 54.8882 42.3763C52.7842 41.2163 50.9922 39.3323 50.4882 36.9923C50.1322 35.2683 50.5162 33.4883 50.8882 31.7683L52.4682 24.8003C52.9762 22.5203 53.5522 20.1083 55.1962 18.4523C58.1282 15.4963 62.9842 16.1683 67.0522 17.0483L77.4242 19.3003C83.6882 20.6723 89.0282 23.5763 88.5282 30.0403Z" fill="#2563EB"/>
<path opacity="0.54" d="M74.5404 30.2355C74.9744 30.6399 75.294 31.1511 75.468 31.7183C75.6416 32.2855 75.6632 32.8883 75.5304 33.4663C75.3972 34.0443 75.1144 34.5771 74.7104 35.0111C74.3064 35.4451 73.7952 35.7655 73.2284 35.9395L70.1364 36.8875L67.0484 37.8315C66.48 38.0063 65.876 38.0279 65.2968 37.8943C64.7172 37.7607 64.1836 37.4767 63.7492 37.0711C63.3144 36.6655 62.9948 36.1523 62.822 35.5835C62.6488 35.0147 62.6292 34.4103 62.7644 33.8315L63.4884 30.6795L64.2124 27.5315C64.3464 26.9535 64.6296 26.4207 65.0344 25.9871C65.4388 25.5531 65.9504 25.2331 66.5176 25.0595C67.0852 24.8855 67.688 24.8639 68.2664 24.9967C68.8444 25.1295 69.3776 25.4119 69.8124 25.8155L72.1764 28.0195L74.5404 30.2355Z" fill="white"/>
</g>
<g opacity="0.54">
<path opacity="0.54" d="M202.52 43.9992C202.47 44.6512 202.37 45.2988 202.22 45.9352L200.548 53.1992C200.036 55.4192 199.46 57.7592 197.872 59.3872C194.912 62.4192 189.956 61.7232 185.824 60.8072L175.68 58.5512C173.352 58.0352 170.984 57.5032 168.88 56.3472C166.776 55.1912 164.984 53.2992 164.48 50.9632C164.124 49.2392 164.508 47.4592 164.88 45.7392L166.464 38.7992C166.968 36.5152 167.544 34.1072 169.188 32.4472C172.12 29.4952 176.976 30.1632 181.044 31.0472L191.4 33.2832C197.68 34.6392 203.02 37.5472 202.52 43.9992Z" fill="#2563EB"/>
<path opacity="0.54" d="M188.533 44.2029C188.966 44.6077 189.286 45.1193 189.46 45.6865C189.633 46.2537 189.655 46.8569 189.522 47.4349C189.389 48.0133 189.106 48.5461 188.703 48.9809C188.299 49.4153 187.787 49.7361 187.221 49.9109L184.129 50.8549L181.041 51.8029C180.472 51.9773 179.868 51.9989 179.289 51.8653C178.709 51.7321 178.176 51.4481 177.741 51.0425C177.307 50.6365 176.987 50.1237 176.814 49.5549C176.641 48.9861 176.621 48.3817 176.757 47.8029L177.481 44.6549L178.205 41.5069C178.339 40.9289 178.622 40.3961 179.027 39.9621C179.431 39.5281 179.943 39.2085 180.51 39.0345C181.077 38.8609 181.68 38.8389 182.259 38.9717C182.837 39.1045 183.37 39.3869 183.805 39.7909L186.169 41.9949L188.533 44.2029Z" fill="white"/>
</g>
<g opacity="0.54">
<path opacity="0.54" d="M154.652 141.312C154.627 141.615 154.579 141.916 154.508 142.212L153.732 145.6C153.492 146.632 153.224 147.72 152.484 148.48C151.108 149.892 148.8 149.568 146.884 149.14L142.16 148.092C141.063 147.901 139.999 147.555 139 147.064C138.501 146.814 138.062 146.461 137.711 146.029C137.359 145.596 137.103 145.094 136.96 144.556C136.851 143.741 136.915 142.912 137.148 142.124L137.868 138.884C138.104 137.824 138.372 136.7 139.14 135.928C140.504 134.552 142.764 134.864 144.656 135.276L149.488 136.324C152.396 136.948 154.884 138.3 154.652 141.312Z" fill="#2563EB"/>
<path opacity="0.54" d="M148.136 141.403C148.339 141.591 148.488 141.829 148.569 142.094C148.651 142.358 148.661 142.639 148.599 142.908C148.537 143.178 148.405 143.426 148.216 143.628C148.027 143.83 147.789 143.979 147.524 144.059L146.088 144.499L144.648 144.939C144.384 145.022 144.103 145.033 143.832 144.972C143.562 144.911 143.313 144.779 143.11 144.591C142.907 144.402 142.757 144.164 142.677 143.899C142.595 143.634 142.585 143.353 142.648 143.083L143 141.599L143.336 140.131C143.397 139.861 143.529 139.612 143.717 139.409C143.905 139.206 144.144 139.056 144.408 138.975C144.673 138.894 144.955 138.884 145.224 138.947C145.494 139.009 145.742 139.142 145.944 139.331L147.044 140.355L148.136 141.403Z" fill="white"/>
</g>
<g opacity="0.54">
<path opacity="0.54" d="M104.856 0.851976C105.184 1.02266 105.5 1.21649 105.8 1.43197L109.16 3.88797C110.192 4.63597 111.268 5.44797 111.756 6.62397C112.664 8.81197 111.216 11.208 109.836 13.128L106.448 17.848C105.723 18.9717 104.839 19.9848 103.824 20.856C102.768 21.656 101.4 22.192 100.092 21.924C99.1284 21.732 98.2964 21.124 97.4964 20.568L94.2564 18.244C93.1964 17.484 92.0844 16.644 91.5924 15.444C90.7164 13.284 92.1284 10.936 93.4764 9.04397L96.9124 4.20397C98.9724 1.28397 101.64 -0.824025 104.856 0.851976Z" fill="#2563EB"/>
<path opacity="0.54" d="M101.88 8.08851C102.182 7.95471 102.514 7.90239 102.842 7.93679C103.171 7.97119 103.484 8.09115 103.752 8.28463C104.019 8.47811 104.231 8.73839 104.367 9.03947C104.503 9.34055 104.557 9.67195 104.524 10.0005L104.332 11.8005L104.14 13.6005C104.105 13.9304 103.984 14.2451 103.788 14.5131C103.593 14.7811 103.33 14.9929 103.027 15.1271C102.723 15.2614 102.39 15.3134 102.06 15.2778C101.731 15.2422 101.416 15.1203 101.148 14.9245L99.6883 13.8605L98.2283 12.8005C97.9595 12.6054 97.7467 12.3429 97.6119 12.0394C97.4771 11.7358 97.4247 11.4021 97.4599 11.0718C97.4951 10.7415 97.6171 10.4264 97.8131 10.1582C98.0091 9.89007 98.2723 9.67839 98.5763 9.54451L100.228 8.81251L101.88 8.08851Z" fill="white"/>
</g>
<path d="M263.22 302.801C263.218 302.87 263.21 302.94 263.196 303.009C263.19 303.026 263.19 303.044 263.196 303.061C262.633 306.796 261.083 310.314 258.704 313.249C258.676 313.273 258.664 313.313 258.64 313.337C254.984 317.893 249.684 321.181 244.32 323.245C238.84 325.377 233.284 326.237 229.328 325.941H229.24C224.4 325.581 219.088 326.209 214.44 327.081C213.952 327.173 213.464 327.261 212.976 327.365C209.908 327.981 206.88 328.749 203.88 329.597L203.316 329.753L202.94 329.853C200.14 311.517 198.244 292.741 198.244 292.741L255.444 302.905C258.019 303.372 260.659 303.337 263.22 302.801Z" fill="#2563EB"/>
<path d="M145.753 215.64C142.745 218.624 138.717 219.2 134.761 220.08C125.773 222.08 118.237 219.808 117.841 209.476C117.585 202.828 118.289 196.176 122.313 190.656C127.133 184.044 134.537 179.64 141.913 176.424C141.913 176.424 145.297 193.736 160.713 194.488C176.129 195.24 172.377 215.564 154.313 212.176" stroke="#111827" stroke-width="1.788" stroke-miterlimit="10"/>
<path d="M157.34 220.833C157.74 220.833 158.108 220.833 158.48 220.805C158.57 220.799 158.661 220.799 158.752 220.805H158.788L159.496 220.741" stroke="#111827" stroke-width="1.788" stroke-miterlimit="10"/>
<path d="M174.421 178.548C171.893 175.544 168.873 172.991 165.489 171C165.112 170.752 164.722 170.525 164.321 170.32C163.921 170.092 163.521 169.872 163.121 169.668C162.277 169.232 161.401 168.82 160.505 168.468C155.215 166.253 149.535 165.121 143.801 165.136C112.953 165.136 121.525 191.828 121.525 191.828" stroke="#111827" stroke-width="1.788" stroke-miterlimit="10"/>
<path d="M179.541 243.776C178.477 238.104 179.809 229.276 181.285 222.216C182.609 215.928 184.057 211.053 184.057 211.053C186.241 198.22 186.149 191.34 185.137 187.8C183.401 181.548 178.809 185.6 178.809 185.6" stroke="#111827" stroke-width="1.788" stroke-miterlimit="10"/>
<path d="M185.136 187.801C183.4 181.549 178.808 185.601 178.808 185.601C178.014 183.793 177.034 182.073 175.884 180.469C175.42 179.823 174.932 179.194 174.42 178.581C175.792 174.937 179.452 172.765 183.22 172.473C193.112 171.713 202.864 178.261 205.844 187.673C208.536 196.181 206.948 205.405 206.6 214.133C206.46 217.917 205.92 223.733 208.808 226.797C208.96 226.953 209.104 227.093 209.268 227.233C211.668 229.301 215.492 229.417 220.024 229.109C221.344 229.017 222.732 228.905 224.168 228.773C228.568 228.373 233.368 228.029 238.004 228.813L238.464 228.889C238.324 236.449 237.86 244.033 237.476 251.593C237.272 255.273 237.076 258.957 236.976 262.641C230.148 260.357 221.376 257.109 214.608 254.813L211 253.569C199.436 249.629 190.172 246.521 179.356 244.033C175.184 243.069 170.784 242.209 165.92 241.413L160.748 240.505C160.401 240.444 160.087 240.263 159.861 239.992C159.636 239.722 159.513 239.381 159.516 239.029V220.729C162.97 220.435 166.309 219.347 169.272 217.548C172.235 215.749 174.742 213.289 176.596 210.361C181.6 202.313 182.076 194.077 179.34 186.849C179.242 186.56 179.129 186.277 179 186.001C178.97 185.917 178.935 185.836 178.896 185.757C178.896 185.733 178.872 185.693 178.86 185.665" stroke="#111827" stroke-width="1.788" stroke-miterlimit="10"/>
<path d="M51.624 253.568C53.224 241.168 53.96 228.556 55.512 216.084" stroke="#111827" stroke-width="1.788" stroke-miterlimit="10"/>
<path d="M55.7686 214.133C56.2046 210.757 56.7206 207.381 57.3686 204.045C57.3926 203.881 57.4206 203.725 57.4566 203.573C57.8166 201.597 58.2166 199.633 58.6566 197.669C59.9926 191.793 64.6566 187.493 67.9726 182.705L68.1766 182.193C75.3306 171.785 79.2914 159.515 79.5726 146.889C79.6526 142.321 79.4726 133.289 74.2366 131.425C71.2966 130.373 68.1766 132.429 66.5486 134.777C65.8798 135.746 65.3422 136.799 64.9486 137.909" stroke="#111827" stroke-width="1.788" stroke-miterlimit="10"/>
<path d="M103.316 359.999C90.544 323.735 96.6 284.119 96.6 284.119L77.764 284.711L28.076 286.287C25.1576 286.384 22.2528 285.852 19.5576 284.73C16.862 283.606 14.4392 281.918 12.4528 279.778C10.466 277.638 8.96203 275.097 8.04203 272.326C7.12203 269.555 6.80764 266.619 7.12004 263.715L21.88 209.831" stroke="#111827" stroke-width="1.788" stroke-miterlimit="10"/>
<path d="M22.5957 207.2L23.8917 202.48L25.3957 197.128" stroke="#111827" stroke-width="1.788" stroke-miterlimit="10"/>
<path d="M26.6757 192.52L27.5357 189.428C28.6749 185.323 28.3929 180.954 26.7357 177.028L25.0277 172.948C23.9117 169.548 23.5637 167.904 24.9637 164.58C25.6261 163.012 26.5561 161.571 27.7117 160.32C31.0837 156.6 35.8317 154.752 40.7237 154.12C45.6157 153.488 51.0157 153.98 54.9517 157.152C57.6237 159.304 60.1517 164.428 58.4037 167.776C57.1357 170.212 54.4517 170.92 52.1677 170.048C51.3685 169.749 50.6485 169.27 50.0637 168.648C47.3677 165.824 41.6637 165.208 39.6637 167.956" stroke="#111827" stroke-width="1.788" stroke-miterlimit="10"/>
<path d="M236.864 267.133C236.864 266.129 236.9 265.133 236.94 264.117V264.037C236.94 263.577 236.964 263.101 236.992 262.641" stroke="#111827" stroke-width="1.788" stroke-miterlimit="10"/>
<path d="M231.732 171.052C227.048 173.556 221.296 179.852 231 194.652C234.2 199.528 237.58 204.8 238.056 210.82C238.5 216.835 238.641 222.87 238.48 228.9" stroke="#111827" stroke-width="1.788" stroke-miterlimit="10"/>
<path d="M186.304 290.641L197.44 292.617L198.24 292.757L203.348 293.669L255.432 302.921C258.01 303.39 260.655 303.354 263.22 302.817C267.674 301.879 271.687 299.481 274.623 296.002C277.558 292.524 279.248 288.165 279.424 283.617L271.728 220.613L270.024 207.165C269.483 202.935 270.391 198.648 272.6 195.001L274.884 191.201C274.884 191.201 278.86 185.401 271.904 184.977C268.156 184.757 264.256 185.777 260.868 187.313C258.932 188.173 256.212 189.713 255.12 191.829C254.676 192.63 254.526 193.561 254.696 194.461C255.496 198.593 260.696 200.337 264.128 198.593" stroke="#111827" stroke-width="1.788" stroke-miterlimit="10"/>
<path d="M274.2 185.276C274.2 185.276 278.132 182.936 275.472 177.18C274.528 175.132 271.668 173.712 265.512 174.104C249.112 175.148 242.688 192.012 255.14 191.828" stroke="#111827" stroke-width="1.788" stroke-miterlimit="10"/>
<path d="M270.464 174.076C274.104 169.06 267.664 164.26 262.972 164.424C258.548 164.58 254.072 166.216 250.196 168.264C244.804 171.112 237.844 176.628 239.836 183.608C240.424 185.664 245.076 188.204 248.116 186.736" stroke="#111827" stroke-width="1.788" stroke-miterlimit="10"/>
<path d="M239.492 181.127C239.492 181.127 239.492 181.127 239.492 181.151C236.952 186.003 224.928 181.151 231.716 171.051C233.301 168.817 235.203 166.824 237.36 165.135C254.288 151.303 258.072 165.367 258.048 164.531" stroke="#111827" stroke-width="1.788" stroke-miterlimit="10"/>
<path d="M246.86 186.848C246.86 186.848 253.052 191.248 251.152 198.58" stroke="#111827" stroke-width="1.788" stroke-miterlimit="10"/>
<path d="M28.8606 151.652C28.4606 150.076 28.5126 148.088 29.4486 145.544C30.7966 141.888 34.7246 139.488 38.5486 137.908C39.9446 137.332 41.3486 136.856 42.5486 136.484C46.7206 135.204 51.3006 134.524 55.7486 134.972C57.2478 135.118 58.7298 135.402 60.1766 135.82C61.8454 136.302 63.4422 137.004 64.9246 137.908C68.5806 140.156 71.0566 143.568 72.5446 148.048C73.8406 151.912 74.3406 156.504 71.1326 158.916" stroke="#111827" stroke-width="1.788" stroke-miterlimit="10"/>
<path d="M71.4239 210.332L70.2439 216.044C70.2047 216.237 70.1274 216.419 70.0163 216.58C69.9051 216.742 69.7626 216.879 69.5975 216.985C69.4319 217.09 69.2471 217.161 69.0539 217.193C68.8603 217.225 68.6623 217.218 68.4719 217.172C63.9319 216.096 59.9519 215.096 55.7679 214.132C53.6919 213.644 51.5479 213.184 49.2759 212.708C40.3959 210.872 31.5279 208.8 22.5999 207.2C18.8679 206.532 15.1319 205.952 11.3719 205.516C9.26786 205.272 7.13586 205.172 5.01986 205.016C4.55746 205.006 4.10906 204.854 3.73586 204.58C1.73586 203.116 3.73586 198.356 4.17186 196.38C4.17186 196.356 4.17186 196.328 4.17186 196.304C4.47986 194.788 13.1919 195.224 25.3719 197.124C29.6199 197.792 34.2879 198.624 39.1799 199.628C46.0559 201.04 52.2559 202.564 57.3239 204.028C58.1959 204.284 59.0319 204.528 59.8279 204.772C59.8279 204.772 59.8279 204.772 59.8519 204.772C60.8639 205.092 61.8159 205.4 62.7119 205.708C68.3719 207.64 71.6319 209.32 71.4239 210.332Z" fill="#2563EB"/>
<path d="M71.4239 210.332L70.2438 216.044C70.2046 216.237 70.1274 216.419 70.0162 216.58C69.905 216.742 69.7627 216.879 69.5975 216.985C69.4319 217.09 69.2471 217.161 69.0539 217.193C68.8603 217.225 68.6623 217.218 68.4719 217.172C63.9319 216.096 59.9519 215.096 55.7679 214.132C53.6919 213.644 51.5479 213.184 49.2759 212.708C40.3959 210.872 31.5279 208.8 22.5999 207.2C18.8679 206.532 15.1319 205.952 11.3719 205.516C9.26786 205.272 7.13586 205.172 5.01986 205.016C4.55746 205.006 4.10906 204.854 3.73586 204.58C1.73586 203.116 3.73586 198.356 4.17186 196.38C4.17186 196.356 4.17186 196.328 4.17186 196.304C4.47986 194.788 13.1919 195.224 25.3719 197.124C29.6199 197.792 34.2879 198.624 39.1799 199.628C46.0559 201.04 52.2559 202.564 57.3239 204.028C58.1959 204.284 59.0319 204.528 59.8279 204.772C59.8279 204.772 59.8279 204.772 59.8519 204.772C60.8639 205.092 61.8159 205.4 62.7119 205.708C68.3719 207.64 71.6319 209.32 71.4239 210.332Z" stroke="#111827" stroke-width="1.788" stroke-miterlimit="10"/>
<path d="M58.9679 164.7L60.1039 166.976C61.5319 168.54 63.5079 169.528 66.2159 168.848C71.5279 167.528 72.0519 163.124 71.1279 158.916C70.9691 158.152 70.7635 157.398 70.5119 156.66C69.2679 152.948 67.3439 149.96 64.6479 147.78C62.7323 146.229 60.5187 145.088 58.1439 144.428C56.2091 143.869 54.2127 143.551 52.1999 143.48C48.2451 143.344 44.2963 143.885 40.5239 145.08C36.7519 146.236 31.5919 148.224 28.8479 151.636C28.2331 152.386 27.7467 153.232 27.4079 154.14C26.5639 156.436 26.4199 158.296 26.7159 159.8L26.9999 161.2" stroke="#111827" stroke-width="1.788" stroke-miterlimit="10"/>
<path d="M60.4399 135.909L61.7599 130.441L63.3279 124.001C63.5491 123.072 63.5771 122.108 63.4095 121.168C63.2419 120.228 62.8823 119.333 62.3535 118.538C61.8247 117.744 61.1379 117.066 60.3359 116.548C59.5339 116.03 58.6339 115.684 57.6919 115.529C57.3231 115.468 56.9499 115.438 56.5759 115.441C54.9931 115.437 53.4567 115.976 52.2235 116.968C50.9907 117.961 50.1351 119.346 49.7999 120.893C49.3999 122.757 48.8999 125.025 48.3479 127.581C47.8239 130.005 47.2439 132.661 46.6279 135.461" stroke="#111827" stroke-width="1.788" stroke-miterlimit="10"/>
<path d="M44.7725 144.055V144.043" stroke="#111827" stroke-width="1.192" stroke-miterlimit="10"/>
<path d="M39.6762 167.952C39.2762 169.916 39.0482 171.152 39.0602 171.364C39.0602 171.364 39.0602 171.364 39.0602 171.392C37.3282 183.032 32.2322 189.256 26.6882 192.5C23.2974 194.429 19.5102 195.558 15.6162 195.8" stroke="#111827" stroke-width="1.788" stroke-miterlimit="10"/>
<path d="M52.1997 170.043C52.1997 170.043 42.9117 194.799 57.4357 203.575C58.2037 204.037 59.0061 204.438 59.8357 204.775C60.8297 205.188 61.8557 205.519 62.9037 205.763" stroke="#111827" stroke-width="1.788" stroke-miterlimit="10"/>
<path d="M69.4765 217.056C69.4765 217.056 69.5405 218.2 55.5125 216.084C50.7125 215.364 44.2605 214.26 35.5845 212.592C30.1445 211.552 25.6245 210.628 21.8805 209.832C2.2085 205.624 3.73251 204.584 3.73251 204.584" stroke="#111827" stroke-width="1.788" stroke-miterlimit="10"/>
<path d="M109 77.9C106.008 93.76 96.1519 110.456 84.1999 121.172C79.3119 125.572 73.6279 128.64 67.4919 129.848C65.6091 130.231 63.6931 130.428 61.7719 130.436L63.3279 124C63.7099 122.415 63.5235 120.746 62.8015 119.284C62.0791 117.822 60.8671 116.66 59.3759 116C58.8371 115.769 58.2735 115.601 57.6959 115.5C57.3259 115.439 56.9511 115.409 56.5759 115.412C54.9899 115.41 53.4511 115.952 52.2171 116.949C50.9835 117.946 50.1303 119.337 49.7999 120.888C49.5559 122.056 49.2599 123.38 48.9399 124.828C33.7399 114.78 27.1479 93.288 27.8799 75.836C28.1119 70.036 28.4319 62.4 30.9719 56.496C31.8291 54.392 33.1087 52.486 34.7319 50.896C41.9319 44.12 51.7879 41.028 61.9519 40.564C69.7531 40.932 77.4307 42.6564 84.6399 45.66C98.0799 51.336 112.104 61.4 109 77.9Z" fill="#2563EB"/>
<path d="M109 77.9C106.008 93.76 96.1519 110.456 84.1999 121.172C79.3119 125.572 73.6279 128.64 67.4919 129.848L68.9119 124C69.1331 123.072 69.1611 122.107 68.9935 121.167C68.8255 120.228 68.4663 119.332 67.9375 118.538C67.4087 117.743 66.7219 117.065 65.9199 116.548C65.1179 116.03 64.2179 115.683 63.2759 115.528C62.9071 115.467 62.5339 115.438 62.1599 115.44C61.1955 115.436 60.2411 115.636 59.3599 116.028C58.8211 115.797 58.2575 115.629 57.6799 115.528C57.3099 115.467 56.9351 115.437 56.5599 115.44C54.9803 115.44 53.4483 115.98 52.2187 116.971C50.9887 117.962 50.1351 119.344 49.7999 120.888C49.5559 122.056 49.2599 123.38 48.9399 124.828C33.7399 114.78 27.1479 93.288 27.8799 75.836C28.1119 70.036 28.4319 62.4 30.9719 56.496C31.8291 54.392 33.1087 52.486 34.7319 50.896C41.9319 44.12 51.7879 41.028 61.9519 40.564C69.7531 40.932 77.4307 42.6564 84.6399 45.66C98.0799 51.336 112.104 61.4 109 77.9Z" fill="#2563EB"/>
<path d="M109 77.9041C106.012 93.7641 96.1564 110.46 84.2004 121.176C77.8004 126.912 70.0764 130.4 61.7604 130.44L63.3284 124C63.5496 123.072 63.5776 122.107 63.41 121.167C63.242 120.228 62.8828 119.333 62.354 118.538C61.8252 117.743 61.1384 117.065 60.3364 116.548C59.5344 116.03 58.6344 115.683 57.6924 115.528C57.3236 115.467 56.9504 115.438 56.5764 115.44C54.9936 115.436 53.4572 115.976 52.224 116.968C50.9908 117.96 50.1356 119.345 49.8004 120.892C49.4004 122.756 48.9004 125.024 48.3484 127.58C29.5884 119.264 21.4884 95.1001 22.3004 75.8401C22.5284 70.0401 22.8484 62.4041 25.3924 56.5001C26.248 54.3953 27.528 52.4889 29.1524 50.9001C43.3164 37.5801 67.6884 38.5001 84.6404 45.6641C98.0764 51.3401 112.104 61.4001 109 77.9041Z" stroke="#111827" stroke-width="1.788" stroke-miterlimit="10"/>
<path d="M108.92 78.4763C112.156 82.3483 115.192 88.8363 112.52 98.4763C112.109 99.9975 111.521 101.465 110.768 102.848C106.52 110.448 98.32 111.78 92.792 111.7" stroke="#111827" stroke-width="1.788" stroke-miterlimit="10"/>
<path d="M106.456 86.5845C109.256 89.9365 111.844 95.2445 110.764 102.856C110.593 104.078 110.34 105.288 110.008 106.476C106.008 120.844 91.3242 120.136 86.2842 119.436" stroke="#111827" stroke-width="1.788" stroke-miterlimit="10"/>
<path d="M28.0362 106.399C24.9082 107.043 7.20824 103.411 6.99224 88.6552C6.92864 86.6552 7.30585 84.6656 8.09625 82.8272C10.8682 76.5792 18.1802 74.6032 22.3922 73.9592" stroke="#111827" stroke-width="1.788" stroke-miterlimit="10"/>
<path d="M24.8519 99.0034C21.6519 99.1994 4.64793 93.1314 6.49193 78.4874C6.71193 76.5038 7.36313 74.5926 8.39993 72.8874C11.9999 67.0834 19.5359 66.1514 23.7919 66.0874" stroke="#111827" stroke-width="1.788" stroke-miterlimit="10"/>
<path d="M96.6006 284.124C96.6006 284.124 96.9646 281.344 98.9646 275.064" stroke="#111827" stroke-width="1.788" stroke-miterlimit="10"/>
<path d="M162.384 240.771V240.799C162.24 250.363 155.584 252.531 150.116 253.571C136.64 256.147 127.284 246.319 127.696 237.759" stroke="#111827" stroke-width="1.788" stroke-miterlimit="10"/>
<path d="M130.252 188.148C130.252 188.148 130.652 192.548 126.824 198.224C125.8 199.752 129.344 200.38 130.188 200.664" stroke="#111827" stroke-width="1.788" stroke-miterlimit="10"/>
<path d="M145.686 197.671C147.959 193.733 147.207 189.044 144.006 187.196C140.805 185.348 136.368 187.041 134.095 190.979C131.822 194.916 132.573 199.606 135.774 201.454C138.975 203.302 143.412 201.608 145.686 197.671Z" stroke="#111827" stroke-width="1.788" stroke-miterlimit="10"/>
<path d="M129.806 192.577C132.079 188.622 131.316 183.917 128.1 182.069C124.885 180.221 120.435 181.93 118.162 185.885C115.889 189.84 116.653 194.545 119.868 196.393C123.084 198.241 127.533 196.532 129.806 192.577Z" stroke="#111827" stroke-width="1.79416" stroke-miterlimit="10"/>
<path d="M124.269 184.176C124.937 184.17 125.594 184.343 126.173 184.676C126.711 185.007 127.167 185.455 127.507 185.987C127.847 186.519 128.063 187.122 128.137 187.748C128.354 189.313 128.028 190.904 127.213 192.256C126.013 194.316 124.013 195.644 122.033 195.644C121.365 195.652 120.707 195.481 120.129 195.148C119.591 194.818 119.135 194.369 118.795 193.837C118.455 193.305 118.239 192.704 118.165 192.076C117.947 190.511 118.273 188.918 119.089 187.564C120.289 185.508 122.289 184.176 124.269 184.176ZM124.269 182.976C121.957 182.976 119.505 184.448 118.057 186.976C116.057 190.44 116.717 194.576 119.533 196.176C120.293 196.614 121.155 196.842 122.033 196.836C124.345 196.836 126.797 195.36 128.249 192.836C130.249 189.376 129.585 185.236 126.769 183.636C126.008 183.201 125.145 182.975 124.269 182.98V182.976Z" fill="white"/>
<path d="M128.246 192.842C130.246 189.379 129.585 185.255 126.77 183.63C123.956 182.005 120.054 183.495 118.055 186.958C116.056 190.421 116.716 194.545 119.53 196.17C122.345 197.795 126.247 196.305 128.246 192.842Z" fill="#2563EB"/>
<path d="M145.861 196.532C147.86 193.053 147.189 188.916 144.362 187.291C141.535 185.666 137.622 187.169 135.623 190.648C133.624 194.127 134.295 198.264 137.122 199.889C139.949 201.513 143.862 200.011 145.861 196.532Z" fill="#2563EB"/>
<path d="M130.2 189.6C130.2 189.6 131.4 187.812 134.108 190.976" stroke="#111827" stroke-width="1.788" stroke-miterlimit="10"/>
<path d="M141.975 193.97C142.626 193.117 142.568 191.978 141.845 191.425C141.121 190.873 140.007 191.117 139.355 191.97C138.704 192.824 138.762 193.963 139.486 194.516C140.209 195.068 141.324 194.824 141.975 193.97Z" fill="#111827"/>
<path d="M128.48 190.086C129.131 189.233 129.073 188.093 128.35 187.541C127.626 186.989 126.512 187.233 125.86 188.086C125.209 188.94 125.267 190.079 125.991 190.631C126.714 191.184 127.829 190.94 128.48 190.086Z" fill="#111827"/>
<path d="M138.412 207.795C130.22 214.755 125.92 208.555 125.92 208.555" stroke="#111827" stroke-width="1.788" stroke-miterlimit="10"/>
<path d="M51.624 247.804C58.708 246.536 65.856 245.544 72.876 244.248C76.3 243.619 79.7212 243.008 83.14 242.416C98.372 239.824 113.58 237.808 128.98 237.744C129.724 237.744 130.442 237.476 131.003 236.988C131.564 236.499 131.93 235.825 132.032 235.088L132.316 232.956L134.112 219.664" stroke="#111827" stroke-width="1.788" stroke-miterlimit="10"/>
<path d="M159.496 220.727V220.664V220.344" stroke="#111827" stroke-width="1.788" stroke-miterlimit="10"/>
<path d="M3.7041 360H91.4441H101.368H186.38H202.308H308.484" stroke="#111827" stroke-width="1.788" stroke-miterlimit="10"/>
<path d="M198.236 292.756C198.236 292.756 200.124 311.532 202.932 329.868C204.78 341.932 207.04 353.8 209.4 360" stroke="#111827" stroke-width="1.788" stroke-miterlimit="10"/>
<path d="M202.932 329.867L203.304 329.767L203.872 329.611C206.872 328.763 209.9 328.011 212.968 327.379C213.456 327.275 213.944 327.187 214.432 327.095C217.853 326.464 221.321 326.126 224.8 326.083C226.34 326.083 227.816 326.031 229.228 325.955H229.316C235.232 325.619 240.176 324.671 244.308 323.259C251.056 320.963 255.612 317.435 258.628 313.351C258.652 313.327 258.664 313.287 258.692 313.263C260.886 310.219 262.416 306.748 263.184 303.075C263.178 303.058 263.178 303.04 263.184 303.023L263.224 302.831" stroke="#111827" stroke-width="1.788" stroke-miterlimit="10"/>
</svg>
