<svg width="400" height="400" viewBox="0 0 400 400" fill="none" xmlns="http://www.w3.org/2000/svg">
<path d="M70.8838 182.98C84.0478 164.58 103.776 156.24 103.776 156.24C104.42 155.972 101.676 130.764 101.62 128.976C100.788 99.5279 105.672 68.8879 127.808 47.6239C155.48 21.0598 205.688 15.5558 237.432 37.9358C237.032 37.6398 247.876 29.0918 248.792 28.5438C254.717 24.9682 261.402 22.8425 268.304 22.3398C296.08 20.3398 321.552 42.1639 331.972 68.5639C342.392 94.9639 340 155.116 320.884 172.464" stroke="#D8EDFF" stroke-width="2.02" stroke-miterlimit="10"/>
<path d="M59.0161 214.9C59.7005 207.653 61.5637 200.566 64.5321 193.92C64.8149 193.288 65.1109 192.669 65.4201 192.064" stroke="#D8EDFF" stroke-width="2.02" stroke-miterlimit="10"/>
<path d="M93.3439 291.475C90.1439 288.567 87.1799 285.607 84.4639 282.631" stroke="#D8EDFF" stroke-width="2.02" stroke-miterlimit="10"/>
<path d="M360 204.992C360.024 206.992 360 209.032 359.904 211.076C359.336 223.72 356.628 236.788 349.86 247.436C348.628 249.401 347.254 251.272 345.748 253.036C331.348 251.136 329.2 236.448 312.548 228.144C292.6 218.172 259.936 221.744 259.936 221.744L276.028 206.9C275.168 162.196 242.348 164.94 242.348 164.94L240.68 169.024C241.947 165.325 243.228 161.876 244.524 158.676L244.596 158.508C259.796 120.756 275.544 116.076 287.796 110.624C290.723 109.929 293.72 109.572 296.728 109.56C328.052 109.392 346.436 141.292 354.476 166.972C356.476 173.372 359.552 187.06 359.964 202.452C359.972 203.276 360 204.136 360 204.992Z" fill="#111827"/>
<path d="M377.6 372.544C375.168 375.892 371.156 377.716 367.02 377.716H319.5C317.674 377.742 315.862 377.386 314.182 376.67C312.502 375.954 310.99 374.895 309.744 373.56C309.575 373.389 309.417 373.208 309.272 373.016C307.783 371.172 306.851 368.94 306.588 366.584C306.348 364.42 307.956 362.496 310.132 362.584C310.956 362.616 311.742 362.946 312.342 363.512C312.942 364.078 313.316 364.843 313.396 365.664C313.396 365.836 313.432 366.004 313.456 366.172C313.632 367.148 314.061 368.062 314.7 368.82C315.265 369.488 315.975 370.019 316.775 370.373C317.575 370.727 318.445 370.895 319.32 370.864H367.224C368.082 370.879 368.932 370.708 369.717 370.362C370.502 370.017 371.203 369.506 371.772 368.864C372.413 368.122 372.851 367.226 373.042 366.264C373.232 365.302 373.17 364.307 372.86 363.376L351.464 299.756C351.289 299.268 351.082 298.792 350.844 298.332C349.588 295.679 347.597 293.442 345.108 291.886C342.619 290.331 339.735 289.522 336.8 289.556C327.792 289.664 316.356 289.688 315.28 289.688C291.308 289.6 280.4 289.6 274.4 289.76C274.812 288.286 275.556 286.926 276.576 285.784C276.576 285.784 276.6 285.76 276.6 285.748C278.063 284.189 280.066 283.246 282.2 283.112C291.088 282.384 299.888 281.056 308.436 278.736C323.52 274.648 337.908 267.636 347.904 256.36C352.77 250.902 356.448 244.492 358.704 237.536C360.455 232.014 361.559 226.306 361.992 220.528C362.147 218.704 362.243 216.867 362.28 215.016V214.932C362.28 214.508 362.304 214.072 362.304 213.648C362.358 211.012 362.238 208.376 361.944 205.756C364.556 205.777 367.057 206.812 368.92 208.644C369.083 209.075 369.204 209.522 369.28 209.976C369.352 210.407 369.388 210.843 369.388 211.28V263.02C369.392 266.554 368.695 270.054 367.336 273.316C365.977 276.578 363.984 279.538 361.472 282.024C357.312 286.144 356.128 292.396 358.1 297.896L379.364 361.168C380.006 363.066 380.181 365.092 379.874 367.072C379.567 369.052 378.787 370.93 377.6 372.544Z" fill="#2563EB"/>
<path d="M84.4678 370.947V225.895H93.3438V371.007L84.4678 370.947Z" fill="#111827"/>
<path d="M259.94 221.724C266.296 221.048 273.648 220.248 280.708 220.408" stroke="#111827" stroke-width="2.02" stroke-miterlimit="10"/>
<path d="M225.316 228.131C214.06 230.971 203.108 235.071 193.764 241.887C178.084 253.311 170.916 274.623 177.324 293.087C177.324 293.111 202.524 365.803 202.524 365.803H195.892C194.463 365.803 193.048 366.085 191.728 366.635C190.409 367.184 189.211 367.989 188.204 369.003C186.232 370.963 185.26 374.231 185.26 377.231H244.952L222.268 303.031C221.703 301.203 221.575 299.266 221.897 297.379C222.219 295.491 222.98 293.706 224.119 292.168C225.259 290.629 226.745 289.381 228.457 288.523C230.168 287.666 232.058 287.223 233.972 287.231C246.896 287.595 258.9 288.091 271.972 287.523" stroke="#111827" stroke-width="2.02" stroke-miterlimit="10"/>
<path d="M360.092 211.68V211.6C359.512 196 358.728 180.608 354.46 166.96C346.42 141.28 328.036 109.38 296.712 109.548C293.704 109.559 290.707 109.916 287.78 110.612C267.132 115.52 252.792 136.676 244.58 158.496L244.508 158.664C243.724 160.757 242.999 162.845 242.332 164.928C241.88 166.329 241.322 167.694 240.664 169.012C238.148 174.081 234.161 178.273 229.224 181.038C224.286 183.804 218.629 185.014 212.992 184.512C175.072 181.064 125.096 179.096 109.356 205.74" stroke="#111827" stroke-width="2.02" stroke-miterlimit="10"/>
<path d="M298.04 182.664C292.52 189.328 286.708 195.764 280.7 201.988C268.4 214.74 257.788 228.284 238.7 229.188C223.472 229.92 208.976 224.076 194.576 220.024C179.172 215.692 171.376 212.228 157.02 207.852C152.886 206.597 148.597 205.924 144.276 205.852L129.824 205.964" stroke="#111827" stroke-width="2.02" stroke-miterlimit="10"/>
<path d="M241.672 366.74C243.048 366.123 244.54 365.807 246.048 365.812H252.696C252.696 365.812 238.8 338.8 227.688 320.82" stroke="#111827" stroke-width="2.02" stroke-miterlimit="10"/>
<path d="M250.8 287.584L297.28 377.716H244.704H235.168" stroke="#111827" stroke-width="2.02" stroke-miterlimit="10"/>
<path d="M377.6 372.544C375.168 375.892 371.156 377.716 367.02 377.716H319.5C315.56 377.716 311.716 376.084 309.26 373.004C307.771 371.16 306.84 368.928 306.576 366.572C306.336 364.408 307.944 362.484 310.12 362.572C310.944 362.604 311.73 362.934 312.33 363.5C312.93 364.066 313.304 364.831 313.384 365.652C313.481 366.814 313.937 367.917 314.688 368.808C315.262 369.466 315.973 369.99 316.771 370.343C317.569 370.696 318.435 370.87 319.308 370.852H367.224C368.082 370.867 368.932 370.696 369.717 370.35C370.502 370.005 371.203 369.494 371.772 368.852C372.413 368.11 372.851 367.214 373.042 366.252C373.232 365.29 373.17 364.295 372.86 363.364L351.464 299.756C350.38 296.744 348.387 294.144 345.759 292.317C343.132 290.489 340 289.524 336.8 289.556C327.792 289.664 316.356 289.688 315.28 289.688C288.588 289.604 278.08 289.604 272.512 289.808C272.425 289.808 272.34 289.79 272.26 289.756C272.18 289.723 272.107 289.674 272.046 289.612C271.986 289.55 271.937 289.478 271.905 289.397C271.872 289.317 271.855 289.231 271.856 289.144C271.848 286.675 272.754 284.29 274.4 282.448C274.406 282.444 274.412 282.438 274.416 282.431C274.42 282.424 274.423 282.416 274.424 282.408C275.889 280.852 277.891 279.912 280.024 279.776C288.912 279.048 297.712 277.72 306.26 275.4C321.344 271.312 335.732 264.3 345.728 253.024C350.594 247.566 354.272 241.156 356.528 234.2C358.274 228.68 359.374 222.975 359.804 217.2C359.961 215.371 360.057 213.534 360.092 211.688V211.6C360.092 211.18 360.116 210.744 360.116 210.32C360.17 207.684 360.05 205.048 359.756 202.428C364.108 202.404 368.496 205.568 369.256 209.984C369.328 210.415 369.364 210.851 369.364 211.288V263.02C369.368 266.554 368.671 270.054 367.312 273.316C365.953 276.578 363.96 279.538 361.448 282.024C357.288 286.144 356.104 292.396 358.076 297.896L379.34 361.168C379.986 363.065 380.165 365.089 379.862 367.069C379.559 369.05 378.783 370.928 377.6 372.544Z" stroke="#111827" stroke-width="2.02" stroke-miterlimit="10"/>
<path d="M149.296 214.905H25.492C22.4588 214.905 20 217.364 20 220.397V220.401C20 223.434 22.4588 225.893 25.492 225.893H149.296C152.329 225.893 154.788 223.434 154.788 220.401V220.397C154.788 217.364 152.329 214.905 149.296 214.905Z" stroke="#111827" stroke-width="2.02" stroke-miterlimit="10"/>
<path d="M114.236 371.636H64.1761C62.4773 371.636 61.1001 373.013 61.1001 374.712C61.1001 376.411 62.4773 377.788 64.1761 377.788H114.236C115.935 377.788 117.312 376.411 117.312 374.712C117.312 373.013 115.935 371.636 114.236 371.636Z" stroke="#111827" stroke-width="2.02" stroke-miterlimit="10"/>
<path d="M77.5439 209.973V210.525C77.6239 214.321 81.1959 214.901 84.2759 214.925L143.82 214.885C146.428 214.885 148.58 212.885 148.584 210.429V210.325C148.536 207.925 146.44 205.969 143.864 205.965C143.864 205.965 110.552 205.845 84.7519 205.769C84.2879 207.121 83.1119 208.169 81.6439 209.025C80.3811 209.687 78.9691 210.013 77.5439 209.973Z" stroke="#111827" stroke-width="2.02" stroke-miterlimit="10"/>
<path d="M44.7998 156.492C44.8122 157.124 44.993 157.741 45.3238 158.28L72.9238 204.636C73.281 205.193 73.7498 205.671 74.3002 206.038C74.851 206.406 75.4718 206.656 76.1238 206.772C77.2266 206.989 78.3694 206.865 79.3998 206.416C81.0918 205.664 82.0678 204.148 82.0358 202.612C82.0298 202.419 82.0098 202.226 81.9758 202.036C81.891 201.612 81.7338 201.206 81.5118 200.836L53.9118 154.48C52.7118 152.452 49.7758 151.656 47.4158 152.7C45.7318 153.436 44.7558 154.952 44.7998 156.492Z" stroke="#111827" stroke-width="2.02" stroke-miterlimit="10"/>
<path d="M119.432 205.964C119.432 205.964 122.756 202.8 130.4 197.776" stroke="#111827" stroke-width="2.02" stroke-miterlimit="10"/>
<path d="M146.536 153.964L134.42 167.4C133.577 168.336 132.405 168.912 131.149 169.01C129.892 169.108 128.646 168.719 127.668 167.924C127.128 167.485 126.687 166.937 126.374 166.316C126.061 165.694 125.884 165.013 125.854 164.318C125.823 163.623 125.941 162.929 126.199 162.282C126.456 161.636 126.848 161.052 127.348 160.568L129.564 158.424C129.648 158.304 129.744 158.196 129.84 158.084L131.44 156.32L145.2 141.368C146.87 139.532 148.973 138.145 151.317 137.332C153.662 136.518 156.173 136.305 158.62 136.712L158.824 136.748" stroke="#111827" stroke-width="2.02" stroke-miterlimit="10"/>
<path d="M163.6 157.6H151.48C150.101 157.6 148.778 157.052 147.803 156.077C146.828 155.102 146.28 153.779 146.28 152.4C146.28 151.021 146.828 149.698 147.803 148.723C148.778 147.748 150.101 147.2 151.48 147.2H168.68" stroke="#111827" stroke-width="2.02" stroke-miterlimit="10"/>
<path d="M154.308 157.6C154.14 159.724 153.328 161.296 152.132 162.4C149.052 165.2 143.404 164.892 139.476 162.968" stroke="#111827" stroke-width="2.02" stroke-miterlimit="10"/>
<path d="M131.46 156.312C127.976 152.116 128.692 146.412 131.4 142C142.58 123.744 163.892 134.988 177.904 142.856C186.245 147.562 194.218 152.892 201.756 158.8C208.428 164 214.604 170.224 222.62 173.352C227.42 175.228 233.088 175.676 237.864 173.512" stroke="#111827" stroke-width="2.02" stroke-miterlimit="10"/>
<path d="M152.132 162.369C160.587 168.609 168.659 175.351 176.308 182.557" stroke="#111827" stroke-width="2.02" stroke-miterlimit="10"/>
<path d="M255.004 64.2311C257.028 66.0791 260.136 66.1791 262.708 65.9311C265.996 65.6311 269.252 64.8351 272.472 64.1631L274.428 64.0631H274.456C274.831 64.0671 275.202 64.1443 275.547 64.2915C275.892 64.4383 276.205 64.6519 276.467 64.9195C276.73 65.1875 276.937 65.5043 277.077 65.8523C277.218 66.2003 277.288 66.5723 277.284 66.9471C277.329 71.1687 276.908 75.3823 276.028 79.5111L279.776 81.5391C280.26 80.1871 279.716 78.2391 280.864 78.0911C281.6 76.7191 282.696 75.8271 284.416 76.8471C287.784 78.8471 289.112 84.7231 285.868 87.4151L287.948 91.3031C288.673 92.6663 289.849 93.7351 291.274 94.3275C292.7 94.9199 294.287 94.9991 295.764 94.5511L293.64 89.8551C298.624 90.7391 302.112 84.5191 300.592 80.7231C299.556 78.1151 299.608 76.0871 300.992 73.5511C301.084 73.3791 300.144 73.1511 300.224 72.9751C300.272 71.1151 299.756 69.1231 298.86 68.1751C297.284 66.4791 294.112 66.1751 294.76 63.5991C295.048 62.4783 295.154 61.3183 295.076 60.1631C294.907 58.6531 294.416 57.1967 293.637 55.8923C292.858 54.5875 291.809 53.4647 290.56 52.5991C287.936 50.8751 285 52.4391 282.196 52.3951C278.792 52.3591 276.352 49.4711 272.784 49.4271C271.008 49.3991 269.584 50.0911 268.064 50.9511C266.792 51.6831 265.54 52.4471 264.324 53.2751C263.108 54.1031 262.028 54.8191 260.576 54.8231C258.684 54.8471 256.856 53.6471 254.952 54.2071C253.989 54.4663 253.143 55.0447 252.552 55.8471C251.948 58.7991 253.04 62.4511 255.004 64.2311Z" fill="#2563EB"/>
<path d="M279.792 81.1003C280.036 80.0583 280.396 79.0467 280.864 78.0843C281.6 76.7123 282.7 75.8203 284.416 76.8403C287.784 78.8403 289.112 84.7163 285.868 87.4083L287.948 91.2963C288.673 92.6591 289.849 93.7283 291.274 94.3207C292.7 94.9131 294.287 94.9919 295.764 94.5443" stroke="#111827" stroke-width="2.02" stroke-linecap="round" stroke-linejoin="round"/>
<path d="M293.64 89.8484L295.756 94.5524C296.288 95.6764 297.812 99.1324 299.408 102.724C300.544 105.296 301.728 107.944 302.608 109.892" stroke="#111827" stroke-width="2.02" stroke-linecap="round" stroke-linejoin="round"/>
<path d="M259.364 72.9564C259.364 72.9564 265.6 71.4044 268.324 76.1324" stroke="#111827" stroke-width="2.02" stroke-miterlimit="10"/>
<path d="M261.2 87.0725C259.52 87.5325 257.26 87.9445 255.964 86.4805L258.788 80.5365C259.473 79.0789 259.643 77.4313 259.268 75.8645C258.652 73.2285 257.112 69.2245 258.764 65.7485" stroke="#111827" stroke-width="2.02" stroke-miterlimit="10"/>
<path d="M265.396 79.1062C265.869 78.321 265.505 77.2334 264.581 76.677C263.658 76.1206 262.526 76.3058 262.053 77.091C261.579 77.8762 261.944 78.9638 262.867 79.5202C263.791 80.077 264.923 79.8914 265.396 79.1062Z" fill="#111827"/>
<path d="M274.496 116.529L273.016 100.105" stroke="#111827" stroke-width="2.02" stroke-miterlimit="10"/>
<path d="M279.776 81.5313C279.776 81.3873 279.776 81.2393 279.776 81.0953C279.784 80.9409 279.784 80.7861 279.776 80.6313" stroke="#111827" stroke-width="2.02" stroke-linecap="round" stroke-linejoin="round"/>
<path d="M279.78 81.5369L278.492 80.8449L276.028 79.5049" stroke="#111827" stroke-width="2.02" stroke-linecap="round" stroke-linejoin="round"/>
<path d="M269.468 87.4951C269.468 87.4951 269.344 91.6551 264.588 93.3671" stroke="#111827" stroke-width="2.02" stroke-miterlimit="10"/>
<path d="M293.64 89.848C298.624 90.732 302.112 84.512 300.592 80.716C299.556 78.108 299.608 76.08 300.992 73.544C301.084 73.372 301.16 73.204 301.24 73.036C302.268 70.768 301.904 68.52 300.288 66.592C298.756 64.768 296.448 64.128 297.112 61.468C297.411 60.3132 297.521 59.118 297.44 57.928C297.268 56.3748 296.764 54.8768 295.964 53.5348C295.163 52.1928 294.085 51.038 292.8 50.148C290.104 48.36 287.068 49.98 284.164 49.936C280.668 49.884 278.144 46.908 274.476 46.864C272.64 46.864 271.16 47.548 269.6 48.436C268.288 49.192 266.988 49.988 265.748 50.836C264.508 51.684 263.348 52.436 261.876 52.436C259.924 52.436 258.04 51.236 256.088 51.796C254.136 52.356 252.976 53.972 252.592 55.844C251.968 58.78 253.06 62.448 255.024 64.244C257.048 66.092 260.156 66.192 262.728 65.944C266.016 65.644 269.272 64.848 272.492 64.176L274.448 64.076H274.476C274.851 64.0796 275.222 64.1572 275.567 64.304C275.912 64.4512 276.225 64.6644 276.487 64.9324C276.75 65.2 276.957 65.5172 277.098 65.8648C277.238 66.2128 277.308 66.5848 277.304 66.96C277.349 71.1816 276.928 75.3948 276.048 79.524" stroke="#111827" stroke-width="2.02" stroke-miterlimit="10"/>
<path d="M280.532 94.3999C280.532 94.3999 273.1 104.272 266.496 102.06C259.892 99.8479 259.556 87.6279 259.556 87.6279" stroke="#111827" stroke-width="2.02" stroke-linecap="round" stroke-linejoin="round"/>
<path d="M84.4678 370.947V225.895H93.3438V371.007" stroke="#111827" stroke-width="2.02" stroke-miterlimit="10"/>
<path d="M92.6361 141.492C100.549 141.492 106.964 135.077 106.964 127.164C106.964 119.251 100.549 112.836 92.6361 112.836C84.7229 112.836 78.3081 119.251 78.3081 127.164C78.3081 135.077 84.7229 141.492 92.6361 141.492Z" fill="#2563EB"/>
<path d="M87.0318 130.86C86.6126 130.574 86.2406 130.224 85.9278 129.824C85.3746 129.139 85.0918 128.276 85.1322 127.397C85.1726 126.517 85.5342 125.683 86.1478 125.052C86.5482 124.64 87.0386 124.326 87.5806 124.135C88.1226 123.945 88.7014 123.882 89.2718 123.952C89.1454 123.159 89.2806 122.346 89.6574 121.636C90.0338 120.927 90.6314 120.359 91.359 120.019C92.087 119.679 92.9058 119.584 93.6914 119.751C94.4774 119.917 95.1882 120.335 95.7158 120.94C96.8318 122.204 97.3558 124.084 97.5518 125.74C97.653 126.605 97.6666 127.477 97.5918 128.344C97.5558 128.78 97.3998 131.296 96.9918 131.456C94.2958 132.488 89.6998 132.712 87.0318 130.86Z" fill="white"/>
<path d="M193.728 138.111C197.969 138.111 201.408 134.673 201.408 130.431C201.408 126.19 197.969 122.751 193.728 122.751C189.486 122.751 186.048 126.19 186.048 130.431C186.048 134.673 189.486 138.111 193.728 138.111Z" fill="#2563EB"/>
<path d="M193.2 126.872C193.434 126.731 193.689 126.63 193.956 126.572C194.415 126.462 194.898 126.523 195.315 126.744C195.732 126.965 196.054 127.331 196.22 127.772C196.329 128.061 196.369 128.371 196.337 128.678C196.306 128.984 196.205 129.28 196.04 129.54C196.445 129.669 196.798 129.923 197.049 130.266C197.299 130.608 197.434 131.022 197.434 131.446C197.434 131.871 197.299 132.284 197.049 132.627C196.798 132.97 196.445 133.224 196.04 133.352C195.124 133.553 194.17 133.483 193.292 133.152C192.85 133.003 192.424 132.81 192.02 132.576C191.816 132.46 190.628 131.812 190.648 131.576C190.764 130.024 191.704 127.744 193.2 126.872Z" fill="white"/>
<path d="M134.18 121.672C135.041 122.39 136.002 122.979 137.032 123.42C138.93 124.212 141 124.497 143.042 124.248C145.083 124 147.024 123.225 148.676 122C149.956 121.024 151.076 119.676 152.4 118.696C153.324 117.972 154.433 117.523 155.6 117.4C155.988 117.411 156.373 117.33 156.724 117.164C157.612 116.612 156.564 115.696 156.472 115.048C156.349 114.011 156.609 112.966 157.204 112.108C158.723 109.842 159.412 107.12 159.154 104.404C158.895 101.689 157.705 99.146 155.786 97.2076C153.866 95.2692 151.335 94.0544 148.622 93.7692C145.909 93.4844 143.18 94.1468 140.9 95.6436C138.648 97.1196 136.976 99.3076 135.28 101.4C133.784 103.244 132.22 105.06 131.124 107.168C128.548 112.124 130.052 118.228 134.18 121.672Z" fill="#2563EB"/>
<path d="M149.456 105.336C150.872 105.336 152.02 104.188 152.02 102.772C152.02 101.356 150.872 100.208 149.456 100.208C148.04 100.208 146.892 101.356 146.892 102.772C146.892 104.188 148.04 105.336 149.456 105.336Z" fill="white"/>
<path d="M144.496 111.4C145.912 111.4 147.06 110.252 147.06 108.836C147.06 107.42 145.912 106.272 144.496 106.272C143.08 106.272 141.932 107.42 141.932 108.836C141.932 110.252 143.08 111.4 144.496 111.4Z" fill="white"/>
<path d="M139.844 117.092C141.26 117.092 142.408 115.944 142.408 114.528C142.408 113.112 141.26 111.964 139.844 111.964C138.428 111.964 137.28 113.112 137.28 114.528C137.28 115.944 138.428 117.092 139.844 117.092Z" fill="white"/>
<g opacity="0.46">
<path opacity="0.46" d="M214 90.5161C213.8 91.5205 213.378 92.4669 212.764 93.2873C212.151 94.1073 211.362 94.7801 210.456 95.2561L189.072 106.616C188.266 107.047 187.382 107.313 186.472 107.402C185.562 107.49 184.644 107.397 183.77 107.13C182.896 106.862 182.083 106.425 181.379 105.843C180.674 105.26 180.091 104.544 179.664 103.736L162.62 71.6441C161.756 70.0165 161.574 68.1129 162.114 66.3509C162.653 64.5893 163.869 63.1133 165.496 62.2481L186.896 50.8921C190.116 49.1801 194.56 50.4921 196.288 53.7681L213.336 85.8481C214.103 87.2765 214.338 88.9305 214 90.5161Z" fill="#2563EB"/>
</g>
<path d="M207.652 88.0843L186.8 80.1363C186.534 80.0331 186.314 79.8387 186.178 79.5883C186.043 79.3375 186.001 79.0467 186.06 78.7683L190.896 56.5243C190.951 56.2875 191.076 56.0731 191.255 55.9095C191.435 55.7455 191.659 55.6399 191.9 55.6067C192.14 55.5731 192.385 55.6135 192.603 55.7223C192.819 55.8311 192.999 56.0035 193.116 56.2163L209.132 86.4003C209.245 86.6151 209.29 86.8595 209.262 87.1007C209.233 87.3419 209.132 87.5691 208.971 87.7515C208.811 87.9339 208.599 88.0635 208.363 88.1231C208.128 88.1823 207.879 88.1687 207.652 88.0843Z" fill="white"/>
<g opacity="0.46">
<path opacity="0.46" d="M238.8 112.847C239.238 113.161 239.599 113.569 239.858 114.041C240.117 114.513 240.267 115.038 240.296 115.575L241.096 128.291C241.126 128.771 241.062 129.253 240.906 129.707C240.75 130.163 240.506 130.582 240.187 130.943C239.869 131.303 239.482 131.597 239.05 131.808C238.618 132.019 238.148 132.142 237.668 132.171L218.584 133.347C217.617 133.405 216.666 133.077 215.94 132.435C215.214 131.794 214.773 130.89 214.712 129.923L213.932 117.199C213.898 116.239 214.233 115.301 214.87 114.581C215.506 113.861 216.394 113.412 217.352 113.327L236.432 112.127C237.282 112.08 238.121 112.335 238.8 112.847Z" fill="#2563EB"/>
</g>
<path d="M236.264 115.36L227.912 123.628C227.806 123.728 227.668 123.789 227.522 123.799C227.376 123.809 227.231 123.768 227.112 123.684L217.512 116.524C217.409 116.446 217.333 116.34 217.293 116.218C217.253 116.096 217.252 115.964 217.289 115.841C217.326 115.718 217.4 115.61 217.501 115.53C217.601 115.45 217.724 115.404 217.852 115.396L235.804 114.288C235.929 114.284 236.053 114.319 236.159 114.387C236.265 114.454 236.347 114.552 236.397 114.668C236.447 114.783 236.46 114.911 236.437 115.034C236.413 115.158 236.353 115.271 236.264 115.36Z" fill="white"/>
<g opacity="0.46">
<path opacity="0.46" d="M109.2 182.724C107.948 182.93 106.681 183.037 105.412 183.044C93.2601 183.044 93.6681 171.776 93.6681 171.776L103.736 173.952C103.356 173.02 103.21 172.009 103.312 171.007C103.414 170.006 103.76 169.044 104.32 168.208C106.624 164.84 111.976 166.572 111.976 166.572L115.304 164.428L114.584 168.428L119.044 167.676L116.752 170.328C119.832 173.288 123.756 182.3 114.292 186.984C104.828 191.668 100.744 186.056 100.744 186.056L105.412 183.048L109.2 182.724Z" fill="#2563EB"/>
</g>
<path d="M109 171.704C109.804 171.704 110.456 171.052 110.456 170.248C110.456 169.444 109.804 168.792 109 168.792C108.196 168.792 107.544 169.444 107.544 170.248C107.544 171.052 108.196 171.704 109 171.704Z" fill="white"/>
<path d="M134.38 377.716H300.888" stroke="#111827" stroke-width="1.26" stroke-miterlimit="10"/>
</svg>
