<svg width="400" height="400" viewBox="0 0 400 400" fill="none" xmlns="http://www.w3.org/2000/svg">
<path d="M266.504 351.453L258.6 358.913C258.394 359.107 258.23 359.341 258.118 359.601C258.006 359.861 257.948 360.141 257.948 360.425V372.309C257.948 372.825 258.14 373.324 258.488 373.706C258.836 374.089 259.314 374.328 259.828 374.377L275.384 375.889L283.96 367.793C284.167 367.599 284.332 367.365 284.445 367.105C284.558 366.845 284.616 366.564 284.616 366.281V354.325C284.616 353.806 284.423 353.306 284.074 352.923C283.724 352.539 283.244 352.301 282.728 352.253L268.124 350.897C267.83 350.869 267.534 350.905 267.254 351.001C266.975 351.097 266.719 351.251 266.504 351.453Z" fill="#2563EB"/>
<path d="M265.676 349.38L256.4 358.136C256.158 358.364 255.966 358.639 255.835 358.945C255.703 359.25 255.636 359.579 255.636 359.912V373.856C255.635 374.462 255.861 375.047 256.268 375.496C256.676 375.945 257.236 376.226 257.84 376.284L276.096 378.06L286.164 368.556C286.406 368.327 286.598 368.052 286.73 367.746C286.861 367.441 286.928 367.112 286.928 366.78V352.748C286.928 352.14 286.7 351.554 286.29 351.104C285.88 350.655 285.318 350.375 284.712 350.32L267.576 348.72C267.23 348.688 266.882 348.73 266.555 348.844C266.227 348.958 265.928 349.14 265.676 349.38Z" fill="#2563EB"/>
<path d="M314.4 271.908V283.86C314.4 284.143 314.342 284.423 314.229 284.683C314.117 284.943 313.954 285.178 313.748 285.372L305.164 293.468L289.6 291.956C289.15 291.916 288.727 291.724 288.4 291.412C290.972 291.1 293.136 289.904 293.8 288.612C294.82 286.612 294.548 283.124 290.2 282.516C289.358 282.404 288.526 282.232 287.708 282.004V278C287.708 277.718 287.765 277.438 287.877 277.178C287.989 276.919 288.154 276.685 288.36 276.492L296.26 269.024C296.474 268.827 296.727 268.676 297.002 268.582C297.278 268.486 297.57 268.449 297.86 268.472L312.464 269.832C312.99 269.868 313.483 270.102 313.842 270.488C314.202 270.873 314.401 271.381 314.4 271.908Z" fill="#2563EB"/>
<path d="M316.716 270.332V284.36C316.715 284.694 316.646 285.024 316.514 285.331C316.381 285.638 316.187 285.914 315.944 286.144L305.884 295.64L287.628 293.868C287.024 293.809 286.464 293.527 286.056 293.078C285.648 292.628 285.423 292.042 285.424 291.436V291.38C286.417 291.538 287.428 291.549 288.424 291.412C290.996 291.1 293.16 289.904 293.824 288.612C294.844 286.612 294.572 283.124 290.224 282.516C289.382 282.403 288.55 282.232 287.732 282.004C285.78 281.408 285.66 280.756 285.66 280.756L285.42 280.908V277.508C285.417 277.176 285.484 276.847 285.614 276.542C285.745 276.237 285.938 275.962 286.18 275.736L295.46 266.976C295.712 266.738 296.012 266.556 296.339 266.442C296.667 266.328 297.015 266.285 297.36 266.316L314.496 267.916C315.099 267.973 315.66 268.252 316.07 268.698C316.48 269.144 316.71 269.726 316.716 270.332Z" fill="#2563EB"/>
<path d="M317.292 308.12L307.952 316.92C307.708 317.15 307.514 317.427 307.382 317.734C307.249 318.042 307.18 318.373 307.18 318.708V332.752C307.179 333.363 307.406 333.953 307.817 334.405C308.227 334.858 308.792 335.141 309.4 335.2L327.8 336.988L337.94 327.42C338.184 327.19 338.378 326.913 338.51 326.606C338.643 326.298 338.712 325.967 338.712 325.632V311.512C338.712 310.899 338.484 310.308 338.071 309.855C337.658 309.402 337.09 309.12 336.48 309.064L319.224 307.464C318.874 307.428 318.52 307.469 318.187 307.582C317.853 307.695 317.548 307.879 317.292 308.12Z" fill="#2563EB"/>
<path d="M316.312 305.672L305.348 316.02C305.063 316.29 304.836 316.615 304.68 316.975C304.525 317.335 304.444 317.723 304.444 318.116V334.596C304.444 335.313 304.712 336.004 305.194 336.535C305.676 337.066 306.338 337.399 307.052 337.468L328.628 339.564L340.524 328.332C340.81 328.063 341.038 327.739 341.194 327.378C341.349 327.017 341.429 326.629 341.428 326.236V309.652C341.423 308.935 341.151 308.246 340.665 307.718C340.179 307.191 339.514 306.864 338.8 306.8L318.548 304.916C318.143 304.878 317.735 304.926 317.35 305.056C316.965 305.186 316.611 305.396 316.312 305.672Z" fill="#2563EB"/>
<path d="M342.612 316.696L332.892 325.872C332.639 326.111 332.438 326.399 332.3 326.719C332.163 327.039 332.092 327.384 332.092 327.732V342.344C332.092 342.98 332.329 343.593 332.756 344.064C333.184 344.535 333.771 344.83 334.404 344.892L353.536 346.752L364.084 336.8C364.337 336.56 364.538 336.272 364.676 335.952C364.813 335.632 364.884 335.288 364.884 334.94V320.224C364.883 319.586 364.644 318.972 364.214 318.5C363.785 318.029 363.195 317.735 362.56 317.676L344.604 316C344.242 315.966 343.876 316.012 343.532 316.132C343.189 316.252 342.875 316.444 342.612 316.696Z" fill="#2563EB"/>
<path d="M341.6 314.149L330.192 324.917C329.895 325.198 329.658 325.536 329.497 325.912C329.335 326.287 329.252 326.692 329.252 327.101V344.253C329.252 344.998 329.529 345.716 330.029 346.268C330.53 346.82 331.218 347.165 331.96 347.237L354.4 349.421L366.8 337.733C367.097 337.452 367.334 337.113 367.495 336.738C367.657 336.362 367.74 335.958 367.74 335.549V318.289C367.739 317.541 367.46 316.82 366.956 316.268C366.452 315.715 365.76 315.37 365.016 315.301L343.94 313.341C343.515 313.302 343.086 313.354 342.683 313.493C342.28 313.632 341.91 313.856 341.6 314.149Z" fill="#2563EB"/>
<path d="M314.54 327.3L300.912 340.164C300.557 340.499 300.273 340.903 300.08 341.351C299.886 341.8 299.787 342.283 299.788 342.772V363.26C299.791 364.149 300.124 365.006 300.721 365.665C301.319 366.323 302.139 366.738 303.024 366.828L329.848 369.436L344.648 355.472C345.003 355.136 345.285 354.732 345.478 354.283C345.671 353.835 345.771 353.352 345.772 352.864V332.248C345.768 331.355 345.433 330.496 344.831 329.837C344.23 329.177 343.404 328.765 342.516 328.68L317.34 326.336C316.832 326.289 316.319 326.35 315.837 326.517C315.354 326.683 314.912 326.95 314.54 327.3Z" fill="#2563EB"/>
<path d="M313.112 323.729L297.112 338.825C296.695 339.218 296.363 339.692 296.136 340.219C295.909 340.745 295.792 341.312 295.792 341.885V365.929C295.791 366.974 296.18 367.983 296.882 368.757C297.585 369.531 298.551 370.016 299.592 370.117L331.068 373.177L348.428 356.777C348.845 356.383 349.177 355.909 349.404 355.383C349.631 354.857 349.748 354.29 349.748 353.717V329.537C349.748 328.489 349.358 327.478 348.652 326.703C347.946 325.929 346.976 325.445 345.932 325.349L316.4 322.601C315.803 322.543 315.201 322.614 314.634 322.809C314.067 323.003 313.548 323.317 313.112 323.729Z" fill="#2563EB"/>
<path d="M218.4 150.995C229.6 142.499 246.564 134.871 269.26 138.827" stroke="#D8EDFF" stroke-width="1.836" stroke-miterlimit="10"/>
<path d="M224.088 157.636C234.056 150.712 247.632 145.396 265.336 146.536" stroke="white" stroke-width="1.836" stroke-linecap="round" stroke-linejoin="round"/>
<path d="M302.32 154.052C313.264 164.16 319.016 178.408 321.12 192.928C322.514 202.585 322.526 212.391 321.156 222.052C321.052 222.619 320.981 223.192 320.944 223.768C321.652 223.449 322.385 223.188 323.136 222.988C332.184 220.664 341.808 220.288 350.564 223.864C357.848 226.836 364.048 232.048 368.784 238.264C375.116 246.626 378.945 256.612 379.828 267.064C381.428 287.064 371.864 303.192 357.52 314.568L357.356 314.7" stroke="#D8EDFF" stroke-width="1.836" stroke-linejoin="round"/>
<path d="M300.572 163.677C314.756 180.345 315.656 202.757 314.404 224.117C314.376 224.585 314.2 225.825 314.036 227.085" stroke="white" stroke-width="1.836" stroke-linecap="round" stroke-linejoin="round"/>
<path d="M319.812 229.496C330.276 228.456 341.892 228.148 350.792 233.348C359.592 238.492 366.144 246.808 369.916 256.224C374.2 266.912 374.888 279.424 370.1 290.072C364.728 301.992 355.832 310.524 345.764 318.512C345.736 318.532 346.964 318.804 348.244 319.092" stroke="white" stroke-width="1.836" stroke-linecap="round" stroke-linejoin="round"/>
<path d="M137.72 352.369C135.48 353.176 133.134 353.651 130.756 353.781C96.9841 355.857 65.2921 337.381 42.9721 316.697C41.9521 315.753 40.9721 314.785 40.0281 313.805" stroke="#111827" stroke-width="1.836" stroke-miterlimit="10"/>
<path d="M170.208 339.1C172.16 342.084 176.74 340.892 176.74 340.892C202.284 335.652 194.832 301.832 173.224 286.136" stroke="#111827" stroke-width="1.836" stroke-miterlimit="10"/>
<path d="M199.96 258.401C190.7 267.281 182.432 272.669 174.684 275.861L177.884 253.489C142.984 232.617 133.696 255.889 133.696 255.889C132.36 258.073 131.74 283.985 131.564 292.829C131.52 292.829 130.412 292.829 130.364 292.829C108.364 291.653 88.48 271.529 88.48 271.529C99.596 243.617 139.28 209.129 139.28 209.129C166.824 189.813 187.848 196.309 187.848 196.309C181.372 196.777 190.196 214.709 190.196 214.709C203.2 226.001 208 209.137 208 209.137C220.584 239.257 199.96 258.401 199.96 258.401Z" fill="#111827"/>
<path d="M222.716 245.372C222.716 245.372 220.432 274.716 200.58 273.744C200.58 273.744 193.136 265.692 193.324 259.568C193.512 253.444 210.124 215.2 210.124 215.2C210.124 215.2 220.892 242.056 222.716 245.372Z" fill="#111827"/>
<path d="M41.8521 315.533V315.633L43.5481 317.233C43.5481 317.233 42.8441 317.885 41.8521 318.833C40.5601 320.033 38.7801 321.689 37.4521 322.953C35.1521 325.137 23.3921 336.893 20.2521 326.201C20.8721 322.461 23.2481 314.769 32.3561 305.425C45.3081 292.113 43.5041 293.765 46.7561 293.985C48.2561 294.081 50.2001 294.961 51.8641 295.885C47.6561 297.637 41.2761 302.497 41.8521 315.533Z" fill="#2563EB"/>
<path d="M55.3801 298.096C55.3801 298.096 42.6481 299.296 41.8521 315.532V315.632C41.8001 316.632 41.8001 317.684 41.8521 318.804C40.5601 320.004 38.7801 321.66 37.4521 322.924C35.1521 325.108 23.3921 336.864 20.2521 326.172C20.8721 322.432 23.2481 314.74 32.3561 305.396C45.3081 292.084 43.5041 293.736 46.7561 293.956C48.2561 294.052 50.2001 294.932 51.8641 295.856C53.0737 296.542 54.2473 297.29 55.3801 298.096Z" fill="#2563EB"/>
<path d="M174.6 276.536C189 267.508 212.104 255.948 212.048 229.996C212.048 223.832 211.412 218.796 210.048 214.028L209.916 213.572C209.44 212.028 208.797 210.541 208 209.136" stroke="#111827" stroke-width="1.836" stroke-miterlimit="10"/>
<path d="M105.14 321.459C101.808 318.623 98.8001 315.887 96.8001 313.999L96.7681 313.967C95.1921 312.499 94.2481 311.567 94.2481 311.567C92.9081 309.739 91.7161 307.967 90.6481 306.263C90.6273 306.238 90.6121 306.208 90.6041 306.175C82.8361 293.615 82.3681 283.607 89.6041 268.883C89.6461 268.777 89.6941 268.672 89.7481 268.571C90.5481 266.971 91.4321 265.299 92.4081 263.571C106.892 237.971 149.388 190.271 186.048 196.303" stroke="#111827" stroke-width="1.836" stroke-miterlimit="10"/>
<path d="M42.984 316.685C35.384 326.117 30.052 329.465 26.448 330.205C22.844 330.945 19.524 327.749 20.048 324.053C21.72 312.373 35.312 298.401 42 292.153C43.0244 291.189 44.3388 290.592 45.7384 290.454C47.138 290.317 48.5436 290.647 49.736 291.393L53.084 293.477C62.976 299.645 73.3 305.661 83.68 311.205C93.196 316.293 103.652 322.833 114.916 321.353" stroke="#111827" stroke-width="1.836" stroke-miterlimit="10"/>
<path d="M179.304 229.088C179.433 233.73 179.314 238.377 178.948 243.008C177.68 259.764 174.256 276.292 172.372 292.98C171.172 303.66 170.436 314.388 170.292 325.136C170.172 334.16 170.148 341.044 170.416 350.068C170.588 355.876 173.872 359.584 178.872 362.068C183.084 364.156 186.02 363.732 188.644 367.944C194.04 376.624 183.444 377.24 179.132 376.096C167.036 372.896 149.24 371.14 142.332 359.112C136.824 349.512 136.124 343.236 134.732 332.508C133.212 320.884 131.932 309.212 131.66 297.484C131.24 278.6 132.704 248.224 139.472 230.364" stroke="#111827" stroke-width="1.836" stroke-miterlimit="10"/>
<path d="M330.4 318.652L330.336 318.716L328.836 318.564L328.892 318.512L330.4 318.652Z" fill="#2563EB"/>
<path d="M306.604 316.608L318.928 317.828L306.604 316.708V316.608Z" fill="#2563EB"/>
<path d="M330.4 318.652L330.336 318.716L328.836 318.564L328.672 318.716L327.956 318.652L328.12 318.5L328.172 318.444L328.892 318.512L330.4 318.652Z" fill="#2563EB"/>
<path d="M330.4 318.652L330.336 318.716L328.836 318.564L328.12 318.5L328.172 318.444L328.892 318.512L330.4 318.652Z" fill="#2563EB"/>
<path d="M298.932 340.052L317.152 341.832L298.932 340.196V340.052Z" fill="#2563EB"/>
<path d="M334.124 343.045L334.028 343.141L331.808 342.917L331.568 343.141L330.508 343.045L330.748 342.821L330.828 342.741L331.892 342.837L334.124 343.045Z" fill="#2563EB"/>
<path d="M334.124 343.045L334.028 343.141L331.808 342.917L330.748 342.821L330.828 342.741L331.892 342.837L334.124 343.045Z" fill="#2563EB"/>
<path d="M209.908 213.569C209.908 213.569 221.676 252.825 235.44 261.969C248.408 270.581 265.82 266.845 279.496 262.141C283.272 260.841 287.068 259.573 291.096 259.633C296.764 259.713 308.316 260.969 309.816 267.565" stroke="#111827" stroke-width="1.836" stroke-miterlimit="10"/>
<path d="M194.44 263.38C214.748 304.504 250.756 296.3 269.292 288.868C270.971 288.184 272.792 287.924 274.596 288.108C276.388 288.304 277.796 289.064 279.464 289.708C282.3 290.828 285.504 291.632 288.58 291.424C291.656 291.216 295.404 288.872 294.108 285.244C293.076 282.352 289.86 282.56 287.396 282.004C284.932 281.448 284.34 277.856 286.644 276.692C286.672 276.683 286.698 276.668 286.72 276.648" stroke="#111827" stroke-width="1.836" stroke-miterlimit="10"/>
<path d="M286.928 350.531L276.096 360.767L255.636 358.863L266.48 348.631L286.928 350.531Z" stroke="#111827" stroke-width="1.836" stroke-linecap="square" stroke-linejoin="round"/>
<path d="M276.096 360.768V378.064L255.636 376.076V358.864L276.096 360.768Z" stroke="#111827" stroke-width="1.836" stroke-linecap="square" stroke-linejoin="round"/>
<path d="M286.928 350.531V367.839L276.096 378.063V360.767L286.928 350.531Z" stroke="#111827" stroke-width="1.836" stroke-linecap="square" stroke-linejoin="round"/>
<path d="M349.916 325.868L331.38 343.384L296.38 340.124L304.572 332.388V336.752L328.672 339.1L341.428 327.052V325.072L349.916 325.868Z" stroke="#111827" stroke-width="1.836" stroke-linecap="square" stroke-linejoin="round"/>
<path d="M331.38 343.38V372.968L296.38 369.568V340.128L331.38 343.38Z" stroke="#111827" stroke-width="1.836" stroke-linecap="square" stroke-linejoin="round"/>
<path d="M349.912 325.872V355.48L331.38 372.968V343.38L349.912 325.872Z" stroke="#111827" stroke-width="1.836" stroke-linecap="square" stroke-linejoin="round"/>
<path d="M341.428 306.668L328.672 318.716L304.572 316.48L317.34 304.428L341.428 306.668Z" stroke="#111827" stroke-width="1.836" stroke-linecap="square" stroke-linejoin="round"/>
<path d="M328.672 323.14V318.716L304.572 316.48V335.08" stroke="#111827" stroke-width="1.836" stroke-linecap="square" stroke-linejoin="round"/>
<path d="M341.428 306.669V327.053L328.672 339.101V318.717L341.428 306.669Z" stroke="#111827" stroke-width="1.836" stroke-linecap="square" stroke-linejoin="round"/>
<path d="M341.784 313.844L342.332 313.328L367.788 315.696L354.304 328.444L350.524 328.088" stroke="#111827" stroke-width="1.836" stroke-linecap="square" stroke-linejoin="round"/>
<path d="M350.3 328.064L354.304 328.444V349.968L349.916 349.544" stroke="#111827" stroke-width="1.836" stroke-linecap="square" stroke-linejoin="round"/>
<path d="M367.784 315.695V337.239L354.3 349.967V328.435L367.784 315.695Z" stroke="#111827" stroke-width="1.836" stroke-linecap="square" stroke-linejoin="round"/>
<path d="M316.712 268.199L305.88 278.435L285.42 276.531L296.264 266.295L316.712 268.199Z" stroke="#111827" stroke-width="1.836" stroke-linecap="square" stroke-linejoin="round"/>
<path d="M285.416 291.324V293.748L305.876 295.736V278.44L286.72 276.656L285.416 276.536V278.036V279.592" stroke="#111827" stroke-width="1.836" stroke-linecap="square" stroke-linejoin="round"/>
<path d="M316.712 268.2V285.508L305.88 295.732V278.436L316.712 268.2Z" stroke="#111827" stroke-width="1.836" stroke-linecap="square" stroke-linejoin="round"/>
<path d="M212.048 194.036C213.908 196.528 217.172 197.024 219.336 195.308" stroke="#111827" stroke-width="1.836" stroke-miterlimit="10"/>
<path d="M241.62 169.2C240.818 171.195 239.41 172.886 237.594 174.035C235.777 175.183 233.645 175.731 231.5 175.6C231.453 174.724 231.193 173.871 230.744 173.116C228.82 169.98 227.012 175.04 220.044 170.148C210.392 163.348 205.972 165.748 205.972 165.748C205.572 165.956 205.256 168.364 205.148 168.784C204.488 171.224 203.832 173.652 203.148 176.088C202.748 177.576 202.348 179.052 201.948 180.528C201.845 180.255 201.726 179.988 201.592 179.728C201.152 176.212 200.068 171.98 196.132 173.132C195.334 173.381 194.606 173.814 194.008 174.396C191.092 177.22 192.468 180.584 194.66 183.252C195.188 184.058 195.803 184.804 196.492 185.476C195.944 186.276 193.712 189.476 193.712 189.476C193.48 189.796 188.54 182.132 188.204 181.324C187.815 179.42 187.749 177.463 188.008 175.536C189.116 167.616 193.732 158.908 200.808 155.352C202.568 154.472 202.224 153.312 202.56 151.8C202.57 151.712 202.61 151.63 202.672 151.567C202.734 151.503 202.816 151.462 202.904 151.45C202.992 151.438 203.081 151.456 203.158 151.501C203.235 151.546 203.294 151.614 203.328 151.696C205.008 154.264 210 154.8 210 154.8C227.14 153.076 232.464 161.652 235.784 163.54C237.124 164.282 238.675 164.545 240.184 164.288C240.194 164.777 240.338 165.253 240.6 165.665C240.863 166.077 241.234 166.409 241.672 166.624L241.464 167.424C241.313 168.017 241.368 168.643 241.62 169.2Z" fill="#2563EB"/>
<path d="M231.488 175.601C233.63 175.731 235.758 175.186 237.573 174.041C239.387 172.896 240.796 171.21 241.6 169.221C241.914 168.46 242.158 167.673 242.328 166.869L242.2 166.833C242.016 166.788 241.839 166.719 241.672 166.629C241.234 166.413 240.863 166.081 240.601 165.669C240.338 165.257 240.194 164.781 240.184 164.293C240.171 164.023 240.201 163.753 240.272 163.493L241.308 159.661C241.308 159.661 237.84 161.501 234.588 159.621C231.336 157.741 226.696 149.189 208.804 150.881C208.804 150.881 204.872 150.517 203.204 147.901C203.169 147.82 203.109 147.754 203.033 147.71C202.956 147.668 202.868 147.651 202.781 147.663C202.694 147.676 202.614 147.716 202.552 147.778C202.491 147.841 202.451 147.922 202.44 148.009C202.104 149.521 201.368 150.513 199.612 151.393C192.52 154.953 187.9 163.661 186.812 171.577C186.403 174.882 186.881 178.237 188.196 181.297C188.532 182.097 193.472 189.769 193.704 189.449C193.704 189.449 195.936 186.249 196.484 185.449L196.616 185.273L196.444 185.117C195.805 184.527 195.206 183.895 194.652 183.225C192.46 180.557 191.084 177.193 194 174.369C194.599 173.786 195.327 173.353 196.124 173.105C200.06 171.953 201.144 176.185 201.584 179.701C201.669 180.372 201.681 181.051 201.62 181.725L201.94 180.525C202.34 179.049 202.74 177.573 203.14 176.085C203.808 173.649 204.464 171.221 205.14 168.781C205.248 168.361 205.58 165.953 205.964 165.745C205.964 165.745 210.384 163.369 220.036 170.145C227.004 175.037 228.812 169.977 230.736 173.113C231.186 173.867 231.445 174.72 231.492 175.597C231.502 175.878 231.494 176.16 231.468 176.441C231.474 176.478 231.474 176.516 231.468 176.553C231.412 177.165 231.332 177.777 231.252 178.373C230.452 184.125 228.892 190.025 225.824 195.013C222.104 201.057 213.88 206.329 206.8 202.165C204.596 200.865 202.708 199.017 201.02 197.105" stroke="#111827" stroke-width="1.836" stroke-miterlimit="10"/>
<path d="M226.284 187.898C226.726 187.037 226.507 186.043 225.796 185.678C225.084 185.313 224.15 185.715 223.708 186.576C223.266 187.436 223.484 188.43 224.196 188.796C224.907 189.161 225.842 188.759 226.284 187.898Z" fill="#111827"/>
<path d="M215.124 185.831C215.566 184.97 215.348 183.976 214.636 183.611C213.925 183.246 212.99 183.648 212.548 184.508C212.106 185.369 212.325 186.363 213.036 186.728C213.748 187.094 214.682 186.692 215.124 185.831Z" fill="#111827"/>
<path d="M217.024 189.324C217.024 189.324 220.436 192.012 220.996 189.848C221.172 189.18 223.096 182.684 223.096 182.684C223.096 182.684 226.6 179.948 230.864 183.012" stroke="#111827" stroke-width="1.836" stroke-miterlimit="10"/>
<path d="M219.276 180.196C219.276 180.196 213.708 176.268 209.068 180.004" stroke="#111827" stroke-width="1.836" stroke-miterlimit="10"/>
<path d="M192.26 187.628L189.372 196.94L186.072 196.32C183.996 199.784 186.672 210.98 190.212 214.72C200.312 225.424 206.524 213.068 206.524 213.068L208 209.124L210.14 203.42" stroke="#111827" stroke-width="1.836" stroke-miterlimit="10"/>
<path d="M279.74 159.095C280.493 159.771 281.095 160.598 281.508 161.521C281.922 162.444 282.137 163.444 282.14 164.455V165.599C282.143 166.408 282.316 167.207 282.646 167.945C282.976 168.683 283.457 169.344 284.058 169.886C284.658 170.427 285.366 170.836 286.134 171.088C286.903 171.34 287.715 171.428 288.52 171.347C291.508 171.043 293.692 168.327 293.692 165.307V164.451C293.69 163.447 293.898 162.454 294.302 161.535C294.706 160.616 295.298 159.792 296.04 159.115" stroke="#D8EDFF" stroke-width="1.836" stroke-linejoin="round"/>
<path d="M279.74 159.095C280.493 159.771 281.095 160.598 281.508 161.521C281.922 162.444 282.137 163.444 282.14 164.455V165.599C282.143 166.408 282.316 167.207 282.646 167.945C282.976 168.683 283.457 169.344 284.058 169.886C284.658 170.427 285.366 170.836 286.134 171.088C286.903 171.34 287.715 171.428 288.52 171.347C291.508 171.043 293.692 168.327 293.692 165.307V164.451C293.69 163.447 293.898 162.454 294.302 161.535C294.706 160.616 295.298 159.792 296.04 159.115" stroke="#D8EDFF" stroke-width="1.836" stroke-linejoin="round"/>
<path d="M279.74 159.096C279.357 158.763 278.942 158.468 278.5 158.216C275.117 156.275 272.418 153.334 270.774 149.797C269.129 146.26 268.619 142.301 269.314 138.463C270.008 134.625 271.874 131.096 274.654 128.36C277.434 125.625 280.992 123.816 284.841 123.183C288.69 122.55 292.64 123.124 296.15 124.825C299.66 126.526 302.557 129.272 304.444 132.686C306.332 136.099 307.116 140.013 306.691 143.89C306.266 147.767 304.651 151.418 302.068 154.34C302.028 154.379 301.992 154.422 301.96 154.468C300.595 155.967 299.004 157.243 297.244 158.248C296.81 158.49 296.407 158.782 296.044 159.12" stroke="#D8EDFF" stroke-width="1.836" stroke-linejoin="round"/>
<path d="M285.892 157.865C284.672 155.649 282.616 152.713 281.168 150.621C279.593 148.402 278.307 145.992 277.34 143.449C277.212 143.174 277.162 142.87 277.196 142.569C277.216 142.42 277.293 142.284 277.411 142.19C277.528 142.096 277.678 142.051 277.828 142.065C278.096 142.117 278.228 142.397 278.368 142.641C278.943 143.784 279.762 144.786 280.768 145.577C281.332 146.013 282.132 146.377 282.72 145.977C282.898 145.82 283.042 145.628 283.14 145.412C283.239 145.196 283.291 144.962 283.292 144.725C283.469 143.04 283.028 141.349 282.052 139.965C281.652 139.421 280.956 138.893 280.392 139.249C279.828 139.605 279.992 140.485 280.328 141.077C280.925 142.174 281.74 143.138 282.722 143.91C283.704 144.683 284.833 145.247 286.04 145.569C286.632 145.767 287.272 145.774 287.868 145.589C288.199 145.438 288.488 145.209 288.711 144.921C288.933 144.633 289.082 144.295 289.144 143.937C289.263 143.217 289.201 142.479 288.964 141.789C288.636 140.713 288 139.613 286.932 139.253C286.598 139.123 286.226 139.123 285.892 139.253C285.67 139.372 285.486 139.551 285.361 139.769C285.236 139.988 285.174 140.237 285.184 140.489C285.21 140.992 285.364 141.481 285.632 141.909C286.252 142.99 287.125 143.906 288.176 144.576C289.228 145.246 290.426 145.651 291.668 145.757C292.498 145.875 293.341 145.673 294.028 145.193C294.314 144.927 294.545 144.607 294.706 144.251C294.868 143.896 294.957 143.511 294.968 143.121C295.059 141.95 294.728 140.785 294.036 139.837C293.896 139.649 293.684 139.437 293.456 139.513C293.228 139.589 293.164 139.845 293.136 140.073C293.032 140.969 293.107 141.876 293.357 142.743C293.607 143.61 294.027 144.418 294.592 145.121C295.216 145.885 296.164 146.549 297.124 146.321C297.487 146.21 297.813 146.002 298.068 145.72C298.322 145.439 298.495 145.093 298.568 144.721C298.706 143.974 298.632 143.203 298.352 142.497C298.008 142.708 297.714 142.991 297.489 143.326C297.265 143.662 297.116 144.042 297.052 144.441C296.876 145.241 296.888 146.041 296.752 146.841C296 151.329 291.056 153.333 290.096 157.641" stroke="#D8EDFF" stroke-width="1.836" stroke-linejoin="round"/>
<path d="M287.892 116.168L287.704 104.8" stroke="#D8EDFF" stroke-width="1.836" stroke-linejoin="round"/>
<path d="M266.208 126.745L258.34 118.541" stroke="#D8EDFF" stroke-width="1.836" stroke-linejoin="round"/>
<path d="M309.652 127.256L317.696 119.22" stroke="#D8EDFF" stroke-width="1.836" stroke-linejoin="round"/>
<path d="M313.948 234.656C316.224 234.656 318.068 232.811 318.068 230.536C318.068 228.261 316.224 226.416 313.948 226.416C311.673 226.416 309.828 228.261 309.828 230.536C309.828 232.811 311.673 234.656 313.948 234.656Z" fill="#2563EB"/>
</svg>
