<svg width="131" height="130" viewBox="0 0 131 130" fill="none" xmlns="http://www.w3.org/2000/svg">
<path d="M65.5 119.167C64.0634 119.167 62.6857 118.596 61.6698 117.58C60.654 116.564 60.0833 115.187 60.0833 113.75V97.4999C60.0833 96.0633 60.654 94.6856 61.6698 93.6698C62.6857 92.6539 64.0634 92.0833 65.5 92.0833C66.9366 92.0833 68.3143 92.6539 69.3302 93.6698C70.346 94.6856 70.9167 96.0633 70.9167 97.4999V113.75C70.9167 115.187 70.346 116.564 69.3302 117.58C68.3143 118.596 66.9366 119.167 65.5 119.167ZM99.95 104.867C98.529 104.861 97.1672 104.296 96.1583 103.296L84.675 92.0833C84.1557 91.564 83.7438 90.9475 83.4628 90.2691C83.1818 89.5906 83.0371 88.8634 83.0371 88.1291C83.0371 87.3947 83.1818 86.6676 83.4628 85.9891C83.7438 85.3106 84.1557 84.6942 84.675 84.1749C85.1943 83.6556 85.8107 83.2437 86.4892 82.9627C87.1676 82.6817 87.8948 82.537 88.6292 82.537C89.3635 82.537 90.0907 82.6817 90.7691 82.9627C91.4476 83.2437 92.0641 83.6556 92.5833 84.1749L104.067 95.6582C105.076 96.6731 105.642 98.046 105.642 99.477C105.642 100.908 105.076 102.281 104.067 103.296C103.529 103.831 102.884 104.248 102.175 104.519C101.466 104.789 100.708 104.908 99.95 104.867ZM31.05 104.867C30.3371 104.871 29.6305 104.734 28.9705 104.465C28.3106 104.195 27.7103 103.798 27.2042 103.296C26.1953 102.281 25.629 100.908 25.629 99.477C25.629 98.046 26.1953 96.6731 27.2042 95.6582L38.6875 84.1749C39.2068 83.6734 39.8197 83.2791 40.4914 83.0145C41.163 82.7499 41.8802 82.6202 42.602 82.6328C43.3238 82.6454 44.036 82.8 44.6981 83.0878C45.3601 83.3757 45.9589 83.7911 46.4604 84.3103C46.9619 84.8296 47.3562 85.4426 47.6208 86.1142C47.8854 86.7859 48.0151 87.5031 48.0025 88.2248C47.99 88.9466 47.8353 89.6589 47.5475 90.3209C47.2597 90.9829 46.8443 91.5818 46.325 92.0833L34.8417 103.296C33.8328 104.296 32.471 104.861 31.05 104.867ZM114.25 70.4166H98C96.5634 70.4166 95.1857 69.8459 94.1698 68.8301C93.154 67.8143 92.5833 66.4365 92.5833 64.9999C92.5833 63.5633 93.154 62.1856 94.1698 61.1698C95.1857 60.1539 96.5634 59.5833 98 59.5833H114.25C115.687 59.5833 117.064 60.1539 118.08 61.1698C119.096 62.1856 119.667 63.5633 119.667 64.9999C119.667 66.4365 119.096 67.8143 118.08 68.8301C117.064 69.8459 115.687 70.4166 114.25 70.4166ZM33 70.4166H22.1667C20.7301 70.4166 19.3523 69.8459 18.3365 68.8301C17.3207 67.8143 16.75 66.4365 16.75 64.9999C16.75 63.5633 17.3207 62.1856 18.3365 61.1698C19.3523 60.1539 20.7301 59.5833 22.1667 59.5833H33C34.4366 59.5833 35.8143 60.1539 36.8302 61.1698C37.846 62.1856 38.4167 63.5633 38.4167 64.9999C38.4167 66.4365 37.846 67.8143 36.8302 68.8301C35.8143 69.8459 34.4366 70.4166 33 70.4166ZM88.4667 47.4499C87.3954 47.4454 86.3495 47.1234 85.4613 46.5245C84.573 45.9256 83.8823 45.0768 83.4765 44.0854C83.0706 43.0939 82.9679 42.0044 83.1812 40.9546C83.3945 39.9048 83.9144 38.9418 84.675 38.1874L96.1583 26.7041C96.6439 26.1371 97.2415 25.6765 97.9135 25.3514C98.5855 25.0263 99.3175 24.8436 100.063 24.8148C100.809 24.7859 101.553 24.9116 102.248 25.184C102.944 25.4563 103.575 25.8693 104.103 26.3972C104.631 26.9251 105.044 27.5564 105.316 28.2515C105.588 28.9466 105.714 29.6905 105.685 30.4365C105.656 31.1824 105.474 31.9144 105.149 32.5864C104.823 33.2584 104.363 33.856 103.796 34.3416L92.5833 45.8249C92.0502 46.3703 91.408 46.797 90.6985 47.077C89.9891 47.3571 89.2286 47.4841 88.4667 47.4499ZM42.5333 47.4499C41.8167 47.4469 41.1077 47.3018 40.4476 47.0228C39.7874 46.7439 39.1892 46.3367 38.6875 45.8249L34.8417 42.0333C33.8217 41.0133 33.2487 39.6299 33.2487 38.1874C33.2487 36.745 33.8217 35.3616 34.8417 34.3416C35.8616 33.3216 37.245 32.7486 38.6875 32.7486C40.13 32.7486 41.5134 33.3216 42.5333 34.3416L46.325 38.1874C47.0856 38.9418 47.6055 39.9048 47.8188 40.9546C48.0321 42.0044 47.9294 43.0939 47.5235 44.0854C47.1177 45.0768 46.427 45.9256 45.5387 46.5245C44.6505 47.1234 43.6046 47.4454 42.5333 47.4499ZM65.5 37.9166C64.0634 37.9166 62.6857 37.3459 61.6698 36.3301C60.654 35.3143 60.0833 33.9365 60.0833 32.4999V16.2499C60.0833 14.8133 60.654 13.4356 61.6698 12.4198C62.6857 11.4039 64.0634 10.8333 65.5 10.8333C66.9366 10.8333 68.3143 11.4039 69.3302 12.4198C70.346 13.4356 70.9167 14.8133 70.9167 16.2499V32.4999C70.9167 33.9365 70.346 35.3143 69.3302 36.3301C68.3143 37.3459 66.9366 37.9166 65.5 37.9166Z" fill="url(#paint0_linear_160_1199)"/>
<defs>
<linearGradient id="paint0_linear_160_1199" x1="102.5" y1="64.5454" x2="68" y2="141.545" gradientUnits="userSpaceOnUse">
<stop stop-color="#2563EB"/>
<stop offset="1" stop-color="#9747FF"/>
</linearGradient>
</defs>
</svg>
