<svg width="370" height="370" viewBox="0 0 370 370" fill="none" xmlns="http://www.w3.org/2000/svg">
<path d="M305.857 294.56H261.827V299.256C261.827 305.095 264.146 310.694 268.275 314.823C272.403 318.951 278.003 321.271 283.842 321.271C289.681 321.271 295.28 318.951 299.409 314.823C303.537 310.694 305.857 305.095 305.857 299.256V294.56Z" fill="#D8EDFF"/>
<path d="M137.577 320.942C133.628 320.948 129.75 319.885 126.355 317.868" stroke="#2563EB" stroke-width="1.6724" stroke-miterlimit="10"/>
<path d="M115.628 55.204L115.558 40.5187C115.559 34.6793 117.879 29.0793 122.008 24.9502C126.138 20.8211 131.737 18.501 137.577 18.5H283.838" stroke="#2563EB" stroke-width="1.6724" stroke-miterlimit="10"/>
<path d="M261.831 298.924V294.558V80.5461V40.5195" stroke="#2563EB" stroke-width="1.6724" stroke-miterlimit="10"/>
<path d="M261.831 75.4401H305.861V40.5195C305.861 34.6806 303.541 29.0811 299.413 24.9525C295.284 20.8239 289.684 18.5044 283.846 18.5044C278.007 18.5044 272.407 20.8239 268.279 24.9525C264.15 29.0811 261.831 34.6806 261.831 40.5195V80.5461" fill="#D8EDFF"/>
<path d="M261.831 75.4401H305.861V40.5195C305.861 34.6806 303.541 29.0811 299.413 24.9525C295.284 20.8239 289.684 18.5044 283.846 18.5044C278.007 18.5044 272.407 20.8239 268.279 24.9525C264.15 29.0811 261.831 34.6806 261.831 40.5195V80.5461" stroke="#2563EB" stroke-width="1.6724" stroke-miterlimit="10"/>
<path d="M261.827 294.56V298.926C261.827 304.765 264.146 310.365 268.275 314.493C272.403 318.622 278.003 320.941 283.842 320.941" stroke="#2563EB" stroke-width="1.6724" stroke-miterlimit="10"/>
<path d="M147.815 320.942H137.577" stroke="#2563EB" stroke-width="1.6724" stroke-miterlimit="10"/>
<path d="M261.83 294.558H305.86V298.924C305.858 304.763 303.538 310.362 299.409 314.491C295.28 318.62 289.68 320.94 283.841 320.942H177.555" stroke="#2563EB" stroke-width="1.6724" stroke-miterlimit="10"/>
<path d="M237.196 115.303H201.627" stroke="#2563EB" stroke-width="1.6724" stroke-miterlimit="10"/>
<path d="M237.196 129.092H201.627" stroke="#2563EB" stroke-width="1.6724" stroke-miterlimit="10"/>
<path d="M237.196 142.887H201.627" stroke="#2563EB" stroke-width="1.6724" stroke-miterlimit="10"/>
<path d="M237.196 156.676H201.627" stroke="#2563EB" stroke-width="1.6724" stroke-miterlimit="10"/>
<path d="M237.196 170.466H201.627" stroke="#2563EB" stroke-width="1.6724" stroke-miterlimit="10"/>
<path d="M237.196 184.256H201.627" stroke="#2563EB" stroke-width="1.6724" stroke-miterlimit="10"/>
<path d="M237.196 230.33H201.627" stroke="#2563EB" stroke-width="1.6724" stroke-miterlimit="10"/>
<path d="M237.196 236.76H201.627" stroke="#2563EB" stroke-width="1.6724" stroke-miterlimit="10"/>
<path d="M237.196 243.19H201.627" stroke="#2563EB" stroke-width="1.6724" stroke-miterlimit="10"/>
<path d="M237.196 249.62H201.627" stroke="#2563EB" stroke-width="1.6724" stroke-miterlimit="10"/>
<path d="M244.903 97.2219H193.328C189.123 97.2219 185.714 100.631 185.714 104.837V260.673C185.714 264.879 189.123 268.288 193.328 268.288H244.903C249.108 268.288 252.517 264.879 252.517 260.673V104.837C252.517 100.631 249.108 97.2219 244.903 97.2219Z" stroke="#2563EB" stroke-width="1.6724" stroke-miterlimit="10"/>
<path d="M196.614 126.496C196.614 126.496 216.305 160.684 208.595 176.416C208.595 176.416 202.93 187.468 190.394 186.369C177.859 185.27 184.26 160.018 172.982 153.332C161.704 146.646 179.368 118.922 179.542 119.14C179.716 119.358 196.614 126.496 196.614 126.496Z" fill="white"/>
<path d="M201.627 83.4753H173.493" stroke="#2563EB" stroke-width="1.6724" stroke-miterlimit="10"/>
<path d="M201.628 67.2734H178.033" stroke="#2563EB" stroke-width="1.6724" stroke-miterlimit="10"/>
<path d="M201.627 75.376H174.736" stroke="#2563EB" stroke-width="1.6724" stroke-miterlimit="10"/>
<path d="M201.627 59.1738H169.796" stroke="#2563EB" stroke-width="1.6724" stroke-miterlimit="10"/>
<path d="M198.191 129.792C179.039 126.621 173.771 145.391 173.771 145.391C173.771 145.391 179.387 156.21 179.528 156.799C180.009 163.307 174.015 163.666 174.015 163.666L152.843 168.106L144.182 154.519C144.182 154.519 137.733 111.055 136.042 111.081C134.351 111.107 135.302 110.412 135.302 110.412C136.967 109.061 136.093 102.705 136.093 102.705C135.849 99.9888 140.393 98.9676 145.036 97.5801C149.68 96.1926 147.39 99.0342 146.613 102.705C145.836 106.375 144.988 114.545 154.242 115.307C163.496 116.069 164.321 111.762 166.626 107.907C168.217 105.246 167.425 101.654 166.789 99.6891C171.128 101.198 175.299 103.152 179.235 105.52C179.85 105.89 180.438 106.26 181.019 106.686C189.336 112.391 194.032 120.835 198.191 129.792Z" fill="#111827"/>
<path d="M94.7494 185.275C94.7494 185.275 93.8947 185.733 96.7659 185.752C99.6371 185.77 132.534 183.376 158.589 197.381C158.589 197.381 166.541 201.451 169.464 207.637C169.464 207.637 170.259 208.407 171.846 204.651C173.434 200.896 177.352 188.986 177.352 188.986C177.352 188.986 178.392 187.99 176.194 187.876C173.996 187.761 147.334 184.646 136.112 181.46C124.89 178.274 113.116 176.679 111.533 173.253L111.903 171.092C111.903 171.092 98.2311 170.201 97.8759 172.421C97.5207 174.641 94.7494 185.275 94.7494 185.275Z" fill="#111827"/>
<path d="M158.498 75.6941C160.226 74.0712 160.279 71.3214 158.617 69.5517C156.956 67.782 154.208 67.6628 152.48 69.2853C150.752 70.9081 150.698 73.6583 152.36 75.4277C154.022 77.1974 156.77 77.3165 158.498 75.6941Z" fill="#D8EDFF"/>
<path d="M146.205 73.8195C147.934 72.1956 147.988 69.4431 146.325 67.6719C144.661 65.9008 141.911 65.7816 140.182 67.4055C138.452 69.0298 138.399 71.7823 140.062 73.5531C141.725 75.3243 144.475 75.4438 146.205 73.8195Z" fill="#D8EDFF"/>
<path d="M149.05 91.1421C149.05 91.1421 148.658 93.3362 147.833 97.088C145.794 97.051 143.345 98.938 141.34 98.9084C140.489 93.1623 141.739 88.7223 143.138 85.7808C144.67 89.5955 147.123 90.8128 149.05 91.1421Z" fill="#2563EB"/>
<path d="M181.955 107.192C177.951 104.835 173.844 101.864 169.293 100.599L166.703 99.4221C166.703 99.4221 166.507 98.93 166.5 98.9226C166.019 97.5795 165.209 95.7924 164.983 94.3901C164.706 92.7299 164.679 91.0376 164.901 89.3692C165.271 86.8902 166.585 81.6732 168.727 80.0785C170.514 78.7576 171.225 79.0684 172.283 76.952C173.023 75.4424 173.393 72.882 172.061 71.7091C170.581 70.4215 169.893 71.0431 168.058 71.1689C161.076 71.6462 157.254 66.5143 154.871 60.6498C154.53 59.6638 154.056 58.7288 153.461 57.8711C152.721 56.9276 151.681 56.6871 150.841 55.9138C150.65 55.7603 150.51 55.5531 150.438 55.3189C150.366 55.085 150.366 54.8345 150.438 54.6003C150.55 54.3868 150.706 54.2 150.897 54.0527C152.573 52.6012 154.565 51.5597 156.713 51.0113C160.112 50.1437 163.674 50.1437 167.073 51.0113C170.731 52.2886 173.824 54.8094 175.813 58.1338C178.654 62.9438 179.22 67.8907 177.4 72.7303C175.55 77.692 173.445 83.5195 176.508 88.4405C180.589 94.9784 183.035 99.5627 181.955 107.192Z" fill="#2563EB"/>
<path d="M151.881 91.046C150.954 91.2698 149.991 91.3028 149.05 91.1422C147.123 90.8129 144.666 89.5956 143.13 85.7809C142.818 85.0024 142.57 84.1991 142.39 83.3796C141.65 80.2531 141.425 75.9093 142.098 69.8857C142.228 68.7313 142.405 67.5584 142.638 66.3892C143.027 64.3534 143.614 62.361 144.392 60.4396C144.392 60.4396 144.392 60.4396 144.392 60.4174C146.327 55.7369 149.598 51.8371 154.941 50.4607C158.946 49.4354 163.165 49.6249 167.062 51.0046C170.72 52.2818 173.813 54.8026 175.801 58.1271C178.643 62.9371 179.209 67.884 177.389 72.7236C175.539 77.6853 173.433 83.5128 176.497 88.4338C180.567 94.9791 183.024 99.5634 181.962 107.193" stroke="#111827" stroke-width="1.6724" stroke-miterlimit="10"/>
<path d="M139.708 99.0943C138.379 91.5907 140.644 86.2183 142.383 83.3804" stroke="#111827" stroke-width="1.6724" stroke-miterlimit="10"/>
<path d="M142.635 66.385C142.635 66.385 146.146 62.9292 149.92 68.6716" stroke="#111827" stroke-width="1.6724" stroke-miterlimit="10"/>
<path d="M150.442 84.3165C151.744 85.4265 153.753 85.112 154.997 83.8318C156.343 82.4369 157.076 80.4352 157.587 78.5963C157.624 78.4668 157.657 78.3336 157.686 78.2004C155.581 80.7053 152.114 80.9125 149.099 80.7904C149.093 81.6992 149.313 82.5957 149.739 83.3989C149.913 83.7464 150.151 84.0579 150.442 84.3165Z" stroke="#111827" stroke-width="1.6724" stroke-linecap="round" stroke-linejoin="round"/>
<path d="M153.576 65.6225C153.576 65.6225 154.793 63.7725 158.704 65.2858C162.615 66.7991 162.596 69.045 162.596 69.045" stroke="#111827" stroke-width="1.6724" stroke-miterlimit="10"/>
<path d="M144.444 70.0077C144.444 70.0077 146.294 69.1419 147.704 70.1076" stroke="#111827" stroke-width="1.6724" stroke-miterlimit="10"/>
<path d="M154.268 71.1624C154.268 71.1624 156.118 70.2929 157.527 71.2586" stroke="#111827" stroke-width="1.6724" stroke-miterlimit="10"/>
<path d="M149.05 91.1419C149.05 91.1419 148.236 95.2859 147.411 99.0377C147.293 99.5705 147.182 100.096 147.071 100.614C146.527 103.141 146.087 105.387 146.05 106.071C145.757 111.751 151.034 115.199 156.228 115.303C163.514 115.443 167.98 108.795 167.502 101.983C167.088 100.732 166.67 99.478 166.259 98.2274C165.73 96.6216 165.027 95.0528 164.753 93.3693C164.517 91.7124 164.537 90.0289 164.812 88.378C165.182 85.9101 165.774 82.2323 167.917 80.6376C169.7 79.3204 171.554 78.4731 172.612 76.3604C173.37 74.8508 173.396 72.875 172.05 71.7058C170.57 70.4182 168.131 70.4959 166.292 70.6217C154.452 71.469 152.843 59.4514 149.698 57.6717C147.108 56.2102 145.062 59.2516 144.411 60.3838L144.385 60.4319C144.387 60.4367 144.388 60.4415 144.388 60.4467C144.388 60.4519 144.387 60.4567 144.385 60.4615C144.266 60.6724 144.207 60.7982 144.207 60.7982" stroke="#111827" stroke-width="1.6724" stroke-miterlimit="10"/>
<path d="M149.336 71.5403C149.336 71.5403 147.978 75.5437 148.055 76.1505C148.133 76.7573 149.587 76.3799 149.587 76.3799" stroke="#111827" stroke-width="1.6724" stroke-miterlimit="10"/>
<path d="M158.883 76.1044C160.831 74.2747 160.891 71.1734 159.017 69.1772C157.142 67.1811 154.043 67.046 152.095 68.876C150.146 70.7057 150.086 73.807 151.961 75.8032C153.835 77.799 156.934 77.934 158.883 76.1044Z" stroke="#111827" stroke-width="1.6724" stroke-miterlimit="10"/>
<path d="M146.587 74.2272C148.535 72.3976 148.595 69.2962 146.721 67.3001C144.846 65.3039 141.747 65.1689 139.799 66.9985C137.85 68.8282 137.79 71.9299 139.665 73.9257C141.54 75.9218 144.638 76.0569 146.587 74.2272Z" stroke="#111827" stroke-width="1.6724" stroke-miterlimit="10"/>
<path d="M143.082 67.1141C143.261 67.1149 143.438 67.1286 143.615 67.1548C144.538 67.2988 145.37 67.7953 145.934 68.5397C146.499 69.2846 146.752 70.2192 146.642 71.1471C146.55 71.9645 146.159 72.7193 145.545 73.2661C144.93 73.8126 144.134 74.1123 143.312 74.1071C143.133 74.1064 142.955 74.0927 142.779 74.0664C141.856 73.9207 141.025 73.4234 140.46 72.6782C139.896 71.933 139.642 70.9984 139.752 70.0704C139.849 69.2568 140.242 68.5072 140.856 67.9655C141.47 67.4235 142.263 67.1267 143.082 67.1326V67.1141ZM143.082 66.2964C142.058 66.2938 141.069 66.6653 140.301 67.3413C139.532 68.0173 139.037 68.9512 138.909 69.9668C138.829 70.5892 138.883 71.2219 139.068 71.8217C139.252 72.4218 139.562 72.9753 139.978 73.446C140.393 73.9166 140.904 74.2932 141.476 74.5508C142.048 74.8083 142.669 74.9407 143.297 74.9396C144.32 74.943 145.309 74.5722 146.078 73.897C146.847 73.2214 147.342 72.2882 147.47 71.2729C147.61 70.1285 147.298 68.9745 146.602 68.0554C145.906 67.1363 144.88 66.524 143.741 66.3482C143.523 66.3127 143.303 66.2953 143.082 66.2964Z" fill="white"/>
<path d="M150.627 71.7357L148.048 71.3435" stroke="#111827" stroke-width="1.6724" stroke-miterlimit="10"/>
<path d="M116.391 145.251V132.508H87.8525C87.7637 132.508 87.6823 132.508 87.5935 132.508L87.4307 132.526C87.4278 132.525 87.4248 132.524 87.4215 132.524C87.4181 132.524 87.4152 132.525 87.4122 132.526C87.3567 132.526 87.3049 132.549 87.2494 132.56C87.1987 132.567 87.1492 132.581 87.1014 132.6C87.0526 132.613 87.0052 132.632 86.9608 132.656C86.9386 132.656 86.9201 132.656 86.8979 132.674C86.8757 132.693 86.7832 132.722 86.7277 132.752C86.6582 132.785 86.5912 132.823 86.5279 132.867C86.4698 132.896 86.4151 132.932 86.3651 132.974C86.2796 133.031 86.2005 133.097 86.1283 133.17C86.0473 133.236 85.974 133.31 85.91 133.392C85.8449 133.47 85.7842 133.552 85.7287 133.636C85.6732 133.718 85.6236 133.803 85.5807 133.892C85.5323 133.98 85.4941 134.073 85.466 134.169C85.4327 134.263 85.4057 134.36 85.3846 134.458C85.348 134.624 85.328 134.794 85.3254 134.965L85.1811 142.631C85.1734 142.717 85.1734 142.804 85.1811 142.89C85.1734 142.928 85.1734 142.967 85.1811 143.005V143.038C85.1793 143.062 85.1793 143.087 85.1811 143.112C85.1874 143.158 85.1985 143.202 85.2144 143.245C85.2207 143.307 85.237 143.367 85.2625 143.423C85.3132 143.599 85.3828 143.769 85.4697 143.93C85.5489 144.071 85.6407 144.205 85.7435 144.329C85.7964 144.393 85.8534 144.454 85.9137 144.511C85.9714 144.568 86.0318 144.622 86.095 144.673L86.2097 144.766C86.2726 144.807 86.3318 144.847 86.4021 144.888C86.4839 144.939 86.5694 144.985 86.6574 145.025C86.7492 145.068 86.8446 145.104 86.9423 145.132C87.1821 145.207 87.4315 145.245 87.6823 145.247H93.1657L94.8492 144.57C95.9222 144.57 97.1247 144.007 98.2014 144.007L99.2781 145.388L116.391 145.251Z" fill="#D8EDFF"/>
<path d="M161.908 135.05V142.724C161.908 143.396 161.641 144.041 161.166 144.516C160.69 144.992 160.046 145.259 159.373 145.259H116.394V132.512H159.373C159.706 132.512 160.036 132.578 160.344 132.705C160.652 132.833 160.931 133.02 161.167 133.256C161.402 133.492 161.589 133.771 161.716 134.079C161.843 134.387 161.908 134.717 161.908 135.05Z" fill="#2563EB"/>
<path d="M116.391 145.251H120.712V171.21H94.5792C93.6379 171.254 92.6955 171.167 91.7783 170.951C91.6858 170.925 91.5896 170.892 91.4934 170.858L91.4416 170.836C90.7167 170.591 90.0996 170.102 89.6952 169.452C89.6978 169.445 89.6978 169.438 89.6952 169.43L89.6138 169.297C90.376 169.478 91.1493 169.626 91.9189 169.741C92.0702 169.774 92.2234 169.797 92.3777 169.811C92.7477 169.863 93.1177 169.904 93.5062 169.945C93.5539 169.952 93.6027 169.952 93.6505 169.945L94.2499 169.996C94.45 170.019 94.6513 170.03 94.853 170.03C94.8618 170.033 94.8711 170.036 94.8807 170.036C94.8903 170.036 94.8996 170.033 94.9085 170.03C95.1305 170.03 95.3488 170.052 95.5708 170.059C95.617 170.068 95.6647 170.068 95.7114 170.059C95.7761 170.07 95.8427 170.07 95.9075 170.059C96.3219 170.081 96.74 170.081 97.1581 170.059C97.7427 170.059 98.3236 170.033 98.8971 170C99.3488 169.976 99.7984 169.924 100.244 169.845C100.399 169.822 100.552 169.79 100.703 169.748C100.828 169.723 100.952 169.69 101.073 169.649L101.136 169.626C101.372 169.546 101.6 169.442 101.816 169.316C102.69 168.809 103.352 167.836 103.182 166.829C103.089 166.366 102.854 165.942 102.508 165.619C102.479 165.593 102.453 165.564 102.419 165.538L102.394 165.519C102.217 165.364 102.024 165.23 101.816 165.12C101.213 164.817 100.567 164.607 99.8998 164.498L99.6556 164.45C99.7777 164.469 99.9035 164.483 100.026 164.506H100.107C101.071 164.672 102.055 164.697 103.026 164.58L103.211 164.561L103.285 164.539C103.809 164.446 104.307 164.243 104.747 163.944C105.187 163.645 105.559 163.256 105.838 162.804C105.889 162.71 105.932 162.612 105.968 162.511C105.99 162.471 106.008 162.429 106.023 162.385C106.109 162.114 106.148 161.83 106.138 161.546C106.138 161.444 106.131 161.343 106.116 161.242C106.07 160.881 105.953 160.534 105.77 160.219C105.588 159.904 105.344 159.63 105.054 159.411C104.957 159.335 104.853 159.269 104.743 159.215C104.322 159.009 103.867 158.883 103.4 158.845H103.311C103.063 158.815 102.797 158.804 102.549 158.789C100.614 158.689 98.6862 158.578 96.7548 158.478H96.5439L93.6986 158.33L91.9818 158.234H91.8671L90.339 158.153C90.5092 158.153 90.6794 158.171 90.8459 158.186H90.9902L91.5785 158.219C93.2324 158.319 94.89 158.415 96.5439 158.475H96.7548C96.7548 158.475 96.7548 158.475 96.7881 158.475C97.1211 158.475 97.4578 158.497 97.7908 158.508H97.8648C98.7232 158.53 99.5742 158.541 100.433 158.541C101.309 158.587 102.186 158.476 103.023 158.212C103.418 158.066 103.779 157.84 104.084 157.55C104.126 157.517 104.162 157.478 104.192 157.435C104.482 157.147 104.683 156.78 104.769 156.38C104.852 155.924 104.79 155.453 104.591 155.034C104.574 154.979 104.549 154.927 104.517 154.878C104.333 154.53 104.082 154.222 103.777 153.972C103.043 153.425 102.187 153.063 101.284 152.917C100.762 152.81 100.244 152.721 99.7148 152.662C99.704 152.658 99.6922 152.658 99.6815 152.662C98.9837 152.582 98.2821 152.539 97.5799 152.532H97.3912C97.0212 152.532 96.6142 152.532 96.2257 152.532C94.3757 152.588 92.5701 152.932 90.7386 152.902C90.7201 152.846 90.7201 152.785 90.7386 152.728C90.7582 152.688 90.7819 152.65 90.8089 152.614C90.8792 152.536 90.9665 152.475 91.0642 152.436C91.6576 152.249 92.2604 152.092 92.8698 151.966C93.4895 151.774 94.093 151.534 94.6754 151.248C94.8715 151.152 95.0676 151.045 95.2637 150.945C95.2785 150.937 95.2918 150.927 95.3044 150.915C96.0514 150.499 96.7511 150.003 97.3912 149.435L97.554 149.295C97.6539 149.206 97.7575 149.117 97.85 149.025C98.3842 148.549 98.8149 147.968 99.1154 147.319C99.1842 147.153 99.2364 146.981 99.2708 146.805C99.2856 146.75 99.2967 146.694 99.3041 146.638C99.3192 146.542 99.3266 146.444 99.3263 146.346C99.3263 146.253 99.2819 145.451 99.2671 145.358" fill="#D8EDFF"/>
<path d="M156.968 145.251V166.781C156.969 166.942 156.96 167.103 156.943 167.262L148.74 168.957C146.294 169.471 145.258 169.064 144.74 167.81C142.834 163.225 137.762 163.37 137.762 163.37L133.755 163.351C133.111 163.351 132.478 163.27 131.842 163.229C131.445 163.205 131.047 163.263 130.673 163.398C130.299 163.533 129.956 163.743 129.666 164.015C129.375 164.286 129.143 164.614 128.983 164.979C128.824 165.343 128.74 165.736 128.737 166.134C128.738 166.741 128.928 167.333 129.281 167.828C129.633 168.323 130.132 168.695 130.706 168.894L133.788 169.508C133.912 169.532 134.028 169.585 134.128 169.661C134.228 169.738 134.309 169.837 134.364 169.95C134.42 170.064 134.448 170.189 134.447 170.315C134.445 170.441 134.415 170.565 134.358 170.677C134.174 170.908 133.936 171.089 133.666 171.206H120.716V145.251H156.968Z" fill="#2563EB"/>
<path d="M111.936 132.508H116.391H120.712" stroke="#111827" stroke-width="1.6724" stroke-miterlimit="10"/>
<path d="M99.1077 145.257H159.37C159.71 145.26 160.046 145.19 160.358 145.054C160.659 144.926 160.932 144.74 161.16 144.506C161.396 144.272 161.583 143.992 161.709 143.685C161.836 143.378 161.902 143.048 161.9 142.716V135.049C161.9 134.717 161.835 134.387 161.708 134.079C161.58 133.772 161.394 133.493 161.158 133.257C160.923 133.022 160.644 132.835 160.336 132.708C160.028 132.581 159.699 132.515 159.366 132.515H87.8523C87.7635 132.515 87.6821 132.515 87.5933 132.515L87.4305 132.533C87.1856 132.575 86.9484 132.653 86.7275 132.766C86.6609 132.8 86.5943 132.84 86.5277 132.881C86.4696 132.911 86.4152 132.947 86.3649 132.988C86.2813 133.048 86.2021 133.113 86.1281 133.184C86.0508 133.254 85.9779 133.328 85.9098 133.406C85.8447 133.484 85.784 133.566 85.7285 133.651C85.673 133.732 85.6286 133.821 85.5805 133.906C85.5324 133.991 85.4991 134.091 85.4658 134.183C85.4325 134.278 85.4055 134.374 85.3844 134.472C85.3478 134.639 85.3278 134.809 85.3252 134.979L85.1883 142.653V142.775C85.1846 142.818 85.1846 142.861 85.1883 142.904C85.1883 142.956 85.1883 143.004 85.1883 143.052C85.1865 143.077 85.1865 143.102 85.1883 143.126C85.1883 143.167 85.2105 143.219 85.2216 143.259C85.2327 143.3 85.2512 143.382 85.2697 143.437C85.3189 143.608 85.3859 143.773 85.4695 143.929C85.5487 144.07 85.6405 144.204 85.7433 144.329C85.7988 144.388 85.8543 144.451 85.9135 144.51C85.9712 144.567 86.0316 144.622 86.0948 144.673L86.2095 144.765C86.2724 144.806 86.3316 144.847 86.4019 144.887C86.4848 144.938 86.5699 144.983 86.6572 145.024C86.7494 145.068 86.8444 145.104 86.9421 145.132C87.1878 145.213 87.4453 145.254 87.7043 145.254H93.1396" stroke="#111827" stroke-width="1.6724" stroke-miterlimit="10"/>
<path d="M89.5767 169.282C89.61 169.327 89.6433 169.375 89.684 169.423C89.8053 169.592 89.94 169.75 90.0873 169.897C90.1838 169.999 90.2878 170.094 90.3981 170.182C90.5091 170.267 90.6238 170.355 90.7385 170.429C90.8532 170.517 90.9775 170.591 91.1085 170.651C91.2195 170.714 91.3268 170.766 91.4415 170.822L91.4933 170.844C91.6239 170.906 91.76 170.956 91.9003 170.992C92.0212 171.031 92.1448 171.062 92.2703 171.084C92.3209 171.101 92.3727 171.112 92.4257 171.118C92.5415 171.144 92.6588 171.162 92.7772 171.173C92.9244 171.193 93.0728 171.202 93.2212 171.199H133.647C133.918 171.082 134.156 170.9 134.339 170.67C134.396 170.557 134.426 170.433 134.427 170.308C134.427 170.181 134.399 170.057 134.344 169.944C134.289 169.831 134.208 169.732 134.109 169.655C134.009 169.578 133.893 169.525 133.769 169.501L130.687 168.887C130.113 168.688 129.615 168.316 129.262 167.821C128.91 167.326 128.72 166.734 128.719 166.126C128.722 165.729 128.806 165.336 128.965 164.971C129.125 164.607 129.357 164.279 129.647 164.007C129.938 163.735 130.28 163.526 130.654 163.391C131.028 163.255 131.426 163.198 131.823 163.222C132.46 163.263 133.092 163.337 133.736 163.344L137.743 163.362C137.743 163.362 142.816 163.214 144.721 167.802C145.239 169.057 146.275 169.464 148.721 168.949L156.943 167.255C156.96 167.095 156.969 166.934 156.968 166.774V145.258H116.391" stroke="#111827" stroke-width="1.6724" stroke-miterlimit="10"/>
<path d="M159.196 112.558V117.504C159.196 117.938 159.024 118.354 158.717 118.661C158.41 118.967 157.994 119.14 157.561 119.14H119.01V110.922H157.561C157.994 110.922 158.41 111.095 158.717 111.401C159.024 111.708 159.196 112.124 159.196 112.558Z" fill="#2563EB"/>
<path d="M119.011 110.922V119.14H100.511C100.294 119.139 100.079 119.096 99.8793 119.012C99.6792 118.928 99.4982 118.805 99.3458 118.651C99.1937 118.496 99.0738 118.313 98.9932 118.112C98.9122 117.911 98.8722 117.695 98.8752 117.479L98.9639 112.524C98.9717 112.096 99.1475 111.688 99.4535 111.388C99.7594 111.089 100.171 110.921 100.599 110.922H119.011Z" fill="#D8EDFF"/>
<path d="M156.01 119.14V129.652C156.008 130.41 155.706 131.136 155.17 131.672C154.634 132.208 153.908 132.51 153.15 132.512H121.8V119.14H156.01Z" fill="#2563EB"/>
<path d="M121.8 119.14V132.512H104.062C103.304 132.511 102.577 132.209 102.041 131.673C101.505 131.137 101.203 130.41 101.202 129.652V119.14H121.8Z" fill="#D8EDFF"/>
<path d="M116.391 132.512V145.255" stroke="#111827" stroke-width="1.6724" stroke-miterlimit="10"/>
<path d="M120.712 145.254V171.213" stroke="#111827" stroke-width="1.6724" stroke-miterlimit="10"/>
<path d="M159.196 112.558V117.504C159.196 117.938 159.024 118.354 158.717 118.661C158.41 118.967 157.994 119.14 157.561 119.14H119.01V110.922H157.561C157.994 110.922 158.41 111.095 158.717 111.401C159.024 111.708 159.196 112.124 159.196 112.558Z" stroke="#111827" stroke-width="1.6724" stroke-miterlimit="10"/>
<path d="M119.011 110.922V119.14H100.511C100.294 119.139 100.079 119.096 99.8793 119.012C99.6792 118.928 99.4982 118.805 99.3458 118.651C99.1937 118.496 99.0738 118.313 98.9932 118.112C98.9122 117.911 98.8722 117.695 98.8752 117.479L98.9639 112.524C98.9717 112.096 99.1475 111.688 99.4535 111.388C99.7594 111.089 100.171 110.921 100.599 110.922H119.011Z" stroke="#111827" stroke-width="1.6724" stroke-miterlimit="10"/>
<path d="M156.01 119.14V129.652C156.008 130.41 155.706 131.136 155.17 131.672C154.634 132.208 153.908 132.51 153.15 132.512H121.8V119.14H156.01Z" stroke="#111827" stroke-width="1.6724" stroke-miterlimit="10"/>
<path d="M121.8 119.14V132.512H104.062C103.304 132.511 102.577 132.209 102.041 131.673C101.505 131.137 101.203 130.41 101.202 129.652V119.14H121.8Z" stroke="#111827" stroke-width="1.6724" stroke-miterlimit="10"/>
<path d="M139.534 87.7484V92.6953C139.536 92.9118 139.496 93.1264 139.415 93.3269C139.334 93.5275 139.213 93.7099 139.061 93.8638C138.909 94.0177 138.728 94.1398 138.529 94.2231C138.329 94.3063 138.115 94.3492 137.898 94.3492H110.148V86.113H137.898C138.332 86.113 138.748 86.2855 139.055 86.5922C139.361 86.8989 139.534 87.3148 139.534 87.7484Z" fill="#2563EB"/>
<path d="M110.164 86.1099H92.7109V94.3313H110.164V86.1099Z" fill="#D8EDFF"/>
<path d="M136.352 94.3501V108.24C136.35 108.998 136.048 109.724 135.512 110.26C134.976 110.796 134.25 111.098 133.492 111.1H112.957V94.3501H136.352Z" fill="#2563EB"/>
<path d="M112.957 94.3501V111.1H95.2191C95.1429 111.108 95.066 111.108 94.9897 111.1V94.3501H112.957Z" fill="#D8EDFF"/>
<path d="M139.534 87.7484V92.6953C139.536 92.9118 139.496 93.1264 139.415 93.3269C139.334 93.5275 139.213 93.7099 139.061 93.8638C138.909 94.0177 138.728 94.1398 138.529 94.2231C138.329 94.3063 138.115 94.3492 137.898 94.3492H110.148V86.113H137.898C138.332 86.113 138.748 86.2855 139.055 86.5922C139.361 86.8989 139.534 87.3148 139.534 87.7484Z" stroke="#111827" stroke-width="1.6724" stroke-miterlimit="10"/>
<path d="M110.163 86.113V94.3492H91.6634C91.4466 94.3492 91.2316 94.3063 91.0315 94.2223C90.8313 94.1387 90.65 94.0159 90.4976 93.8612C90.3455 93.7065 90.2256 93.5234 90.1449 93.3217C90.0643 93.1205 90.0247 92.9051 90.028 92.6879L90.1168 87.7299C90.1246 87.3022 90.3003 86.8945 90.6067 86.5955C90.9127 86.2962 91.3241 86.1297 91.7522 86.1315L110.163 86.113Z" stroke="#111827" stroke-width="1.6724" stroke-miterlimit="10"/>
<path d="M136.352 94.3501V108.24C136.35 108.998 136.048 109.724 135.512 110.26C134.976 110.796 134.25 111.098 133.492 111.1H112.957V94.3501H136.352Z" stroke="#111827" stroke-width="1.6724" stroke-miterlimit="10"/>
<path d="M112.957 94.3501V111.1H95.2195C94.4613 111.099 93.7343 110.797 93.1982 110.261C92.662 109.725 92.3605 108.998 92.3594 108.24V94.3501H112.957Z" stroke="#111827" stroke-width="1.6724" stroke-miterlimit="10"/>
<path d="M133.403 70.7253V73.9739C133.403 74.1153 133.375 74.2552 133.321 74.3854C133.267 74.516 133.187 74.6344 133.087 74.7339C132.988 74.8338 132.869 74.9126 132.738 74.9663C132.608 75.0199 132.468 75.0473 132.326 75.0469H114.119V69.6523H132.326C132.468 69.652 132.608 69.6794 132.738 69.733C132.869 69.7867 132.988 69.8655 133.087 69.9654C133.187 70.0649 133.267 70.1833 133.321 70.3139C133.375 70.4441 133.403 70.584 133.403 70.7253Z" fill="#2563EB"/>
<path d="M114.119 69.6523H102.656V75.0469H114.119V69.6523Z" fill="#D8EDFF"/>
<path d="M131.313 75.0464V84.1669C131.311 84.6645 131.112 85.1411 130.76 85.4926C130.408 85.8441 129.931 86.0417 129.433 86.0428H115.954V75.0464H131.313Z" fill="#2563EB"/>
<path d="M115.954 75.0435H104.333V86.0399H115.954V75.0435Z" fill="#D8EDFF"/>
<path d="M133.403 70.7253V73.9739C133.403 74.1153 133.375 74.2552 133.321 74.3854C133.267 74.516 133.187 74.6344 133.087 74.7339C132.988 74.8338 132.869 74.9126 132.738 74.9663C132.608 75.0199 132.468 75.0473 132.326 75.0469H114.119V69.6523H132.326C132.468 69.652 132.608 69.6794 132.738 69.733C132.869 69.7867 132.988 69.8655 133.087 69.9654C133.187 70.0649 133.267 70.1833 133.321 70.3139C133.375 70.4441 133.403 70.584 133.403 70.7253Z" stroke="#111827" stroke-width="1.6724" stroke-miterlimit="10"/>
<path d="M114.119 69.652V75.0466H101.972C101.828 75.0463 101.686 75.017 101.553 74.9608C101.421 74.9042 101.301 74.8217 101.201 74.7185C101.101 74.6149 101.023 74.4924 100.971 74.3581C100.919 74.2238 100.895 74.0806 100.899 73.9366L100.958 70.6843C100.964 70.4039 101.08 70.1364 101.28 69.9399C101.481 69.7434 101.75 69.6335 102.031 69.6335L114.119 69.652Z" stroke="#111827" stroke-width="1.6724" stroke-miterlimit="10"/>
<path d="M131.313 75.0464V84.1669C131.311 84.6645 131.112 85.1411 130.76 85.4926C130.408 85.8441 129.931 86.0417 129.433 86.0428H115.954V75.0464H131.313Z" stroke="#111827" stroke-width="1.6724" stroke-miterlimit="10"/>
<path d="M115.954 75.0464V86.0428H104.307C103.809 86.0417 103.333 85.8437 102.981 85.4922C102.63 85.1407 102.432 84.6642 102.431 84.1669V75.0464H115.954Z" stroke="#111827" stroke-width="1.6724" stroke-miterlimit="10"/>
<path d="M130.206 56.8542V59.57C130.205 59.8083 130.111 60.0366 129.942 60.2049C129.774 60.3733 129.546 60.4683 129.307 60.4691H114.097V55.9551H129.307C129.425 55.9551 129.542 55.9784 129.651 56.0235C129.761 56.069 129.86 56.1353 129.943 56.2185C130.027 56.3021 130.093 56.4013 130.138 56.5105C130.183 56.6192 130.206 56.7362 130.206 56.8542Z" fill="#2563EB"/>
<path d="M114.1 55.9551H104.88V60.4654H114.1V55.9551Z" fill="#D8EDFF"/>
<path d="M128.46 60.4661V68.0807C128.458 68.4962 128.292 68.8939 127.998 69.1877C127.704 69.4815 127.307 69.6476 126.891 69.6495H115.628V60.4661H128.46Z" fill="#2563EB"/>
<path d="M115.628 60.4661V69.6532H105.901C105.661 69.6543 105.425 69.5995 105.21 69.4937C104.995 69.3875 104.807 69.2332 104.662 69.0427H106.23V60.4661H115.628Z" fill="#D8EDFF"/>
<path d="M130.206 56.8542V59.57C130.205 59.8083 130.111 60.0366 129.942 60.2049C129.774 60.3733 129.546 60.4683 129.307 60.4691H114.097V55.9551H129.307C129.425 55.9551 129.542 55.9784 129.651 56.0235C129.761 56.069 129.86 56.1353 129.943 56.2185C130.027 56.3021 130.093 56.4013 130.138 56.5105C130.183 56.6192 130.206 56.7362 130.206 56.8542Z" stroke="#111827" stroke-width="1.6724" stroke-miterlimit="10"/>
<path d="M114.097 55.9551V60.4654H103.948C103.829 60.465 103.711 60.441 103.601 60.3947C103.492 60.3485 103.392 60.2807 103.309 60.1956C103.226 60.1105 103.16 60.0099 103.116 59.8993C103.072 59.789 103.051 59.6706 103.052 59.5515L103.1 56.8357C103.104 56.6011 103.2 56.3769 103.368 56.2122C103.535 56.0476 103.761 55.9551 103.996 55.9551H114.097Z" stroke="#111827" stroke-width="1.6724" stroke-miterlimit="10"/>
<path d="M128.46 60.4661V68.0807C128.458 68.4962 128.292 68.8939 127.998 69.1877C127.704 69.4815 127.307 69.6476 126.891 69.6495H115.628V60.4661H128.46Z" stroke="#111827" stroke-width="1.6724" stroke-miterlimit="10"/>
<path d="M115.629 60.4661V69.6532H105.898C105.483 69.6491 105.087 69.4819 104.795 69.1873C104.503 68.8928 104.34 68.4951 104.34 68.0807V60.4661H115.629Z" stroke="#111827" stroke-width="1.6724" stroke-miterlimit="10"/>
<path d="M111.207 342.398C106.945 342.76 102.681 343.119 98.4161 343.474C97.4067 343.553 96.4647 344.01 95.7791 344.755C95.0935 345.5 94.715 346.477 94.7198 347.489C94.7198 348.016 94.8237 348.539 95.0258 349.025C95.2278 349.513 95.5238 349.955 95.8971 350.327C96.2704 350.7 96.7133 350.995 97.201 351.197C97.6883 351.398 98.2107 351.501 98.738 351.5L132.83 351.463C132.965 351.463 133.098 351.431 133.218 351.371C133.339 351.311 133.444 351.224 133.526 351.116C133.607 351.009 133.662 350.884 133.687 350.752C133.712 350.619 133.706 350.483 133.67 350.353C125.697 321.252 121.356 291.276 120.746 261.109" stroke="#111827" stroke-width="1.6724" stroke-miterlimit="10"/>
<path d="M175.417 163.232V163.225" stroke="#111827" stroke-width="1.6724" stroke-miterlimit="10"/>
<path d="M167.528 204.181C167.081 206.134 166.622 208.084 166.137 210.03C166.008 210.556 165.871 211.085 165.738 211.603C160.598 231.709 152.936 251.885 156.787 272.231C162.06 300.07 179.953 329.67 193.14 350.301C193.443 350.782 188.992 351.504 188.422 351.5C178.236 351.411 164.291 351.326 153.513 351.237C152.496 351.229 151.524 350.821 150.807 350.1C150.09 349.38 149.686 348.406 149.683 347.389V347.323C149.68 346.408 150.001 345.521 150.591 344.822C151.181 344.122 152 343.655 152.902 343.504C156.932 342.834 162.559 342.165 165.086 341.499L160.069 335.771C151.33 325.263 141.71 314.5 135.313 302.327C125.282 283.202 119.536 261.96 117.83 240.448C116.898 228.76 117.634 216.997 120.42 205.609" stroke="#111827" stroke-width="1.6724" stroke-miterlimit="10"/>
<path d="M136.352 100.74C137.953 99.9297 139.609 99.2312 141.306 98.6491C143.036 98.0538 144.809 97.5887 146.608 97.258C146.608 97.258 146.627 97.258 146.642 97.258L147.078 97.1765C147.223 97.1506 147.363 97.1285 147.508 97.11C147.652 97.0915 147.73 97.0692 147.837 97.0544" stroke="#111827" stroke-width="1.6724" stroke-miterlimit="10"/>
<path d="M98.1866 171.213C97.2272 174.884 96.3118 178.568 95.4412 182.265C94.2472 187.364 93.1546 192.481 92.163 197.616C87.353 222.732 85.2884 248.606 88.8848 274.021C90.6023 286.21 93.4032 298.221 97.2542 309.911C99.1808 315.75 101.366 321.494 103.811 327.142C104.506 328.737 109.849 342.405 111.192 342.405" stroke="#111827" stroke-width="1.6724" stroke-miterlimit="10"/>
<path d="M161.612 186.285C161.689 186.29 161.766 186.301 161.841 186.318L162.211 186.37C165.079 186.818 168.017 187.202 170.965 187.48C191.475 189.426 212.113 186.351 210.3 165.195C209.19 151.952 204.75 144.319 199.418 132.468C199.011 131.57 198.603 130.679 198.194 129.793C194.035 120.836 189.34 112.403 181.052 106.676C180.471 106.269 179.882 105.884 179.268 105.51C175.331 103.142 171.16 101.188 166.821 99.6789L166.759 99.6604" stroke="#111827" stroke-width="1.6724" stroke-miterlimit="10"/>
<path d="M169.408 136.992L178.906 155.23C179.406 156.174 179.618 157.243 179.518 158.306C179.417 159.369 179.008 160.379 178.34 161.213C176.745 163.233 174.292 163.584 171.924 164.173L156.939 167.262L148.74 168.957C146.294 169.471 145.258 169.064 144.74 167.81C142.835 163.225 137.762 163.37 137.762 163.37L133.755 163.351C133.111 163.351 132.478 163.27 131.842 163.229C131.445 163.205 131.047 163.263 130.673 163.398C130.299 163.533 129.956 163.743 129.666 164.015C129.375 164.286 129.143 164.614 128.984 164.978C128.824 165.343 128.741 165.736 128.738 166.134C128.738 166.741 128.928 167.334 129.281 167.828C129.634 168.323 130.132 168.696 130.706 168.894L133.788 169.508C133.912 169.533 134.027 169.586 134.127 169.663C134.227 169.74 134.307 169.838 134.362 169.952C134.417 170.065 134.446 170.189 134.445 170.315C134.444 170.441 134.415 170.565 134.358 170.677C134.174 170.908 133.936 171.089 133.666 171.206H112.902C112.668 171.227 112.443 171.3 112.242 171.418C112.04 171.537 111.867 171.7 111.736 171.893C111.605 172.087 111.519 172.307 111.484 172.539C111.449 172.77 111.465 173.006 111.533 173.23C111.903 174.825 113.734 175.717 115.162 176.127C125.707 179.184 136.293 181.644 147.086 183.661C152.115 184.6 157.156 185.501 162.208 186.362" stroke="#111827" stroke-width="1.6724" stroke-miterlimit="10"/>
<path d="M93.1509 145.258C89.8801 146.738 86.7018 146.672 85.1811 150.039C83.6249 153.681 82.9152 157.63 83.1054 161.586C83.394 166.426 86.5945 169.046 91.6154 169.693C93.6793 170.04 95.7742 170.164 97.8647 170.063C99.1153 169.997 100.455 170.004 101.605 169.475C103.133 168.787 103.896 166.77 102.416 165.568C101.646 164.939 100.592 164.709 99.6185 164.513C100.699 164.569 101.728 164.609 102.579 164.628C104.336 164.676 106.116 163.466 106.116 161.579C106.116 159.551 104.451 158.896 102.723 158.808L90.3056 158.168L98.5048 158.563C100.403 158.66 103.877 158.989 104.621 156.643C104.778 156.14 104.77 155.599 104.598 155.101C104.426 154.603 104.1 154.172 103.666 153.872C102.186 152.84 100.181 152.692 98.4493 152.595C95.9248 152.398 93.3866 152.463 90.8754 152.788C91.1085 152.725 90.4499 152.788 90.6645 152.725C92.6884 152.088 93.717 151.985 95.4745 150.83" stroke="#111827" stroke-width="1.6724" stroke-miterlimit="10"/>
<path d="M93.1509 145.259C93.4802 145.111 93.8909 144.914 94.3275 144.726C94.4533 144.67 94.5902 144.618 94.7234 144.563C94.8566 144.507 94.9824 144.463 95.1156 144.415L95.5078 144.285L95.7039 144.226C95.7853 144.197 95.8741 144.178 95.9555 144.156L96.0961 144.13C96.2548 144.09 96.4154 144.058 96.5771 144.034C96.822 143.999 97.0703 143.991 97.3171 144.008L97.4873 144.03C97.5287 144.029 97.5702 144.036 97.6094 144.049C97.6908 144.049 97.7722 144.082 97.8499 144.104C97.9416 144.128 98.0312 144.162 98.1163 144.204C98.2576 144.27 98.3893 144.355 98.5085 144.456C98.5477 144.485 98.5836 144.519 98.6158 144.556C98.7327 144.675 98.837 144.806 98.9266 144.948C98.9266 144.948 100.995 147.76 95.3043 150.949" stroke="#111827" stroke-width="1.6724" stroke-miterlimit="10"/>
<path d="M99.763 164.55C99.763 164.55 93.4915 163.917 92.5591 163.851" stroke="#111827" stroke-width="1.6724" stroke-miterlimit="10"/>
<path d="M94.5977 185.944C94.5977 185.944 146.15 182.559 167.528 204.182C168.612 205.073 172.22 209.495 165.738 211.607" stroke="#111827" stroke-width="1.6724" stroke-miterlimit="10"/>
<path d="M177.626 187.96C177.626 187.96 173.326 204.24 169.027 209.494" stroke="#111827" stroke-width="1.6724" stroke-miterlimit="10"/>
<path d="M167.007 203.663C167.007 203.663 171.551 206.335 168.295 210.305L165.545 211.607L167.477 204.403L167.007 203.663Z" fill="#111827"/>
<path d="M182.454 194.753C184.589 172.398 179.187 165.434 175.091 163.303L175.417 163.214C189.803 161.275 192.807 188.8 193.31 195.186L182.454 194.753Z" fill="#D8EDFF"/>
<path d="M182.221 196.511C184.356 174.156 179.187 165.431 175.091 163.315L175.417 163.226C189.803 161.287 192.899 190.121 193.399 196.526L182.221 196.511Z" fill="#D8EDFF"/>
<path d="M161.712 196.714H150.046V264.561H161.712V196.714Z" fill="white"/>
<path d="M175.417 163.225C191.697 161.035 193.399 196.525 193.399 196.525H182.221C184.108 161.823 169.471 164.705 169.471 164.705C169.967 164.628 175.417 163.225 175.417 163.225Z" stroke="#111827" stroke-width="1.6724" stroke-miterlimit="10"/>
<path d="M219.133 199.722H164.783V264.357H219.133V199.722Z" fill="#2563EB"/>
<path d="M219.132 196.3H161.908V264.357H219.132V196.3Z" fill="white"/>
<path d="M219.828 199.059V261.823C219.828 263.602 218.089 265.045 215.939 265.045H153.435C151.286 265.045 149.543 263.602 149.543 261.823V199.059C149.543 197.28 151.286 195.837 153.435 195.837H215.939C218.089 195.822 219.828 197.265 219.828 199.059Z" fill="#2563EB"/>
<path d="M216.487 202.049V259.225C216.49 259.608 216.417 259.987 216.274 260.341C216.13 260.696 215.918 261.018 215.65 261.291C215.381 261.563 215.062 261.78 214.71 261.929C214.358 262.078 213.98 262.156 213.597 262.159H167.188C166.806 262.156 166.428 262.078 166.076 261.929C165.723 261.78 165.404 261.563 165.136 261.291C164.867 261.018 164.655 260.696 164.512 260.341C164.368 259.987 164.295 259.608 164.298 259.225V202.049C164.295 201.667 164.368 201.287 164.512 200.933C164.655 200.578 164.867 200.256 165.136 199.983C165.404 199.711 165.723 199.494 166.076 199.345C166.428 199.196 166.806 199.118 167.188 199.115H213.597C213.98 199.118 214.358 199.196 214.71 199.345C215.062 199.494 215.381 199.711 215.65 199.983C215.918 200.256 216.13 200.578 216.274 200.933C216.417 201.287 216.49 201.667 216.487 202.049Z" fill="#2563EB"/>
<path d="M219.132 196.51H161.904V264.357H219.132V196.51Z" stroke="#111827" stroke-width="1.6724" stroke-miterlimit="10"/>
<path d="M161.667 196.51H150.242V264.357H161.667V196.51Z" stroke="#111827" stroke-width="1.6724" stroke-miterlimit="10"/>
<path d="M150.242 264.358L155.88 256.258L161.667 264.358" stroke="#111827" stroke-width="1.6724" stroke-miterlimit="10"/>
<path d="M155.955 196.51L155.881 256.258" stroke="#111827" stroke-width="1.6724" stroke-miterlimit="10"/>
<path d="M172.982 187.479V196.51" stroke="#111827" stroke-width="1.6724" stroke-miterlimit="10"/>
<path d="M182.347 187.961C182.347 187.961 173.737 187.813 172.165 187.365C172.165 187.365 172.982 186.355 172.982 189.988C172.982 193.622 172.66 196.497 173.426 196.497C174.192 196.497 181.836 196.286 181.836 196.286C181.836 196.286 182.447 195.738 182.332 194.066C182.217 192.393 182.347 187.961 182.347 187.961Z" fill="#111827"/>
<path d="M64.1431 351.481H305.857" stroke="#111827" stroke-width="1.6724" stroke-miterlimit="10"/>
<path d="M227.269 68.9823C229.676 68.9823 231.627 67.031 231.627 64.6237C231.627 62.2165 229.676 60.2651 227.269 60.2651C224.862 60.2651 222.91 62.2165 222.91 64.6237C222.91 67.031 224.862 68.9823 227.269 68.9823Z" fill="#D8EDFF"/>
<path d="M216.231 82.3806C216.231 79.4535 217.394 76.6463 219.464 74.5762C221.534 72.5064 224.341 71.3435 227.269 71.3435C230.196 71.3435 233.003 72.5064 235.073 74.5762C237.143 76.6463 238.306 79.4535 238.306 82.3806H216.231Z" fill="#D8EDFF"/>
<path d="M238.657 56.4956H215.88C213.98 56.4956 212.439 58.0363 212.439 59.9366V82.7138C212.439 84.6145 213.98 86.1548 215.88 86.1548H238.657C240.558 86.1548 242.098 84.6145 242.098 82.7138V59.9366C242.098 58.0363 240.558 56.4956 238.657 56.4956Z" stroke="#2563EB" stroke-width="1.6724" stroke-miterlimit="10"/>
<path d="M228.345 280.276L231.572 286.814C231.659 286.988 231.786 287.138 231.944 287.253C232.102 287.367 232.286 287.441 232.478 287.468L239.69 288.516C239.911 288.548 240.12 288.642 240.291 288.786C240.462 288.931 240.589 289.121 240.659 289.334C240.728 289.547 240.736 289.775 240.683 289.993C240.629 290.21 240.516 290.409 240.356 290.565L235.135 295.653C234.996 295.789 234.892 295.958 234.832 296.143C234.772 296.329 234.758 296.526 234.791 296.718L236.023 303.9C236.061 304.121 236.036 304.348 235.952 304.556C235.868 304.764 235.727 304.944 235.546 305.076C235.364 305.208 235.15 305.287 234.926 305.303C234.703 305.32 234.479 305.273 234.28 305.169L227.827 301.776C227.656 301.686 227.466 301.639 227.272 301.639C227.079 301.639 226.889 301.686 226.717 301.776L220.265 305.169C220.066 305.273 219.842 305.32 219.619 305.303C219.395 305.287 219.181 305.208 218.999 305.076C218.818 304.944 218.677 304.764 218.593 304.556C218.509 304.348 218.484 304.121 218.522 303.9L219.754 296.718C219.788 296.526 219.774 296.328 219.714 296.143C219.654 295.957 219.55 295.789 219.41 295.653L214.189 290.565C214.029 290.409 213.916 290.21 213.862 289.993C213.808 289.775 213.817 289.547 213.886 289.334C213.955 289.121 214.083 288.931 214.254 288.786C214.425 288.642 214.634 288.548 214.855 288.516L222.07 287.468C222.263 287.441 222.445 287.367 222.603 287.253C222.76 287.138 222.887 286.988 222.973 286.814L226.199 280.276C226.3 280.077 226.453 279.91 226.643 279.794C226.832 279.677 227.05 279.616 227.272 279.616C227.495 279.616 227.713 279.677 227.902 279.794C228.092 279.91 228.245 280.077 228.345 280.276Z" fill="#D8EDFF"/>
<path d="M179.542 296.702H204.044" stroke="#2563EB" stroke-width="1.6724" stroke-miterlimit="10"/>
</svg>
