<svg width="400" height="400" viewBox="0 0 400 400" fill="none" xmlns="http://www.w3.org/2000/svg">
<mask id="mask0_180_1944" style="mask-type:luminance" maskUnits="userSpaceOnUse" x="0" y="0" width="400" height="400">
<path d="M400 0H0V400H400V0Z" fill="white"/>
</mask>
<g mask="url(#mask0_180_1944)">
<path d="M374.428 377.792L372.392 383.328" stroke="#D8EDFF" stroke-width="1.476" stroke-miterlimit="10"/>
<path d="M368.033 395.192L353.309 435.224" stroke="#D8EDFF" stroke-width="1.476" stroke-miterlimit="10" stroke-dasharray="11.58 12.64 12.64 11.58"/>
<path d="M370.612 343.269L368.596 348.813" stroke="#D8EDFF" stroke-width="1.476" stroke-miterlimit="10"/>
<path d="M364.512 360.056L350.732 398" stroke="#D8EDFF" stroke-width="1.476" stroke-miterlimit="10" stroke-dasharray="10.96 11.96 11.96 10.96"/>
<path d="M371.14 302.224L369.128 307.768" stroke="#D8EDFF" stroke-width="1.476" stroke-miterlimit="10"/>
<path d="M364.972 319.248L350.932 357.984" stroke="#D8EDFF" stroke-width="1.476" stroke-miterlimit="10" stroke-dasharray="11.19 12.21 12.21 11.19"/>
<path d="M349.024 363.248L205.344 759.72" stroke="#D8EDFF" stroke-width="1.476" stroke-miterlimit="10" stroke-dasharray="12.21 12.21 11.19 12.21 12.21 11.19"/>
<path d="M367.32 267.697L365.304 273.241" stroke="#D8EDFF" stroke-width="1.476" stroke-miterlimit="10"/>
<path d="M361.416 283.908L348.3 319.916" stroke="#D8EDFF" stroke-width="1.476" stroke-miterlimit="10" stroke-dasharray="10.41 11.36 11.36 10.41"/>
<path d="M346.52 324.805L212.292 693.32" stroke="#D8EDFF" stroke-width="1.476" stroke-miterlimit="10" stroke-dasharray="11.36 11.36 10.41 11.36 11.36 10.41"/>
<path d="M312.356 369.105L310.328 374.645" stroke="#D8EDFF" stroke-width="1.476" stroke-miterlimit="10"/>
<path d="M306.392 385.405L293.112 421.724" stroke="#D8EDFF" stroke-width="1.476" stroke-miterlimit="10" stroke-dasharray="10.5 11.46 11.46 10.5"/>
<path d="M308.536 334.58L306.508 340.12" stroke="#D8EDFF" stroke-width="1.476" stroke-miterlimit="10"/>
<path d="M302.432 351.241L288.676 388.769" stroke="#D8EDFF" stroke-width="1.476" stroke-miterlimit="10" stroke-dasharray="10.86 11.84 11.84 10.86"/>
<path d="M286.808 393.869L193.588 648.244" stroke="#D8EDFF" stroke-width="1.476" stroke-miterlimit="10" stroke-dasharray="11.84 11.84 10.86 11.84 11.84 10.86"/>
<path d="M304.72 300.056L302.684 305.592" stroke="#D8EDFF" stroke-width="1.476" stroke-miterlimit="10"/>
<path d="M298.32 317.452L283.596 357.484" stroke="#D8EDFF" stroke-width="1.476" stroke-miterlimit="10" stroke-dasharray="11.58 12.64 12.64 11.58"/>
<path d="M281.596 362.92L207.256 565.056" stroke="#D8EDFF" stroke-width="1.476" stroke-miterlimit="10" stroke-dasharray="12.64 12.64 11.58 12.64 12.64 11.58"/>
<path d="M300.9 265.528L298.888 271.072" stroke="#D8EDFF" stroke-width="1.476" stroke-miterlimit="10"/>
<path d="M294.804 282.315L281.02 320.259" stroke="#D8EDFF" stroke-width="1.476" stroke-miterlimit="10" stroke-dasharray="10.96 11.96 11.96 10.96"/>
<path d="M279.152 325.416L161.92 648.18" stroke="#D8EDFF" stroke-width="1.476" stroke-miterlimit="10" stroke-dasharray="11.96 11.96 10.96 11.96 11.96 10.96"/>
<path d="M297.084 231.005L295.072 236.553" stroke="#D8EDFF" stroke-width="1.476" stroke-miterlimit="10"/>
<path d="M290.912 248.028L276.876 286.768" stroke="#D8EDFF" stroke-width="1.476" stroke-miterlimit="10" stroke-dasharray="11.19 12.21 12.21 11.19"/>
<path d="M274.968 292.028L131.284 688.504" stroke="#D8EDFF" stroke-width="1.476" stroke-miterlimit="10" stroke-dasharray="12.21 12.21 11.19 12.21 12.21 11.19"/>
<path d="M293.264 196.479L291.244 202.019" stroke="#D8EDFF" stroke-width="1.476" stroke-miterlimit="10"/>
<path d="M287.36 212.692L274.244 248.696" stroke="#D8EDFF" stroke-width="1.476" stroke-miterlimit="10" stroke-dasharray="10.41 11.36 11.36 10.41"/>
<path d="M272.464 253.588L138.232 622.1" stroke="#D8EDFF" stroke-width="1.476" stroke-miterlimit="10" stroke-dasharray="11.36 11.36 10.41 11.36 11.36 10.41"/>
<path d="M217.808 356.516L215.78 362.056" stroke="#D8EDFF" stroke-width="1.476" stroke-miterlimit="10"/>
<path d="M211.844 372.82L198.564 409.136" stroke="#D8EDFF" stroke-width="1.476" stroke-miterlimit="10" stroke-dasharray="10.5 11.46 11.46 10.5"/>
<path d="M213.988 321.992L211.96 327.532" stroke="#D8EDFF" stroke-width="1.476" stroke-miterlimit="10"/>
<path d="M207.884 338.652L194.132 376.184" stroke="#D8EDFF" stroke-width="1.476" stroke-miterlimit="10" stroke-dasharray="10.86 11.84 11.84 10.86"/>
<path d="M192.264 381.28L99.04 635.656" stroke="#D8EDFF" stroke-width="1.476" stroke-miterlimit="10" stroke-dasharray="11.84 11.84 10.86 11.84 11.84 10.86"/>
<path d="M210.172 287.469L208.136 293.005" stroke="#D8EDFF" stroke-width="1.476" stroke-miterlimit="10"/>
<path d="M203.772 304.864L189.048 344.896" stroke="#D8EDFF" stroke-width="1.476" stroke-miterlimit="10" stroke-dasharray="11.58 12.64 12.64 11.58"/>
<path d="M187.052 350.333L112.708 552.468" stroke="#D8EDFF" stroke-width="1.476" stroke-miterlimit="10" stroke-dasharray="12.64 12.64 11.58 12.64 12.64 11.58"/>
<path d="M206.352 252.941L204.34 258.489" stroke="#D8EDFF" stroke-width="1.476" stroke-miterlimit="10"/>
<path d="M200.257 269.728L186.477 307.676" stroke="#D8EDFF" stroke-width="1.476" stroke-miterlimit="10" stroke-dasharray="10.96 11.96 11.96 10.96"/>
<path d="M184.604 312.828L67.3721 635.592" stroke="#D8EDFF" stroke-width="1.476" stroke-miterlimit="10" stroke-dasharray="11.96 11.96 10.96 11.96 11.96 10.96"/>
<path d="M202.535 218.416L200.523 223.964" stroke="#D8EDFF" stroke-width="1.476" stroke-miterlimit="10"/>
<path d="M196.364 235.441L182.328 274.181" stroke="#D8EDFF" stroke-width="1.476" stroke-miterlimit="10" stroke-dasharray="11.19 12.21 12.21 11.19"/>
<path d="M180.42 279.441L36.7402 675.916" stroke="#D8EDFF" stroke-width="1.476" stroke-miterlimit="10" stroke-dasharray="12.21 12.21 11.19 12.21 12.21 11.19"/>
<path d="M198.716 183.892L196.7 189.432" stroke="#D8EDFF" stroke-width="1.476" stroke-miterlimit="10"/>
<path d="M192.812 200.105L179.696 236.109" stroke="#D8EDFF" stroke-width="1.476" stroke-miterlimit="10" stroke-dasharray="10.41 11.36 11.36 10.41"/>
<path d="M177.916 241L43.6836 609.512" stroke="#D8EDFF" stroke-width="1.476" stroke-miterlimit="10" stroke-dasharray="11.36 11.36 10.41 11.36 11.36 10.41"/>
<path d="M196.148 167.144C196.148 167.144 215.084 145.544 254.116 164.28C288.4 180.732 297.484 213.624 297.484 213.624" stroke="#D8EDFF" stroke-width="2.08" stroke-miterlimit="10"/>
<path d="M341.784 337.66L342.008 337.536C343.33 336.731 344.541 335.756 345.608 334.636C347.002 335.181 348.483 335.468 349.98 335.484C351.623 335.506 353.255 335.205 354.781 334.597C356.308 333.99 357.7 333.087 358.878 331.941C360.056 330.795 360.997 329.428 361.646 327.919C362.296 326.409 362.642 324.787 362.664 323.144C362.671 322.278 362.592 321.414 362.428 320.564C367.338 319.93 371.844 317.515 375.09 313.777C378.335 310.038 380.093 305.238 380.03 300.288C379.967 295.338 378.086 290.583 374.747 286.929C371.407 283.274 366.841 280.975 361.916 280.468V280.388C362.027 278.081 361.673 275.776 360.875 273.609C360.076 271.442 358.85 269.458 357.268 267.776C355.686 266.094 353.781 264.747 351.668 263.816C349.555 262.886 347.275 262.39 344.966 262.359C342.657 262.328 340.366 262.763 338.228 263.636C336.091 264.51 334.151 265.806 332.525 267.445C330.899 269.084 329.619 271.035 328.763 273.179C327.906 275.324 327.491 277.619 327.54 279.928C327.54 280.124 327.54 280.328 327.54 280.512C326.071 280.157 324.567 279.967 323.056 279.944C319.328 279.892 315.659 280.873 312.455 282.78C309.251 284.686 306.637 287.442 304.904 290.744M308.46 314.348C310.802 316.7 313.687 318.439 316.86 319.412C316.34 321.757 316.326 324.187 316.819 326.539C317.312 328.89 318.3 331.11 319.718 333.05C321.137 334.989 322.952 336.604 325.044 337.786C327.135 338.969 329.455 339.692 331.848 339.908L308.46 314.348Z" stroke="#D8EDFF" stroke-width="2.08" stroke-miterlimit="10"/>
<path d="M346.26 307.072C347.412 312.768 350.092 316.076 352.936 317.988" stroke="#D8EDFF" stroke-width="2.08" stroke-miterlimit="10"/>
<path d="M362.401 320.556C361.677 320.606 360.95 320.595 360.229 320.521" stroke="#D8EDFF" stroke-width="2.08" stroke-miterlimit="10"/>
<path d="M327.52 280.495C327.52 280.495 327.268 289.543 335.852 293.151" stroke="#D8EDFF" stroke-width="2.08" stroke-miterlimit="10"/>
<path d="M352 325.42C352 325.42 330.56 321.948 349.656 381.084" stroke="#D8EDFF" stroke-width="2.08" stroke-miterlimit="10"/>
<path d="M324.984 321.395C324.984 321.395 342.684 330.703 321.164 380.703" stroke="#D8EDFF" stroke-width="2.08" stroke-miterlimit="10"/>
<path d="M192.788 170.684L192.804 170.672" stroke="#D8EDFF" stroke-width="2.08" stroke-miterlimit="10"/>
<path d="M136.696 203.256C143.996 203.604 151.072 202.812 157.652 199.036C162.024 196.54 167.4 193.528 171.632 189.672" stroke="#D8EDFF" stroke-width="2.08" stroke-miterlimit="10"/>
<path d="M64.9482 267.428C68.3482 275.892 72.7482 284.092 76.4962 291.948C78.5202 296.224 80.4762 300.748 80.4962 305.604C80.5402 313.112 75.7802 319.828 69.9762 323.576C61.5282 329.028 51.4642 328.528 43.1122 334.304C35.2762 339.7 31.2002 346.668 29.9482 354.48" stroke="#D8EDFF" stroke-width="2.08" stroke-miterlimit="10"/>
<path d="M102.848 200.509C103.168 200.481 103.472 200.453 103.792 200.441" stroke="#D8EDFF" stroke-width="2.08" stroke-miterlimit="10"/>
<path d="M308.173 381.376C308.173 381.376 312.401 376.508 312.401 365.544C312.401 354.58 305.845 349.716 305.845 349.716C312.953 365.352 298.293 381.376 298.293 381.376C295.197 377.67 293.407 373.048 293.201 368.224C293.201 368.224 289.201 375.116 292.533 381.376" stroke="#D8EDFF" stroke-width="2.08" stroke-linejoin="round"/>
<path d="M27.412 381.376C27.412 381.376 20 372.828 20 353.6C20 334.372 31.508 325.8 31.508 325.8C19.024 353.256 44.768 381.4 44.768 381.4C45.568 380.344 52.96 372.408 53.74 358.304C53.74 358.304 60.764 370.408 54.912 381.4" stroke="#D8EDFF" stroke-width="2.08" stroke-linejoin="round"/>
<path d="M319.6 224.295L319.64 224.379" stroke="#D8EDFF" stroke-width="2.08" stroke-miterlimit="10"/>
<path d="M270.484 381.476H238.132V380.936C238.762 380.631 239.31 380.18 239.729 379.619C240.149 379.059 240.427 378.405 240.542 377.715C240.657 377.024 240.603 376.316 240.387 375.65C240.171 374.984 239.798 374.38 239.3 373.888C238.961 373.545 238.565 373.263 238.132 373.052V372.58H268.22C276.812 372.556 275.172 374.108 276.728 377.092C278.284 380.076 270.484 381.476 270.484 381.476Z" fill="#2563EB"/>
<path d="M87.5998 379.84C86.2398 380.952 84.1318 381.476 84.1318 381.476H66.6318V347.824L75.8078 343.784C75.8898 343.761 75.969 343.729 76.0438 343.688L76.3478 343.548V372.58H83.0078C83.7974 372.584 84.5858 372.64 85.3678 372.748C87.1438 373.04 87.6278 373.692 87.9198 374.704C87.9198 374.704 87.9478 374.704 87.9198 374.732C88.1158 375.384 88.2398 376.164 88.5758 377.092C89.0318 378.244 88.4638 379.16 87.5998 379.84Z" fill="#2563EB"/>
<path d="M20.8916 381.479H351.6" stroke="#111827" stroke-width="2.08" stroke-miterlimit="10"/>
<path d="M197.54 321.472L187.688 351.392C186.45 354.781 184.2 357.707 181.244 359.775C178.288 361.842 174.767 362.952 171.16 362.952H76.2918L76.3478 367.78V368.268L76.4038 372.58V372.608L82.5358 372.58H84.1358C84.5538 372.578 84.9698 372.634 85.3718 372.748C86.4378 373.057 87.3486 373.755 87.9238 374.704C87.9238 374.704 87.9518 374.704 87.9238 374.732C88.3538 375.419 88.5814 376.214 88.5798 377.024V377.092C88.5766 377.674 88.459 378.249 88.233 378.785C88.0074 379.321 87.6782 379.808 87.2642 380.216C86.8506 380.625 86.3598 380.948 85.821 381.167C85.2822 381.386 84.7054 381.496 84.1238 381.492H66.6318V347.824C69.773 346.382 72.8318 345.035 75.8078 343.784C75.8898 343.761 75.969 343.729 76.0438 343.688L76.3478 343.564C121.2 324.9 149.096 327.2 149.096 327.2L165.472 274.256" stroke="#111827" stroke-width="2.08" stroke-miterlimit="10"/>
<path d="M321.612 228.444L304.068 241.812" stroke="#111827" stroke-width="2.08" stroke-miterlimit="10"/>
<path d="M263.104 323.056L273.12 319.876" stroke="#111827" stroke-width="2.08" stroke-miterlimit="10"/>
<path d="M258.936 231.724C258.936 231.724 192.172 307.44 204.104 373.816C204.904 378.092 208.464 381.436 212.808 381.476H235.94C236.703 381.476 237.456 381.29 238.132 380.936C238.762 380.631 239.31 380.179 239.729 379.618C240.149 379.058 240.427 378.405 240.542 377.714C240.657 377.023 240.603 376.315 240.387 375.649C240.171 374.984 239.798 374.379 239.3 373.888C238.961 373.545 238.565 373.262 238.132 373.052C237.512 372.737 236.827 372.576 236.132 372.58H228.932" stroke="#111827" stroke-width="2.08" stroke-miterlimit="10"/>
<path d="M248.488 324.456L274.688 287.316L298.932 252.956C305.98 242.98 305.648 229.268 297.5 220.156C277.848 198.156 232.06 212.732 210.236 224.296C193.036 233.412 177.368 246.984 169.12 264.928C152.72 300.648 172.144 315.676 197.52 321.56C200.84 322.324 204.268 322.936 207.708 323.42" stroke="#111827" stroke-width="2.08" stroke-miterlimit="10"/>
<path d="M263.1 323.052C263.1 323.052 257.3 323.852 248.488 324.456C239.84 337.196 230.088 350.504 219.164 364.116C218.848 364.505 218.657 364.98 218.614 365.48C218.572 365.979 218.681 366.48 218.928 366.916C219.949 368.638 221.4 370.064 223.139 371.055C224.879 372.045 226.846 372.565 228.848 372.564H228.96L263.1 323.036" stroke="#111827" stroke-width="2.08" stroke-miterlimit="10"/>
<path d="M274.688 287.315H294.6C309.284 287.315 317.112 304.623 307.424 315.655L257.312 372.719H271.828C272.414 372.702 272.998 372.802 273.545 373.014C274.091 373.226 274.59 373.545 275.011 373.954C275.431 374.362 275.766 374.851 275.994 375.391C276.223 375.931 276.341 376.511 276.341 377.097C276.341 377.684 276.223 378.264 275.994 378.804C275.766 379.344 275.431 379.833 275.011 380.241C274.59 380.649 274.091 380.969 273.545 381.181C272.998 381.393 272.414 381.493 271.828 381.475H222.828" stroke="#111827" stroke-width="2.08" stroke-miterlimit="10"/>
<path d="M202.968 365.544C200.4 368.252 198.4 371.332 196.432 374.484C195.252 376.384 194.224 378.62 196.1 380.508C197.652 382.048 199.3 381.504 200.608 380.588C201.643 379.84 202.485 378.855 203.064 377.716L204.44 375.108" stroke="#111827" stroke-width="2.08" stroke-miterlimit="10"/>
<path d="M356.98 201.804C356.58 204.484 354.456 207.216 352.236 208.092C349.916 208.992 347.268 208.092 345.184 207.036C342.508 205.716 340.024 203.996 337.524 202.388L335.9 201.68C335.903 201.671 335.903 201.661 335.9 201.652C335.368 201.433 334.774 201.423 334.236 201.624C334.109 201.655 333.987 201.703 333.872 201.764C333.64 201.876 333.43 202.026 333.248 202.208C332.961 202.481 332.735 202.811 332.584 203.176C331.188 206.72 330.182 210.406 329.584 214.168L325.768 214.668C325.781 214.319 325.842 213.973 325.948 213.64C325.95 213.635 325.95 213.631 325.95 213.626C325.95 213.621 325.95 213.616 325.948 213.612C326.224 212.668 326.612 211.792 325.948 211.448C325.9 210.874 325.704 210.323 325.38 209.848C324.98 209.336 324.352 209.072 323.38 209.24C323.032 209.297 322.693 209.393 322.368 209.528C321.515 209.866 320.748 210.388 320.12 211.056C319.857 211.323 319.616 211.611 319.4 211.916C319.074 212.362 318.806 212.847 318.6 213.36C318.525 213.525 318.465 213.696 318.42 213.872C318.064 214.938 318.083 216.094 318.476 217.148C318.544 217.33 318.627 217.507 318.724 217.676L315.712 220.272C315.607 220.364 315.496 220.448 315.38 220.524C313.924 221.484 311.592 221.484 309.524 220.956C308.276 220.636 308.784 219.98 307.968 219.356C306.816 219.716 306.768 217.54 306.844 217.276C307.4 215.752 305.32 214.476 305.112 214.32C304.336 214.168 303.852 213.92 303.6 213.544H304.156C305.308 213.544 306.932 213.796 307.984 213.448C307.36 210.864 306.444 209.492 308.5 207.272C310.208 205.4 310.816 203.672 310.468 201.084C310.468 200.932 311.304 201.028 311.304 200.864C311.856 199.264 312.94 197.768 313.996 197.264C315.88 196.348 318.656 197.108 318.936 194.724C319.124 192.826 319.909 191.036 321.178 189.613C322.448 188.189 324.136 187.204 326 186.8C328.776 186.188 330.744 188.464 333.12 189.324C336.004 190.392 338.988 188.74 342.012 189.864C343.512 190.42 344.496 191.464 345.496 192.664C346.328 193.692 347.148 194.748 347.896 195.828C348.644 196.908 349.34 197.884 350.564 198.356C352.164 198.98 354.072 198.564 355.504 199.644C356.228 200.174 356.749 200.936 356.98 201.804Z" fill="#2563EB"/>
<path d="M304.691 213.632L306.643 216.964C307.303 218.088 308.243 220.432 309.443 220.924H309.467H309.499C311.591 221.756 313.863 221.556 315.351 220.524C315.476 220.446 315.592 220.356 315.699 220.256L318.703 217.656C316.847 214.34 319.855 209.812 323.343 209.212C325.127 208.912 325.743 210.012 325.939 211.412C326.011 212.144 326.011 212.88 325.939 213.612C325.939 213.844 325.911 214.052 325.891 214.272" stroke="#111827" stroke-width="2.08" stroke-linecap="round" stroke-linejoin="round"/>
<path d="M343.904 210.763C343.904 210.763 338.744 208.119 335.376 211.715" stroke="#111827" stroke-width="2.08" stroke-miterlimit="10"/>
<path d="M339.64 225.344C340.912 226.272 342.684 227.344 344.248 226.544L343.784 220.62C343.676 219.17 344.066 217.727 344.888 216.528C346.256 214.504 348.848 211.624 348.58 208.164" stroke="#111827" stroke-width="2.08" stroke-miterlimit="10"/>
<path d="M341.845 216.606C342.326 215.759 342.132 214.74 341.412 214.331C340.691 213.922 339.717 214.277 339.236 215.124C338.755 215.971 338.949 216.99 339.669 217.399C340.389 217.808 341.364 217.453 341.845 216.606Z" fill="#111827"/>
<path d="M325.76 214.673C325.804 214.553 325.844 214.425 325.888 214.305C325.932 214.185 325.972 214.037 326.024 213.905" stroke="#111827" stroke-width="2.08" stroke-linecap="round" stroke-linejoin="round"/>
<path d="M325.756 214.676L327.064 214.508L329.576 214.172" stroke="#111827" stroke-width="2.08" stroke-linecap="round" stroke-linejoin="round"/>
<path d="M332.524 223.031C332.524 223.031 331.288 226.575 334.744 229.555" stroke="#111827" stroke-width="2.08" stroke-miterlimit="10"/>
<path d="M288.268 213.544C289.42 213.544 306.912 213.796 307.964 213.448C307.34 210.864 306.424 209.492 308.48 207.272C310.188 205.4 310.796 203.672 310.448 201.084C310.422 200.924 310.409 200.762 310.408 200.6C310.268 198.352 311.296 196.576 313.28 195.476C315.168 194.424 317.32 194.632 317.612 192.176C317.73 191.108 318.025 190.067 318.484 189.096C319.128 187.834 320.037 186.726 321.148 185.846C322.26 184.967 323.547 184.337 324.924 184C327.784 183.364 329.808 185.72 332.28 186.608C335.236 187.708 338.332 186.012 341.44 187.152C342.992 187.732 344.004 188.804 345.04 190.052C345.916 191.12 346.748 192.204 347.512 193.328C348.26 194.38 349.008 195.436 350.272 195.92C351.912 196.56 353.896 196.128 355.352 197.252C356.808 198.376 357.268 200.084 356.988 201.792C356.588 204.472 354.464 207.204 352.244 208.08C349.924 208.98 347.276 208.08 345.192 207.024C342.516 205.704 340.032 203.984 337.532 202.376L335.908 201.668C335.375 201.443 334.778 201.423 334.232 201.612C334.105 201.643 333.983 201.69 333.868 201.752C333.639 201.868 333.428 202.018 333.244 202.196C332.956 202.468 332.73 202.798 332.58 203.164C331.184 206.708 330.178 210.394 329.58 214.156" stroke="#111827" stroke-width="2.08" stroke-miterlimit="10"/>
<path d="M319.492 224C319.492 224 324.044 236 330.324 236.272C336.604 236.544 340.836 226.348 340.836 226.348" stroke="#111827" stroke-width="2.08" stroke-linecap="round" stroke-linejoin="round"/>
<path d="M301.792 247.8L285.492 287.316" stroke="#111827" stroke-width="2.08" stroke-miterlimit="10"/>
<path d="M303.892 236.116L304.064 236.28C304.004 235.88 303.932 235.536 303.86 235.168C303.768 233.26 303.408 231.374 302.788 229.568C302.043 227.332 300.906 225.246 299.432 223.408C283.972 198.784 239.86 212.736 239.86 212.736C213.06 216.736 170.66 244.484 163.74 281.264C156.82 318.044 203.032 322.684 205.296 323.064C205.898 323.194 206.528 323.104 207.07 322.811C207.612 322.518 208.031 322.04 208.252 321.464C221.792 274.264 254.564 236.992 254.568 236.988C258.168 232.884 259.06 228.236 264.02 225.104C269.444 221.676 276.052 221.024 282.152 222.844C297.844 227.524 300.34 243.576 295.812 257.376C295.812 257.376 304 247.336 303.892 236.116Z" fill="#111827"/>
<path d="M74.26 177.305L74.248 177.321" stroke="#D8EDFF" stroke-width="2.08" stroke-miterlimit="10"/>
<path d="M121.332 177.124L121.32 177.112" stroke="#D8EDFF" stroke-width="2.08" stroke-miterlimit="10"/>
<path d="M69.5 199.328C62.452 206.296 55.316 210.499 53.568 208.723C51.82 206.947 56.124 199.884 63.168 192.916C70.212 185.948 77.336 181.759 79.084 183.523C79.1232 183.556 79.1524 183.599 79.168 183.647C80.656 185.599 76.4 192.528 69.5 199.328Z" stroke="#111827" stroke-width="2.08" stroke-miterlimit="10"/>
<path d="M97.0764 205.296C97.0504 208.621 96.268 211.897 94.7884 214.876C93.3088 217.854 91.1712 220.457 88.5368 222.487C85.9024 224.517 82.8408 225.921 79.5836 226.593C76.326 227.264 72.9588 227.186 69.7364 226.364C65.638 225.307 61.9332 223.086 59.07 219.969C56.2064 216.852 54.3068 212.973 53.6004 208.8C53.5928 208.776 53.5928 208.751 53.6004 208.728C55.3484 210.504 62.4844 206.3 69.5324 199.332C76.4284 192.532 80.6884 185.608 79.2044 183.652H79.2004C83.3492 184.434 87.184 186.398 90.2436 189.307C93.3032 192.216 95.4576 195.948 96.4484 200.052C96.8716 201.767 97.0824 203.528 97.0764 205.296Z" fill="#2563EB"/>
<path d="M79.1995 183.636C77.4835 179.148 80.3995 175.028 84.8795 174.036C90.5635 172.768 94.6515 177.112 97.0715 181.76C100.1 187.58 99.1435 195.272 95.7835 200.888" stroke="#111827" stroke-width="2.08" stroke-miterlimit="10"/>
<path d="M53.6799 208.844C49.1999 207.072 45.0559 209.94 43.9999 214.4C42.6599 220.064 46.9519 224.208 51.5719 226.688C57.3519 229.788 64.9199 229.032 70.5799 225.744" stroke="#111827" stroke-width="2.08" stroke-miterlimit="10"/>
<path d="M92.6716 218.259L110 235.811C110.606 236.442 110.94 237.286 110.928 238.161C110.917 239.036 110.562 239.872 109.939 240.486C109.316 241.101 108.477 241.446 107.602 241.446C106.726 241.446 105.886 241.102 105.264 240.487L87.9316 222.931L92.6716 218.259Z" stroke="#111827" stroke-width="2.08" stroke-miterlimit="10"/>
<path d="M123.052 230.232C125.28 232.492 121.852 239.512 115.352 245.916C108.852 252.32 101.8 255.676 99.572 253.42C97.616 251.44 100.004 245.82 104.96 240.168L105.272 240.488C105.901 241.072 106.731 241.389 107.588 241.375C108.446 241.362 109.265 241.017 109.875 240.414C110.484 239.811 110.838 238.996 110.861 238.138C110.885 237.281 110.576 236.448 110 235.812L109.684 235.496C115.428 230.584 121.096 228.256 123.052 230.232Z" fill="#2563EB"/>
<path d="M97.0764 205.296C97.0504 208.621 96.268 211.897 94.7884 214.876C93.3088 217.854 91.1712 220.457 88.5368 222.487C85.9024 224.517 82.8408 225.921 79.5836 226.593C76.326 227.264 72.9588 227.186 69.7364 226.364C65.638 225.307 61.9332 223.086 59.07 219.969C56.2064 216.852 54.3068 212.973 53.6004 208.8C53.5928 208.776 53.5928 208.751 53.6004 208.728C55.3484 210.504 62.4844 206.3 69.5324 199.332C76.4284 192.532 80.6884 185.608 79.2044 183.652H79.2004C83.3492 184.434 87.184 186.398 90.2436 189.307C93.3032 192.216 95.4576 195.948 96.4484 200.052C96.8716 201.767 97.0824 203.528 97.0764 205.296Z" stroke="#111827" stroke-width="2.08" stroke-miterlimit="10"/>
<path d="M123.052 230.232C125.28 232.492 121.852 239.512 115.352 245.916C108.852 252.32 101.8 255.676 99.572 253.42C97.616 251.44 100.004 245.82 104.96 240.168L105.272 240.488C105.901 241.072 106.731 241.389 107.588 241.375C108.446 241.362 109.265 241.017 109.875 240.414C110.484 239.811 110.838 238.996 110.861 238.138C110.885 237.281 110.576 236.448 110 235.812L109.684 235.496C115.428 230.584 121.096 228.256 123.052 230.232Z" stroke="#111827" stroke-width="2.08" stroke-miterlimit="10"/>
<path d="M74.8198 209.992L73.6758 205.064L82.3158 213.58L85.2558 210.492L79.4678 216.496" stroke="white" stroke-width="2.776" stroke-linecap="round" stroke-linejoin="round"/>
<g opacity="0.5">
<path opacity="0.5" d="M136.336 199.969C136.864 201.841 136.904 203.937 136.1 205.729C135.432 207.225 134.144 208.309 132.656 209.073C132.02 213.361 128.784 215.473 125.08 216.037C124.956 216.373 124.776 216.801 124.636 217.081C123.124 219.717 119.668 220.953 116.852 221.633C115.228 221.813 113.464 221.661 112.216 220.561C111.41 219.856 110.87 218.896 110.688 217.841C110.524 216.789 110.788 215.733 110.812 214.693C110.84 212.401 110.232 210.209 108.676 208.489C104.528 203.881 106.72 195.417 117.184 195.265C127.648 195.113 135.24 197.413 138.944 192.641C138.967 192.69 138.986 192.74 139 192.793C139.22 195.029 138.8 197.777 136.336 199.969Z" fill="#2563EB"/>
</g>
<path d="M117.544 209.101C118.488 210.113 120.208 210.585 121.444 210.793C125.265 211.396 129.18 210.795 132.644 209.073C134.132 208.309 135.42 207.225 136.088 205.729C136.888 203.937 136.852 201.841 136.324 199.969" stroke="#111827" stroke-width="2.08" stroke-miterlimit="10"/>
<path d="M115.964 213.999C116.488 214.763 117.488 215.199 118.364 215.471C118.398 215.477 118.432 215.486 118.464 215.499C120.607 216.167 122.874 216.346 125.096 216.023C128.8 215.471 132.036 213.347 132.672 209.059" stroke="#111827" stroke-width="2.08" stroke-miterlimit="10"/>
<path d="M125.12 215.884C125.12 215.928 125.092 215.984 125.08 216.036C124.956 216.372 124.776 216.8 124.636 217.08C123.124 219.716 119.668 220.952 116.852 221.632L116.684 221.672C114.768 222.128 112.52 222.256 110.856 221.004C109.925 220.302 109.271 219.296 109.008 218.16C108.748 217.036 108.968 215.872 108.9 214.732C108.76 212.236 107.956 209.904 106.124 208.14C101.268 203.452 103.028 194.084 114.38 193.152C125.732 192.22 134.168 194.152 137.848 188.684C138.468 189.979 138.858 191.372 139 192.8C139.22 195.036 138.804 197.784 136.336 199.976C135.058 201.073 133.571 201.898 131.964 202.4C120.916 206.176 118.96 202.8 118.96 202.8" stroke="#111827" stroke-width="2.08" stroke-miterlimit="10"/>
<g opacity="0.5">
<path opacity="0.5" d="M67.3157 265.7C69.1637 266.304 71.2557 266.428 73.0797 265.7C74.6037 265.092 75.7357 263.844 76.5557 262.392C80.8677 261.924 83.1157 258.792 83.8197 255.096C84.1557 254.988 84.5917 254.824 84.8757 254.696C87.5717 253.288 88.9437 249.896 89.7357 247.096C89.9797 245.496 89.8957 243.716 88.8517 242.424C88.1769 241.592 87.2385 241.015 86.1917 240.788C85.1437 240.58 84.0797 240.788 83.0397 240.788C80.7517 240.728 78.5837 240.028 76.9277 238.388C72.4877 234.06 63.9437 235.912 63.3757 246.364C62.8077 256.816 64.7997 264.504 59.8877 268C59.9365 268.026 59.9873 268.047 60.0397 268.064C62.2637 268.4 65.0237 268.084 67.3157 265.7Z" fill="#2563EB"/>
</g>
<path d="M77.2004 247.288C78.1764 248.272 78.5804 250.012 78.7364 251.252C79.1904 255.104 78.4284 259.002 76.5564 262.4C75.7564 263.852 74.6044 265.1 73.0804 265.708C71.2564 266.44 69.1644 266.316 67.3164 265.708" stroke="#111827" stroke-width="2.08" stroke-miterlimit="10"/>
<path d="M82.1557 245.905C82.8997 246.461 83.2877 247.477 83.5317 248.349C83.5317 248.389 83.5317 248.417 83.5557 248.445C84.1369 250.614 84.2273 252.885 83.8197 255.093C83.1157 258.777 80.8677 261.921 76.5557 262.389" stroke="#111827" stroke-width="2.08" stroke-miterlimit="10"/>
<path d="M83.664 255.127L83.82 255.091C84.156 254.983 84.592 254.819 84.876 254.691C87.572 253.283 88.944 249.891 89.736 247.091L89.784 246.927C90.316 245.031 90.532 242.791 89.348 241.075C88.6824 240.12 87.7028 239.428 86.58 239.119C85.468 238.811 84.292 238.987 83.16 238.871C80.668 238.635 78.36 237.739 76.68 235.839C72.188 230.799 62.756 232.187 61.376 243.491C59.996 254.795 61.6 263.307 56 266.763C57.2668 267.434 58.6404 267.88 60.06 268.079C62.284 268.387 65.044 268.079 67.336 265.679C68.4832 264.448 69.368 262.996 69.936 261.411C74.144 250.523 70.868 248.431 70.868 248.431" stroke="#111827" stroke-width="2.08" stroke-miterlimit="10"/>
<g opacity="0.71">
<path opacity="0.71" d="M194.364 171.375C189.708 169.419 186.332 166.883 186.828 165.715C187.324 164.547 191.488 165.187 196.148 167.143C200.808 169.099 204.168 171.631 203.68 172.799C203.672 172.823 203.658 172.846 203.64 172.863C203.008 173.943 198.916 173.291 194.364 171.375Z" fill="#2563EB"/>
<path opacity="0.71" d="M208.032 180.924C206.032 183.324 202.548 184.408 199.412 184.124C201.115 182.848 202.419 181.113 203.171 179.122C203.923 177.131 204.093 174.968 203.66 172.884C205.452 171.208 207.948 171.776 209.296 173.684C210.988 176.108 209.752 178.884 208.032 180.924Z" fill="#2563EB"/>
<path opacity="0.71" d="M186.8 165.74C184.983 166.875 183.533 168.511 182.625 170.452C181.716 172.392 181.388 174.553 181.68 176.676C179.28 174.636 177.68 171.416 177.988 168.296C178.252 165.628 179.364 162.8 182.292 162.328C184.576 161.94 186.728 163.312 186.8 165.74Z" fill="#2563EB"/>
<path opacity="0.71" d="M190 186.001L185.124 197.601C184.95 198.015 184.618 198.344 184.201 198.514C183.784 198.684 183.317 198.681 182.902 198.507C182.487 198.332 182.159 198 181.989 197.583C181.819 197.167 181.822 196.699 181.996 196.285L186.872 184.685L190 186.001Z" fill="#2563EB"/>
<path opacity="0.71" d="M190.288 202.628C189.664 204.12 185.684 203.872 181.4 202.072C177.116 200.272 174.156 197.6 174.8 196.108C175.348 194.8 178.456 194.828 182.088 196.056L182 196.264C181.826 196.679 181.823 197.146 181.993 197.563C182.163 197.98 182.491 198.312 182.906 198.486C183.321 198.661 183.788 198.663 184.205 198.494C184.621 198.324 184.954 197.995 185.128 197.58L185.216 197.368C188.632 199.108 190.84 201.32 190.288 202.628Z" fill="#2563EB"/>
<g opacity="0.5">
<path opacity="0.5" d="M207.136 202.963C206.361 203.611 205.386 203.97 204.376 203.979C203.537 203.924 202.744 203.583 202.128 203.011C199.984 203.551 198.356 202.443 197.368 200.807C197.188 200.807 196.948 200.807 196.792 200.807C195.256 200.607 193.992 199.207 193.128 198.031C192.728 197.303 192.452 196.431 192.728 195.631C192.903 195.116 193.249 194.676 193.708 194.383C194.192 194.15 194.696 193.962 195.216 193.823C196.305 193.433 197.202 192.638 197.72 191.603C199.076 188.751 203.492 188.127 205.608 193.023C207.724 197.919 208.124 201.943 211.096 202.755C211.077 202.776 211.057 202.795 211.036 202.811C210.448 203.155 209.785 203.349 209.105 203.375C208.424 203.402 207.748 203.26 207.136 202.963Z" fill="#2563EB"/>
</g>
<g opacity="0.5">
<path opacity="0.5" d="M164.4 181.472C164.203 182.462 164.355 183.49 164.832 184.38C165.283 185.087 165.962 185.619 166.756 185.888C167.316 188.028 169.068 188.928 170.976 189.008C171.06 189.168 171.172 189.376 171.26 189.508C172.168 190.764 173.988 191.204 175.452 191.392C176.284 191.392 177.168 191.224 177.744 190.592C178.113 190.191 178.334 189.675 178.368 189.132C178.34 188.593 178.262 188.057 178.136 187.532C177.955 186.39 178.222 185.222 178.88 184.272C180.732 181.712 179.16 177.54 173.848 178.032C168.536 178.524 164.816 180.104 162.676 177.888L162.656 177.968C162.635 178.65 162.784 179.327 163.088 179.939C163.392 180.55 163.843 181.076 164.4 181.472Z" fill="#2563EB"/>
</g>
<path opacity="0.71" d="M203.66 172.887C202.98 173.959 198.916 173.287 194.376 171.391C190 169.543 186.8 167.199 186.8 165.947C186.799 165.867 186.813 165.787 186.84 165.711C186.84 165.711 186.812 165.711 186.812 165.739C184.996 166.875 183.546 168.511 182.637 170.451C181.729 172.391 181.401 174.553 181.692 176.675C181.692 176.703 181.692 176.743 181.692 176.771C181.933 178.449 182.552 180.05 183.504 181.453C184.455 182.856 185.713 184.024 187.183 184.869C188.653 185.713 190.296 186.211 191.988 186.326C193.679 186.441 195.374 186.169 196.944 185.531C197.779 185.185 198.57 184.742 199.3 184.211C199.344 184.183 199.372 184.155 199.412 184.127C201.115 182.851 202.419 181.116 203.171 179.125C203.924 177.135 204.093 174.971 203.66 172.887ZM193.472 175.051L191.28 180.063L192.64 180.631C192.81 180.705 192.942 180.843 193.01 181.015C193.078 181.186 193.074 181.378 193 181.547C192.945 181.672 192.853 181.777 192.736 181.848C192.62 181.92 192.485 181.954 192.348 181.947C192.264 181.946 192.18 181.931 192.1 181.903L190.1 181.059C190.056 181.059 190.016 181.015 189.972 181.003L188.196 180.239C188.112 180.205 188.036 180.155 187.971 180.091C187.906 180.027 187.855 179.951 187.821 179.867C187.786 179.784 187.768 179.694 187.769 179.603C187.77 179.512 187.788 179.423 187.824 179.339C187.859 179.254 187.91 179.176 187.975 179.111C188.04 179.045 188.118 178.993 188.203 178.958C188.288 178.923 188.38 178.905 188.472 178.907C188.564 178.907 188.656 178.927 188.74 178.963L190 179.519L191.236 176.691L191.08 176.787C191.006 176.838 190.921 176.874 190.833 176.892C190.744 176.911 190.653 176.911 190.564 176.895C190.475 176.878 190.39 176.843 190.314 176.794C190.238 176.744 190.173 176.68 190.122 176.605C190.072 176.53 190.036 176.446 190.017 176.357C189.999 176.269 189.998 176.177 190.015 176.089C190.032 175.999 190.066 175.915 190.116 175.839C190.166 175.763 190.23 175.698 190.304 175.647L192.44 174.203C192.564 174.115 192.714 174.072 192.866 174.08C193.018 174.088 193.162 174.147 193.276 174.247C193.39 174.343 193.47 174.473 193.505 174.617C193.54 174.762 193.529 174.913 193.472 175.051Z" fill="#2563EB"/>
</g>
<g opacity="0.5">
<path opacity="0.5" d="M114.873 298.597C116.637 301.133 117.549 303.549 116.909 303.989C116.269 304.429 114.329 302.737 112.565 300.201C110.801 297.665 109.889 295.253 110.525 294.809H110.569C111.249 294.437 113.149 296.117 114.873 298.597Z" fill="#2563EB"/>
<path opacity="0.5" d="M110.936 289.201C112.764 288.621 114.908 289.201 116.44 290.369C115.144 290.467 113.902 290.933 112.861 291.712C111.82 292.492 111.024 293.552 110.564 294.769C109.088 295.049 107.984 293.937 107.916 292.505C107.832 290.709 109.38 289.681 110.936 289.201Z" fill="#2563EB"/>
<path opacity="0.5" d="M116.937 304C118.338 304.014 119.711 303.595 120.865 302.8C121.871 302.093 122.665 301.125 123.161 300C123.733 301.84 123.513 304.032 122.325 305.54C121.317 306.832 119.813 307.94 118.149 307.216C116.837 306.676 116.177 305.264 116.937 304Z" fill="#2563EB"/>
<path opacity="0.5" d="M121.916 292.481L128.232 288.081C128.458 287.922 128.738 287.859 129.01 287.906C129.282 287.953 129.525 288.107 129.684 288.333C129.843 288.559 129.906 288.838 129.859 289.111C129.812 289.383 129.658 289.626 129.432 289.785L123.12 294.185L121.916 292.481Z" fill="#2563EB"/>
<path opacity="0.5" d="M127.201 283.785C128.001 283.221 130.001 284.653 131.601 286.985C133.201 289.317 133.881 291.669 133.069 292.233C132.357 292.729 130.757 291.697 129.285 289.873L129.397 289.793C129.623 289.634 129.776 289.392 129.824 289.12C129.871 288.847 129.808 288.567 129.649 288.341C129.49 288.115 129.247 287.962 128.975 287.914C128.703 287.867 128.423 287.93 128.197 288.089L128.081 288.169C126.917 286.149 126.501 284.281 127.201 283.785Z" fill="#2563EB"/>
<g opacity="0.5">
<path opacity="0.5" d="M118.62 278.097C119.232 278.015 119.852 278.148 120.377 278.473C120.79 278.777 121.087 279.213 121.22 279.709C122.504 280.133 122.985 281.241 122.957 282.409C123.059 282.467 123.158 282.531 123.253 282.601C123.985 283.205 124.181 284.333 124.241 285.233C124.244 285.488 124.195 285.742 124.095 285.977C123.997 286.212 123.85 286.425 123.665 286.601C123.406 286.811 123.082 286.926 122.749 286.925C122.421 286.887 122.099 286.818 121.784 286.721C121.101 286.57 120.386 286.686 119.784 287.045C118.148 288.077 115.664 286.953 116.184 283.729C116.704 280.505 117.805 278.297 116.537 276.905H116.584C116.995 276.922 117.395 277.04 117.75 277.248C118.105 277.456 118.404 277.747 118.62 278.097Z" fill="#2563EB"/>
</g>
<g opacity="0.5">
<path opacity="0.5" d="M135.145 302.801C135.449 302.264 135.558 301.638 135.453 301.029C135.326 300.532 135.032 300.093 134.621 299.785C134.705 298.433 133.857 297.577 132.765 297.165C132.765 297.057 132.721 296.913 132.697 296.817C132.409 295.917 131.437 295.313 130.621 294.921C130.385 294.823 130.132 294.775 129.877 294.779C129.621 294.783 129.369 294.839 129.137 294.945C128.847 295.108 128.621 295.365 128.497 295.673C128.411 295.991 128.355 296.317 128.329 296.645C128.212 297.343 127.833 297.97 127.269 298.397C125.705 299.529 125.821 302.253 129.001 302.981C132.181 303.709 134.645 303.505 135.465 305.205C135.475 305.192 135.483 305.177 135.489 305.161C135.631 304.77 135.674 304.35 135.614 303.938C135.554 303.526 135.393 303.135 135.145 302.801Z" fill="#2563EB"/>
</g>
<path opacity="0.5" d="M110.564 294.772C111.264 294.44 113.148 296.116 114.868 298.584C116.512 300.956 117.416 303.224 117.004 303.872C116.979 303.914 116.947 303.95 116.908 303.98C116.908 303.98 116.908 303.98 116.932 303.98C118.334 303.995 119.706 303.575 120.86 302.78C121.865 302.079 122.66 301.118 123.16 300C123.16 300 123.16 299.96 123.184 299.948C123.609 299.002 123.813 297.973 123.78 296.937C123.748 295.901 123.481 294.886 122.998 293.969C122.516 293.051 121.831 292.256 120.996 291.643C120.16 291.029 119.196 290.614 118.176 290.428C117.631 290.332 117.077 290.301 116.524 290.336H116.44C115.144 290.434 113.902 290.9 112.861 291.68C111.82 292.459 111.024 293.52 110.564 294.736V294.772ZM116.536 296.988L119.308 295.12L118.8 294.4C118.738 294.306 118.715 294.191 118.736 294.08C118.758 293.969 118.823 293.871 118.916 293.808C118.985 293.758 119.068 293.731 119.152 293.731C119.237 293.731 119.32 293.758 119.388 293.808C119.432 293.835 119.472 293.869 119.504 293.908L120.264 295.004C120.284 295.028 120.296 295.056 120.312 295.076L120.98 296.052C121.015 296.097 121.04 296.148 121.054 296.202C121.068 296.257 121.07 296.314 121.06 296.369C121.05 296.425 121.029 296.478 120.997 296.524C120.966 296.571 120.924 296.61 120.876 296.64C120.83 296.672 120.778 296.696 120.723 296.708C120.668 296.72 120.611 296.721 120.556 296.711C120.5 296.701 120.447 296.68 120.4 296.649C120.353 296.618 120.312 296.579 120.28 296.532L119.8 295.836L118.236 296.896H118.344C118.4 296.894 118.454 296.903 118.506 296.923C118.558 296.942 118.605 296.971 118.646 297.009C118.686 297.047 118.718 297.092 118.741 297.143C118.764 297.193 118.776 297.247 118.778 297.302C118.78 297.357 118.771 297.412 118.752 297.464C118.732 297.516 118.703 297.563 118.665 297.603C118.628 297.643 118.582 297.676 118.532 297.699C118.482 297.722 118.428 297.734 118.372 297.736L116.796 297.784C116.706 297.787 116.617 297.76 116.545 297.706C116.472 297.652 116.42 297.575 116.396 297.488C116.362 297.401 116.358 297.305 116.383 297.215C116.408 297.125 116.462 297.045 116.536 296.988Z" fill="#2563EB"/>
</g>
<path d="M159.428 221.313C157.433 221.311 155.482 221.901 153.823 223.009C152.163 224.116 150.869 225.691 150.105 227.534C149.341 229.377 149.14 231.405 149.53 233.362C149.918 235.319 150.879 237.117 152.29 238.527C153.7 239.938 155.498 240.899 157.455 241.287C159.412 241.676 161.44 241.476 163.283 240.711C165.126 239.947 166.7 238.654 167.808 236.994C168.915 235.334 169.506 233.384 169.504 231.389C169.504 230.065 169.244 228.755 168.737 227.532C168.231 226.31 167.488 225.199 166.553 224.264C165.617 223.328 164.506 222.586 163.284 222.08C162.062 221.573 160.751 221.313 159.428 221.313ZM161.48 228.4L159.288 233.413L160.648 233.98C160.817 234.054 160.95 234.192 161.018 234.364C161.085 234.536 161.082 234.727 161.008 234.897C160.952 235.021 160.86 235.126 160.744 235.198C160.628 235.269 160.492 235.304 160.356 235.297C160.272 235.296 160.188 235.281 160.108 235.252L158.108 234.408C158.064 234.408 158.024 234.364 157.984 234.352L156.204 233.589C156.12 233.555 156.043 233.504 155.978 233.441C155.914 233.377 155.863 233.301 155.828 233.217C155.794 233.133 155.776 233.043 155.777 232.952C155.777 232.862 155.796 232.772 155.832 232.689C155.867 232.603 155.918 232.525 155.983 232.46C156.048 232.394 156.126 232.343 156.211 232.308C156.296 232.272 156.388 232.255 156.48 232.256C156.572 232.257 156.663 232.276 156.748 232.313L158.024 232.852L159.26 230.024L159.108 230.121C159.034 230.179 158.948 230.221 158.856 230.245C158.765 230.269 158.67 230.273 158.576 230.259C158.483 230.244 158.393 230.211 158.313 230.161C158.234 230.11 158.165 230.044 158.111 229.966C158.058 229.888 158.021 229.8 158.003 229.707C157.985 229.614 157.986 229.519 158.006 229.426C158.027 229.334 158.066 229.247 158.121 229.17C158.176 229.093 158.247 229.029 158.328 228.98L160.468 227.537C160.591 227.449 160.74 227.405 160.892 227.413C161.043 227.421 161.187 227.48 161.3 227.58C161.414 227.68 161.493 227.813 161.526 227.961C161.558 228.108 161.542 228.263 161.48 228.4Z" fill="#2563EB"/>
<path d="M95.8799 274.168C95.8519 275.165 96.1199 276.147 96.6503 276.992C97.1807 277.836 97.9495 278.504 98.8595 278.911C99.7695 279.318 100.78 279.446 101.763 279.279C102.746 279.112 103.657 278.657 104.382 277.972C105.106 277.287 105.61 276.402 105.832 275.43C106.054 274.458 105.982 273.442 105.626 272.511C105.27 271.58 104.646 270.775 103.832 270.198C103.019 269.622 102.053 269.3 101.056 269.272C99.7203 269.236 98.4251 269.731 97.4547 270.649C96.4839 271.567 95.9175 272.833 95.8799 274.168ZM99.4799 273.24L101.956 274.404L102.26 273.732C102.299 273.649 102.369 273.585 102.456 273.554C102.542 273.522 102.637 273.526 102.72 273.564C102.784 273.592 102.837 273.639 102.873 273.698C102.908 273.758 102.925 273.827 102.92 273.896C102.92 273.939 102.912 273.981 102.896 274.02L102.444 275.016L102.416 275.076L102.016 275.952C101.998 275.994 101.972 276.032 101.94 276.064C101.907 276.096 101.868 276.12 101.825 276.137C101.783 276.153 101.737 276.161 101.692 276.16C101.646 276.158 101.602 276.147 101.56 276.128C101.518 276.11 101.48 276.083 101.448 276.049C101.416 276.016 101.392 275.976 101.376 275.933C101.36 275.89 101.352 275.843 101.354 275.797C101.357 275.751 101.368 275.706 101.388 275.664L101.676 275.036L100.276 274.38L100.324 274.456C100.348 274.494 100.365 274.537 100.373 274.581C100.381 274.626 100.38 274.672 100.371 274.716C100.361 274.76 100.343 274.802 100.317 274.839C100.291 274.876 100.258 274.908 100.22 274.932C100.182 274.957 100.14 274.973 100.095 274.981C100.05 274.989 100.005 274.988 99.9603 274.979C99.9163 274.969 99.8743 274.951 99.8371 274.925C99.7999 274.899 99.7683 274.866 99.7439 274.828L99.0519 273.74C99.0127 273.679 98.9947 273.607 99.0007 273.535C99.0063 273.463 99.0355 273.394 99.0839 273.34C99.1295 273.288 99.1895 273.25 99.2567 273.233C99.3235 273.215 99.3943 273.218 99.4599 273.24H99.4799Z" fill="#2563EB"/>
</g>
</svg>
